<svg width="122" height="56" viewBox="0 0 122 56" fill="none" xmlns="http://www.w3.org/2000/svg">
<mask id="mask0_11368_498" style="mask-type:luminance" maskUnits="userSpaceOnUse" x="3" y="13" width="117" height="29">
<path d="M119.274 13.9724H3.72559V41.7535H119.274V13.9724Z" fill="white"/>
</mask>
<g mask="url(#mask0_11368_498)">
<path d="M66.1855 21.5368H61.835V37.9823H66.1855V21.5368Z" fill="white"/>
<path d="M45.3159 21.5368H40.9653V37.9823H45.3159V21.5368Z" fill="white"/>
<path d="M81.5176 21.5368H77.167V37.9823H81.5176V21.5368Z" fill="white"/>
<path fill-rule="evenodd" clip-rule="evenodd" d="M33.303 36.108C31.8153 37.4023 29.8542 38.1833 27.6902 38.1833C22.9791 38.1833 19.1694 34.4122 19.1694 29.7485C19.1694 25.0849 22.9791 21.3138 27.6902 21.3138C29.8092 21.3138 31.7478 22.0725 33.2355 23.3444L30.3953 26.4907C29.6513 25.8882 28.7046 25.5088 27.6677 25.5088C25.3234 25.5088 23.4073 27.4055 23.4073 29.7262C23.4073 32.0469 25.3234 33.9435 27.6677 33.9435C28.7272 33.9435 29.6964 33.5642 30.4403 32.9171L33.303 36.108Z" fill="white"/>
<path fill-rule="evenodd" clip-rule="evenodd" d="M9.33845 34.9477L8.34661 37.9824H3.72559L12.1111 13.9724L20.4965 37.9824H15.8529L14.8837 34.9477H9.33845ZM12.1111 26.379L10.7586 30.5517H13.441L12.1111 26.379Z" fill="white"/>
<path fill-rule="evenodd" clip-rule="evenodd" d="M38.4377 20.1535H45.358L53.5856 41.7535L61.7907 20.1535H82.4615L80.0495 15.8245H58.5673L53.5856 28.7444L48.5814 15.8245H26.4681L24.0786 20.1535H34.0871V37.9824H38.4377V20.1535Z" fill="white"/>
<path fill-rule="evenodd" clip-rule="evenodd" d="M86.5867 29.7708C86.5867 27.4724 88.4802 25.5981 90.802 25.5981C93.1237 25.5981 95.0173 27.4724 95.0173 29.7708C95.0173 32.0691 93.1237 33.9435 90.802 33.9435C88.4802 33.9435 86.5867 32.0691 86.5867 29.7708ZM82.2812 29.7708C82.2812 25.1072 86.0908 21.3361 90.802 21.3361C95.5132 21.3361 99.3227 25.1072 99.3227 29.7708C99.3227 34.4344 95.5132 38.2055 90.802 38.2055C86.0908 38.2055 82.2812 34.4122 82.2812 29.7708Z" fill="white"/>
<path fill-rule="evenodd" clip-rule="evenodd" d="M107.869 27.7626V21.5369H112.242V38.6072L104.397 30.9981V37.9825H100.047V21.0906L107.869 27.7626Z" fill="white"/>
<path fill-rule="evenodd" clip-rule="evenodd" d="M115.756 37.8262H116.364V36.7552H116.973C117.131 36.7552 117.221 36.7775 117.311 36.8444C117.379 36.9114 117.424 37.023 117.446 37.1568C117.469 37.2684 117.469 37.38 117.469 37.4915C117.469 37.6031 117.492 37.7147 117.537 37.804H118.145C118.1 37.7593 118.078 37.6924 118.078 37.6031C118.055 37.5139 118.055 37.4469 118.055 37.3577C118.055 37.2684 118.055 37.2015 118.055 37.1568C118.055 37.023 118.01 36.889 117.965 36.7552C117.897 36.6436 117.807 36.5543 117.672 36.5097C117.83 36.4428 117.942 36.3536 118.01 36.242C118.078 36.1304 118.123 35.9965 118.123 35.818C118.123 35.6171 118.055 35.4386 117.897 35.2824C117.762 35.1486 117.559 35.0593 117.311 35.0593H115.756V37.8262ZM116.364 35.5726H117.018C117.153 35.5726 117.266 35.5949 117.334 35.6618C117.401 35.7287 117.446 35.818 117.446 35.9518C117.446 36.0858 117.401 36.1973 117.334 36.242C117.266 36.3089 117.153 36.3312 117.018 36.3312H116.364V35.5726Z" fill="white"/>
<path fill-rule="evenodd" clip-rule="evenodd" d="M114.631 36.532C114.631 35.3271 115.623 34.3676 116.817 34.3676C118.035 34.3676 119.004 35.3494 119.004 36.532C119.004 37.737 118.012 38.6966 116.817 38.6966C115.6 38.7189 114.631 37.737 114.631 36.532ZM114.36 36.532C114.36 35.1932 115.465 34.0999 116.817 34.0999C118.17 34.0999 119.274 35.1932 119.274 36.532C119.274 37.871 118.17 38.9643 116.817 38.9643C115.465 38.9643 114.36 37.871 114.36 36.532Z" fill="white"/>
<path fill-rule="evenodd" clip-rule="evenodd" d="M71.8238 25.8658C71.8238 25.1963 72.5001 25.1071 72.9734 25.1071C73.4467 25.1071 75.8136 25.1071 75.8136 25.1071V21.5368C75.8136 21.5368 73.83 21.5368 71.5308 21.5368C68.2397 21.5368 67.6311 23.8352 67.6311 25.3079C67.6311 29.1682 72.0942 31.7344 72.0942 33.2517C72.0942 34.122 71.0799 34.2782 70.629 34.2782C70.1558 34.2782 67.4282 34.2782 67.4282 34.2782V37.9823C67.4282 37.9823 70.5615 37.9823 72.1619 37.9823C73.7624 37.9823 76.4673 37.2459 76.4673 34.2558C76.4673 29.9715 71.8238 27.7847 71.8238 25.8658Z" fill="white"/>
</g>
</svg>
