<svg width="98" height="56" viewBox="0 0 98 56" fill="none" xmlns="http://www.w3.org/2000/svg">
<path d="M5.20312 37.5596L13.6743 17.3651H19.6111L28.0192 37.5596H21.721L16.4171 24.1459L12.92 32.9469H17.0792L18.7356 37.5596H5.20312ZM35.7919 37.8627C31.0604 37.8627 27.0515 35.1805 27.0515 29.8451C27.0515 24.5097 30.9391 21.5558 34.9795 21.5558C35.6124 21.5558 36.2454 21.6165 36.9075 21.7668V16.7637H42.1507V36.6574C40.9454 37.2006 38.3844 37.8627 35.7919 37.8627ZM35.6731 33.5216C36.1241 33.5216 36.5485 33.461 36.9099 33.3398V26.0157C36.5485 25.8654 36.1266 25.7756 35.6439 25.7756C33.8954 25.7756 32.2972 27.0707 32.2972 29.7529C32.2972 32.4352 33.9245 33.5216 35.6731 33.5216ZM51.4925 37.8312C47.0932 37.8312 43.4142 34.8773 43.4142 29.6923C43.4142 24.5073 47.0908 21.5534 51.4925 21.5534C55.8942 21.5534 59.5998 24.5073 59.5998 29.6923C59.5998 34.8773 55.8942 37.8312 51.4925 37.8312ZM51.4925 33.461C53.03 33.461 54.3857 32.2557 54.3857 29.6947C54.3857 27.1337 53.03 25.926 51.4925 25.926C49.9549 25.926 48.6308 27.1313 48.6308 29.6947C48.6308 32.2581 49.9573 33.461 51.4925 33.461ZM67.1349 37.8627C65.0856 37.8627 62.4931 37.4407 60.8658 36.6865V16.7637H66.1115V21.7377C66.7759 21.6165 67.438 21.5267 68.071 21.5267C72.2011 21.5267 75.9989 24.2381 75.9989 29.4837C75.9989 35.0301 71.9295 37.8627 67.1373 37.8627H67.1349ZM66.109 26.0473V33.3422C66.4413 33.4634 66.8317 33.5241 67.2852 33.5241C69.0629 33.5241 70.7508 32.2581 70.7508 29.5444C70.7508 27.0125 69.1235 25.8072 67.375 25.8072C66.8924 25.8072 66.5019 25.8969 66.109 26.0473ZM77.1969 29.6632C77.1969 24.6285 80.7231 21.5558 84.9429 21.5558C88.8911 21.5558 92.5071 24.0877 92.5071 29.1806C92.5071 29.8742 92.478 30.5363 92.3858 31.2008H82.5299C83.1022 32.9784 84.6713 33.8224 86.6309 33.8224C88.2291 33.8224 89.706 33.4295 91.3624 32.7068V36.7156C89.8248 37.4989 87.9865 37.8312 86.0876 37.8312C81.0845 37.8312 77.1969 34.8167 77.1969 29.6632ZM82.4717 27.9146H87.5961C87.3245 26.1952 86.1798 25.504 85.0036 25.504C83.8274 25.504 82.8621 26.2267 82.4717 27.9146Z" fill="white"/>
</svg>
