<svg width="130" height="56" viewBox="0 0 130 56" fill="none" xmlns="http://www.w3.org/2000/svg">
<path d="M77.9478 44.2931C71.6277 48.9766 62.4671 51.4754 54.5799 51.4754C43.5209 51.4754 33.565 47.3631 26.0329 40.5235C25.4412 39.9857 25.9714 39.2527 26.6815 39.6715C34.8101 44.4264 44.8607 47.287 55.2427 47.287C62.2446 47.287 69.947 45.8305 77.0294 42.8081C78.0993 42.3512 78.994 43.5126 77.9478 44.2931Z" fill="white"/>
<path d="M80.5758 41.2708C79.771 40.2332 75.2357 40.7805 73.2 41.0233C72.5798 41.0994 72.4851 40.5568 73.0437 40.1665C76.6559 37.6106 82.5831 38.3483 83.2743 39.2051C83.9654 40.0666 83.0944 46.0399 79.7 48.8909C79.1792 49.3288 78.6821 49.0956 78.9141 48.5149C79.6763 46.6016 81.3853 42.3131 80.5758 41.2708Z" fill="white"/>
<path d="M73.3416 22.1227V19.6382C73.3416 19.2621 73.6256 19.0099 73.9665 19.0099H85.0302C85.3853 19.0099 85.6693 19.2669 85.6693 19.6382V21.7657C85.6646 22.1227 85.3663 22.5891 84.8361 23.3269L79.103 31.5563C81.2334 31.5039 83.4821 31.8228 85.4137 32.9176C85.8492 33.165 85.9676 33.5268 86.0007 33.8838V36.5349C86.0007 36.8966 85.603 37.3202 85.1864 37.1013C81.7826 35.3069 77.2614 35.1117 73.4978 37.1203C73.1143 37.3297 72.7119 36.9109 72.7119 36.5492V34.0313C72.7119 33.6267 72.7166 32.9366 73.1191 32.3226L79.7611 22.7462H73.9807C73.6256 22.7462 73.3416 22.4939 73.3416 22.1227Z" fill="white"/>
<path d="M32.9829 37.6248H29.6169C29.2949 37.601 29.0393 37.3583 29.0156 37.0489V19.681C29.0156 19.3335 29.3044 19.0575 29.6642 19.0575H32.803C33.1296 19.0717 33.39 19.324 33.4137 19.6381V21.9085H33.4752C34.2942 19.7143 35.8328 18.691 37.9064 18.691C40.0131 18.691 41.3292 19.7143 42.276 21.9085C43.0903 19.7143 44.9414 18.691 46.925 18.691C48.3358 18.691 49.8791 19.2764 50.8212 20.5901C51.8864 22.0513 51.6686 24.1741 51.6686 26.0351L51.6639 36.9965C51.6639 37.344 51.3751 37.6248 51.0153 37.6248H47.654C47.3179 37.601 47.0481 37.3297 47.0481 36.9965V27.7914C47.0481 27.0584 47.1143 25.2307 46.9534 24.5358C46.7025 23.3697 45.9497 23.0413 44.9745 23.0413C44.1602 23.0413 43.3081 23.5886 42.9625 24.4644C42.6169 25.3402 42.65 26.8062 42.65 27.7914V36.9965C42.65 37.344 42.3612 37.6248 42.0014 37.6248H38.6402C38.2993 37.601 38.0342 37.3297 38.0342 36.9965L38.0295 27.7914C38.0295 25.8542 38.3467 23.0032 35.9559 23.0032C33.5367 23.0032 33.6314 25.7828 33.6314 27.7914V36.9965C33.6314 37.344 33.3427 37.6248 32.9829 37.6248Z" fill="white"/>
<path d="M95.1943 18.691C100.189 18.691 102.892 23.0032 102.892 28.4863C102.892 33.7838 99.9048 37.9865 95.1943 37.9865C90.2897 37.9865 87.6196 33.6743 87.6196 28.3007C87.6196 22.8937 90.3228 18.691 95.1943 18.691ZM95.2227 22.2369C92.742 22.2369 92.5858 25.6353 92.5858 27.7533C92.5858 29.8761 92.5526 34.4073 95.1943 34.4073C97.8028 34.4073 97.9259 30.7519 97.9259 28.5244C97.9259 27.0584 97.8644 25.3069 97.4241 23.9171C97.0454 22.7081 96.2926 22.2369 95.2227 22.2369Z" fill="white"/>
<path d="M109.369 37.6248H106.017C105.681 37.601 105.411 37.3297 105.411 36.9965L105.406 19.6239C105.435 19.305 105.714 19.0575 106.055 19.0575H109.175C109.468 19.0717 109.71 19.2717 109.776 19.543V22.1988H109.837C110.78 19.8238 112.1 18.691 114.425 18.691C115.935 18.691 117.407 19.2383 118.354 20.7376C119.235 22.1274 119.235 24.4644 119.235 26.1446V37.0775C119.197 37.3821 118.918 37.6248 118.586 37.6248H115.211C114.903 37.601 114.647 37.3726 114.614 37.0775V27.6439C114.614 25.7448 114.832 22.9651 112.507 22.9651C111.688 22.9651 110.936 23.5173 110.562 24.3549C110.088 25.4163 110.027 26.473 110.027 27.6439V36.9965C110.022 37.344 109.729 37.6248 109.369 37.6248Z" fill="white"/>
<path d="M64.5221 29.3288V28.5958C62.0887 28.5958 59.5181 29.1194 59.5181 32.0037C59.5181 33.4649 60.2708 34.4549 61.5632 34.4549C62.5101 34.4549 63.3575 33.8695 63.8924 32.9176C64.5552 31.7467 64.5221 30.6472 64.5221 29.3288ZM67.9165 37.5772C67.694 37.7772 67.372 37.7914 67.1211 37.6582C66.0039 36.7253 65.805 36.2921 65.1896 35.4021C63.3433 37.2964 62.0366 37.8628 59.6412 37.8628C56.8101 37.8628 54.604 36.1065 54.604 32.5891C54.604 29.8428 56.0858 27.9723 58.1925 27.0584C60.0199 26.2493 62.5716 26.1065 64.5221 25.8828V25.4449C64.5221 24.6405 64.5836 23.6886 64.1149 22.9937C63.7031 22.3702 62.9172 22.1132 62.226 22.1132C60.9431 22.1132 59.7974 22.7748 59.5181 24.1455C59.4613 24.4502 59.2387 24.75 58.9358 24.7643L55.6692 24.4121C55.3946 24.3502 55.0916 24.1265 55.1674 23.7029C55.9201 19.7238 59.4944 18.5244 62.6947 18.5244C64.3327 18.5244 66.4726 18.9623 67.765 20.2093C69.403 21.7467 69.2468 23.7981 69.2468 26.0304V31.304C69.2468 32.889 69.9001 33.5839 70.5155 34.4406C70.7333 34.7453 70.7806 35.1118 70.5061 35.3402C69.8196 35.9161 68.5982 36.9871 67.9259 37.5868L67.9165 37.5772Z" fill="white"/>
<path d="M20.3946 29.3288V28.5958C17.9613 28.5958 15.3906 29.1194 15.3906 32.0037C15.3906 33.4649 16.1434 34.4549 17.4358 34.4549C18.3826 34.4549 19.23 33.8695 19.765 32.9176C20.4278 31.7467 20.3946 30.6472 20.3946 29.3288ZM23.789 37.5772C23.5665 37.7772 23.2446 37.7914 22.9937 37.6582C21.8764 36.7253 21.6776 36.2921 21.0622 35.4021C19.2158 37.2964 17.9092 37.8628 15.5137 37.8628C12.6827 37.8628 10.4766 36.1065 10.4766 32.5891C10.4766 29.8428 11.9584 27.9723 14.0651 27.0584C15.8924 26.2493 18.4442 26.1065 20.3946 25.8828V25.4449C20.3946 24.6405 20.4562 23.6886 19.9875 22.9937C19.5756 22.3702 18.7898 22.1132 18.0986 22.1132C16.8156 22.1132 15.6699 22.7748 15.3906 24.1455C15.3338 24.4502 15.1113 24.75 14.8083 24.7643L11.5417 24.4121C11.2672 24.3502 10.9642 24.1265 11.0399 23.7029C11.7927 19.7238 15.367 18.5244 18.5673 18.5244C20.2053 18.5244 22.3451 18.9623 23.6375 20.2093C25.2756 21.7467 25.1193 23.7981 25.1193 26.0304V31.304C25.1193 32.889 25.7726 33.5839 26.3881 34.4406C26.6059 34.7453 26.6532 35.1118 26.3786 35.3402C25.6922 35.9161 24.4708 36.9871 23.7985 37.5868L23.789 37.5772Z" fill="white"/>
</svg>
