<svg width="177" height="56" viewBox="0 0 177 56" fill="none" xmlns="http://www.w3.org/2000/svg">
<g clip-path="url(#clip0_11368_466)">
<path d="M14.0391 43.9978C15.0452 43.2511 15.6229 41.811 15.6244 40.0445L15.6407 18.6067C15.6422 16.4358 16.3676 14.5812 17.6427 13.4343C17.3015 13.4141 16.9586 13.3997 16.6114 13.3997C7.62214 13.3997 0.333496 20.5249 0.333496 29.314C0.333496 36.5086 5.2182 42.5852 11.9232 44.5539C12.6413 44.707 13.4569 44.4311 14.0391 43.9978Z" fill="white"/>
<path d="M21.4802 14.1248C20.7252 13.9269 19.7988 14.1898 19.1694 14.6563C18.1632 15.4031 17.5854 16.8431 17.584 18.6096L17.5678 40.0474C17.5662 42.2025 16.8511 44.0455 15.5938 45.1938C15.9307 45.214 16.2704 45.2284 16.6133 45.2284C25.604 45.2284 32.8926 38.1033 32.8926 29.3141C32.8926 22.1831 28.0937 16.1469 21.4817 14.1248H21.4802Z" fill="white"/>
<path d="M78.6292 22.3331C74.6901 22.3331 71.4854 25.4661 71.4854 29.3168V35.6014C71.4854 35.9871 71.8045 36.2991 72.199 36.2991C72.5935 36.2991 72.9126 35.9871 72.9126 35.6014V29.3168C72.9126 26.236 75.4761 23.7299 78.6277 23.7299C79.0222 23.7299 79.3413 23.4179 79.3413 23.0323C79.3413 22.6466 79.0222 22.3346 78.6277 22.3346L78.6292 22.3331Z" fill="white"/>
<path d="M62.5567 22.3331C58.7935 22.3331 56.8032 24.3683 55.6345 25.9008C55.4085 26.197 55.0273 26.7212 54.5441 27.3871C53.2956 29.106 51.2049 31.9832 50.3715 32.808C49.2339 33.9331 48.2513 34.9038 45.7439 34.9038C44.2176 34.9038 42.783 34.3231 41.7029 33.2672C40.6228 32.2129 40.0289 30.8089 40.0289 29.3168C40.0289 27.8248 40.6228 26.4222 41.7029 25.3664C42.783 24.3106 44.2176 23.7299 45.7439 23.7299C47.2702 23.7299 48.7049 24.3106 49.785 25.3664C50.0642 25.6394 50.5163 25.6394 50.7956 25.3664C51.0748 25.0934 51.0748 24.6514 50.7956 24.3784C49.4466 23.0597 47.6529 22.3331 45.7439 22.3331C43.835 22.3331 42.0413 23.0597 40.6923 24.3784C39.3433 25.6972 38.6001 27.4507 38.6001 29.3168C38.6001 31.183 39.3433 32.9365 40.6923 34.2552C42.0413 35.574 43.835 36.3005 45.7439 36.3005C48.8467 36.3005 50.1958 34.9673 51.3866 33.7902C52.3027 32.8845 54.2707 30.1748 55.7084 28.196C56.1664 27.5647 56.5639 27.0188 56.7796 26.7372C57.8494 25.3375 59.4717 23.7313 62.5582 23.7313C64.0845 23.7313 65.5191 24.312 66.5992 25.3679C67.5079 26.2561 68.0738 27.3915 68.229 28.6192H57.279C56.8845 28.6192 56.5653 28.9312 56.5653 29.3168C56.5653 31.3448 57.214 33.0058 58.4906 34.2552C59.8395 35.574 61.6333 36.3005 63.5422 36.3005C65.4512 36.3005 67.2449 35.574 68.5939 34.2552C68.8731 33.9822 68.8731 33.5402 68.5939 33.2672C68.3146 32.9942 67.8625 32.9942 67.5832 33.2672C66.5046 34.3231 65.0685 34.9038 63.5422 34.9038C62.0159 34.9038 60.5798 34.3231 59.5012 33.2672C58.6472 32.4324 58.1523 31.3404 58.0266 30.0159H68.9884C69.1775 30.0159 69.3593 29.9423 69.4938 29.8108C69.6281 29.6794 69.7036 29.5017 69.7036 29.3168C69.7036 27.4521 68.9603 25.6986 67.6113 24.3784C66.2624 23.0597 64.4687 22.3331 62.5596 22.3331H62.5567Z" fill="white"/>
<path d="M140.694 24.3784C139.345 23.0597 137.552 22.3331 135.642 22.3331C131.88 22.3331 129.89 24.3683 128.721 25.9008C128.494 26.197 128.113 26.7227 127.63 27.3871C126.381 29.106 124.292 31.9832 123.458 32.808C122.32 33.9331 121.337 34.9038 118.83 34.9038C117.304 34.9038 115.869 34.3231 114.789 33.2672C113.709 32.2129 113.115 30.8089 113.115 29.3168C113.115 27.8248 113.709 26.4222 114.789 25.3664C115.868 24.3106 117.304 23.7299 118.83 23.7299C120.356 23.7299 121.791 24.3106 122.871 25.3664C123.15 25.6394 123.602 25.6394 123.881 25.3664C124.161 25.0934 124.161 24.6514 123.881 24.3784C122.532 23.0597 120.739 22.3331 118.83 22.3331C116.921 22.3331 115.127 23.0597 113.778 24.3784C112.43 25.6972 111.686 27.4507 111.686 29.3168C111.686 31.183 112.43 32.9365 113.778 34.2552C115.127 35.574 116.921 36.3005 118.83 36.3005C121.933 36.3005 123.282 34.9673 124.473 33.7902C125.389 32.8845 127.357 30.1748 128.794 28.196C129.254 27.5647 129.65 27.0188 129.866 26.7372C130.935 25.3375 132.558 23.7313 135.644 23.7313C137.17 23.7313 138.607 24.312 139.685 25.3679C140.594 26.2561 141.16 27.3915 141.315 28.6192H130.365C129.97 28.6192 129.651 28.9312 129.651 29.3168C129.651 31.3448 130.3 33.0058 131.576 34.2552C132.925 35.574 134.719 36.3005 136.628 36.3005C138.537 36.3005 140.331 35.574 141.68 34.2552C141.959 33.9822 141.959 33.5402 141.68 33.2672C141.4 32.9942 140.949 32.9942 140.669 33.2672C139.591 34.3231 138.154 34.9038 136.628 34.9038C135.102 34.9038 133.667 34.3231 132.587 33.2672C131.733 32.4324 131.238 31.3404 131.112 30.0159H142.074C142.263 30.0159 142.445 29.9423 142.58 29.8108C142.714 29.6794 142.789 29.5017 142.789 29.3168C142.789 27.4521 142.046 25.6986 140.698 24.3784H140.694Z" fill="white"/>
<path d="M102.74 22.3331C98.8001 22.3331 95.5952 25.4661 95.5952 29.3168V35.6014C95.5952 35.9871 95.9144 36.2991 96.3087 36.2991C96.7039 36.2991 97.023 35.9871 97.023 35.6014V29.3168C97.023 26.236 99.586 23.7299 102.738 23.7299C105.89 23.7299 108.453 26.236 108.453 29.3168V35.6014C108.453 35.9871 108.772 36.2991 109.166 36.2991C109.561 36.2991 109.88 35.9871 109.88 35.6014V29.3168C109.88 25.4661 106.676 22.3331 102.736 22.3331H102.74Z" fill="white"/>
<path d="M82.6242 25.3664C83.7028 24.3107 85.139 23.73 86.6653 23.73C88.1916 23.73 89.6259 24.3107 90.7063 25.3664C91.6151 26.2548 92.1792 27.3916 92.3348 28.6178H80.996C81.1512 27.39 81.7156 26.2548 82.6242 25.3664ZM87.2061 36.3006C89.1131 36.3006 91.3181 35.574 92.6681 34.2553C92.9474 33.9823 92.9474 33.5403 92.6681 33.2673C92.3896 32.9943 91.9369 32.9943 91.6576 33.2673C90.579 34.3232 88.7324 34.9039 87.2061 34.9039C82.8696 34.9039 81.2502 32.2158 80.996 30.016H93.0942C93.4885 30.016 93.8077 29.704 93.8077 29.3183C93.8077 27.4536 93.0641 25.7001 91.7159 24.38C90.3668 23.0612 88.5728 22.3347 86.6638 22.3347C84.7548 22.3347 82.9612 23.0612 81.6121 24.38C80.2632 25.6987 79.52 27.4522 79.52 29.3183C79.52 32.5004 81.5914 36.3021 87.2046 36.3021L87.2061 36.3006Z" fill="white"/>
<path d="M169.305 18.8551C168.91 18.8551 168.591 19.1873 168.591 19.5961V20.2071C168.591 20.6173 168.91 20.948 169.305 20.948C169.699 20.948 170.018 20.6158 170.018 20.2071V19.5961C170.018 19.1859 169.699 18.8551 169.305 18.8551Z" fill="white"/>
<path d="M163.912 34.9168H163.132V23.6101C163.132 23.2244 162.811 22.9124 162.418 22.9124C162.025 22.9124 161.704 23.2244 161.704 23.6101V25.1122C161.504 24.8508 161.282 24.6009 161.041 24.3655C159.692 23.0467 157.898 22.3202 155.99 22.3202C155.983 22.3202 155.975 22.3202 155.968 22.3202C155.961 22.3202 155.954 22.3202 155.948 22.3202C154.041 22.3202 152.246 23.0467 150.896 24.3655C149.547 25.6843 148.805 27.4378 148.805 29.3039C148.805 31.17 149.547 32.9236 150.896 34.2423C152.006 35.3271 153.417 36.0103 154.946 36.2182C155.03 36.2298 155.116 36.2399 155.204 36.2485C155.244 36.2529 155.285 36.2558 155.325 36.2587C155.385 36.263 155.446 36.2688 155.508 36.2717C155.56 36.2745 155.61 36.2775 155.662 36.2789C155.726 36.2818 155.792 36.2832 155.86 36.2832C155.889 36.2832 155.919 36.2847 155.948 36.2847C155.955 36.2847 155.963 36.2847 155.972 36.2847C155.979 36.2847 155.985 36.2847 155.991 36.2847C156.01 36.2847 156.029 36.2847 156.049 36.2847C156.146 36.2847 156.241 36.2818 156.333 36.2775C156.342 36.2775 156.349 36.2775 156.357 36.2775C157.247 36.2414 157.929 36.0839 158.481 35.8513C159.431 35.5062 160.304 34.9631 161.042 34.2409C161.284 34.0054 161.506 33.7555 161.706 33.4941V35.6159C161.706 35.7603 161.75 35.8946 161.829 36.0059C161.869 36.0637 161.919 36.1127 161.973 36.1562C162.096 36.2529 162.25 36.3135 162.421 36.3135H163.915C164.31 36.3135 164.629 36.0015 164.629 35.6159C164.629 35.2302 164.31 34.9182 163.915 34.9182L163.912 34.9168ZM160.029 33.2543C158.961 34.2986 157.542 34.8778 156.034 34.8893C156.014 34.8893 155.994 34.8893 155.974 34.8893C155.867 34.8893 155.763 34.8865 155.66 34.8822C154.242 34.8143 152.917 34.2423 151.906 33.2529C150.826 32.1984 150.232 30.7945 150.232 29.3024C150.232 27.8104 150.789 26.5018 151.801 25.4603C151.852 25.43 151.904 25.3967 151.949 25.352C153.023 24.302 154.45 23.7213 155.968 23.7155C157.488 23.7213 158.913 24.3005 159.989 25.352C160.034 25.3953 160.084 25.43 160.137 25.4603C161.149 26.5018 161.706 27.861 161.706 29.3024C161.706 30.7439 161.112 32.197 160.032 33.2529L160.029 33.2543Z" fill="white"/>
<path d="M170.005 23.47C169.986 23.379 169.949 23.2952 169.897 23.2201C169.769 23.0338 169.551 22.9125 169.305 22.9125H167.811C167.416 22.9125 167.097 23.2245 167.097 23.6101C167.097 23.9958 167.416 24.3078 167.811 24.3078H168.591V35.6145C168.591 36.0001 168.91 36.3121 169.305 36.3121C169.699 36.3121 170.018 36.0001 170.018 35.6145V23.6101C170.018 23.5625 170.014 23.5148 170.004 23.47H170.005Z" fill="white"/>
<path d="M176.533 25.784C176.131 26.1639 175.651 26.3531 175.09 26.3531C174.528 26.3531 174.02 26.1595 173.624 25.771C173.227 25.3824 173.029 24.9043 173.029 24.3381C173.029 23.772 173.243 23.2592 173.672 22.8692C174.076 22.5037 174.549 22.3218 175.091 22.3218C175.633 22.3218 176.146 22.5182 176.549 22.9125C176.952 23.3068 177.154 23.782 177.154 24.3381C177.154 24.8942 176.947 25.394 176.534 25.7854L176.533 25.784ZM173.878 23.1681C173.55 23.496 173.386 23.886 173.386 24.3367C173.386 24.7873 173.553 25.2005 173.887 25.5269C174.22 25.8533 174.62 26.0165 175.09 26.0165C175.559 26.0165 175.959 25.8519 176.291 25.524C176.624 25.1946 176.789 24.7974 176.789 24.3367C176.789 23.8759 176.624 23.4989 176.294 23.1681C175.96 22.833 175.558 22.6641 175.091 22.6641C174.625 22.6641 174.213 22.8316 173.879 23.1681H173.878Z" fill="white"/>
<path d="M173.931 23.8816V23.6304H174.876V23.8816H174.557V24.6775H174.246V23.8816H173.931ZM175.73 24.6775H175.488L175.256 23.9192V24.6775H174.973V23.6304H175.417L175.613 24.2326L175.805 23.6304H176.249V24.6775H175.965V23.9192L175.734 24.6775H175.73Z" fill="white"/>
</g>
<defs>
<clipPath id="clip0_11368_466">
<rect width="177" height="56" fill="white"/>
</clipPath>
</defs>
</svg>
