<svg width="45" height="56" viewBox="0 0 45 56" fill="none" xmlns="http://www.w3.org/2000/svg">
<path d="M39.5835 5.01782C42.2044 5.01782 43.1645 5.99355 43.1646 8.61938V40.3186C43.1646 40.62 43.1502 40.8933 43.1216 41.1516C43.0643 41.7255 43.0496 42.2851 42.52 42.9163C42.4634 42.9871 41.9324 43.3796 41.9185 43.3899C41.6322 43.5333 41.4314 43.6483 41.1021 43.7776L25.189 50.4651C24.3587 50.8523 24.015 50.996 23.4136 50.9817C22.8121 50.996 22.4679 50.8382 21.6372 50.4651L5.7251 43.7776C5.39577 43.634 5.19516 43.5334 4.90869 43.3899C4.90869 43.3899 4.36431 42.9737 4.30713 42.9163C3.77729 42.285 3.76287 41.7255 3.70557 41.1516C3.67705 40.8933 3.6626 40.62 3.6626 40.3186V8.61938C3.66268 5.99355 4.63695 5.01782 7.24365 5.01782H39.5835ZM15.7935 44.6526L23.2983 47.2356L31.105 44.6526H15.7935ZM12.0981 32.7278L12.0269 32.7415L11.9556 32.7561L11.8833 32.7708L11.812 32.7844L11.7407 32.7991L11.6685 32.8137L11.5972 32.8274L11.5259 32.8567L11.4536 32.8713L11.3823 32.8997L11.311 32.9143L11.2388 32.9426L11.1675 32.9709L11.1099 33.0002L11.0386 33.0432L10.9673 33.0715L10.895 33.1008L10.7524 33.1868L10.6802 33.2297L10.6235 33.2727L10.5659 33.3157L10.5093 33.3586L10.3364 33.4875L10.2798 33.5452L10.2222 33.5881L10.1646 33.6458L10.1079 33.7034L10.0649 33.761L10.0073 33.8176L9.83545 34.0481L9.79248 34.1047L9.74951 34.1624L9.72119 34.22L9.67822 34.2776L9.63525 34.3489L9.60693 34.4211L9.57764 34.4924L9.54932 34.5637L9.52002 34.636L9.4917 34.7073L9.46338 34.7795L9.43408 34.8508L9.40576 34.9231L9.39209 34.9944L9.36279 35.0667L9.34912 35.1379L9.33447 35.2102L9.31982 35.2815L9.30615 35.3674V35.9846L9.31982 36.0569V36.1282L9.33447 36.2004V36.2717L9.34912 36.344L9.37744 36.4153L9.39209 36.4866L9.42041 36.5588L9.43408 36.6311L9.46338 36.7024L9.4917 36.76L9.52002 36.8313L9.54932 36.9036L9.57764 36.9749L9.60693 37.0471L9.64893 37.1038L9.69189 37.176L9.72119 37.2336L9.76416 37.2903L9.93604 37.5208L9.979 37.5774L10.0366 37.635L10.0933 37.6926L10.1509 37.7356L10.2075 37.7932L10.3228 37.8792L10.3794 37.9221L10.4946 38.0081L10.5513 38.051L10.6089 38.094L10.6802 38.137L10.7378 38.1663L10.8091 38.2092L10.8813 38.2375L10.9526 38.2668L11.0239 38.2952L11.0962 38.3235L11.1675 38.3528L11.2388 38.3811L11.311 38.4104L11.3823 38.4241L11.4536 38.4387L11.5259 38.4534L11.5972 38.467L11.6685 38.4817L11.7407 38.4963L11.812 38.511L11.8833 38.5247L11.9556 38.5393L12.0415 38.554L12.1128 38.5676H12.3423L12.4282 38.554L12.4995 38.5393L12.5854 38.5247L12.6567 38.511L12.7427 38.4963L12.8149 38.4817L12.8862 38.467L12.9575 38.4534L13.0298 38.4387L13.1011 38.4241L13.1724 38.3958L13.2446 38.3665L13.3872 38.3098L13.4595 38.2805L13.6021 38.2239L13.6743 38.1946L13.7456 38.1663L13.8169 38.1233L13.8892 38.094L14.0317 38.0081L14.104 37.9651L14.1606 37.9221L14.2759 37.8362L14.3325 37.7932L14.4478 37.7073L14.5044 37.6633L14.5474 37.635V35.2532H12.1841V36.3147H13.2446V37.0325L13.187 37.0754L13.1294 37.1038L13.0581 37.1331L13.0005 37.1614L12.9292 37.1897L12.8579 37.2043L12.7856 37.219L12.7144 37.2336L12.6431 37.2473L12.5708 37.262L12.4849 37.2766L12.3989 37.2903H12.27L12.1841 37.2766L12.0415 37.2473L11.9692 37.2336L11.8979 37.2043L11.8267 37.176L11.7544 37.1467L11.6118 37.0901L11.4966 37.0042L11.4399 36.9602L11.3247 36.8743L11.2817 36.8167L11.2251 36.76L11.1392 36.6448L11.0669 36.5305L11.0239 36.4583L10.9956 36.387L10.9673 36.3147L10.8813 36.344L10.8521 36.2717L10.8384 36.2004L10.8237 36.1282L10.8091 36.0569V35.5256L10.8237 35.4397L10.8384 35.3674L10.8521 35.2961L10.8813 35.2239L10.9097 35.1526L10.939 35.0803L10.9673 35.009L11.0103 34.9514L11.0386 34.8801L11.1675 34.7073L11.2251 34.6506L11.2681 34.593L11.3247 34.55L11.4399 34.4641L11.4966 34.4211L11.5542 34.3772L11.6118 34.3342L11.6831 34.3059L11.7407 34.134L11.812 34.1047L11.8833 34.0764L11.9556 34.0618L12.0269 34.0481L12.0981 34.0334L12.1704 34.0188H12.3276L12.4995 34.0481L12.5708 34.0618L12.6431 34.0764L12.7144 34.0911L12.7856 34.1047L12.8579 34.134L12.9292 34.1624L12.9868 34.1907L13.0435 34.22L13.1011 34.2483L13.1724 34.2913L13.2876 34.3772L13.3442 34.4211L13.4595 34.5071L13.5161 34.5637L13.5737 34.6067L13.6167 34.55L13.6743 34.4924L13.7173 34.4348L13.7739 34.3772L13.8169 34.3206L13.8599 34.2629L13.9175 34.2053L13.9604 34.1477L14.0181 34.0911L14.104 33.9758L14.1606 33.9182L14.2036 33.8606L14.2466 33.804L14.3042 33.7463L14.3472 33.6887L14.4048 33.6311L14.4478 33.5745L14.3901 33.5305L14.3325 33.4739L14.2759 33.4309L14.2183 33.3879L14.1606 33.344L14.104 33.301L14.0317 33.2581L13.9751 33.2151L13.9028 33.1721L13.8462 33.1292L13.7739 33.1008L13.7026 33.0579L13.6313 33.0286L13.5024 32.9709L13.4302 32.9426L13.3735 32.9143L13.3013 32.8997L13.23 32.8713L13.1587 32.8567L13.0864 32.842L13.0151 32.8274L12.9438 32.8137L12.8716 32.7991L12.8003 32.7844L12.7144 32.7708L12.6431 32.7561H12.5708L12.4849 32.7415L12.3989 32.7278H12.0981ZM35.0288 32.6125L34.9575 32.6272L34.8862 32.6409L34.814 32.6555L34.7427 32.6702L34.6704 32.6838L34.5278 32.7131L34.4556 32.7278L34.3989 32.7415L34.3276 32.7708L34.2554 32.7991L34.1841 32.8274L34.1128 32.8567L34.0405 32.8997L33.9692 32.928L33.8979 32.9709L33.8403 33.0139L33.7827 33.0579L33.7261 33.1008L33.6685 33.1438L33.6108 33.2004L33.5542 33.2581L33.439 33.3733L33.396 33.4309L33.353 33.4875L33.3101 33.5598L33.2671 33.6311L33.2388 33.7034L33.2104 33.7747L33.1812 33.8469L33.1675 33.9182L33.1382 33.9905L33.1245 34.0618L33.1099 34.134L33.0952 34.2053L33.0815 34.2776L33.0669 34.3489V34.5208L33.0815 34.6067L33.0952 34.679L33.1099 34.7512L33.1245 34.8225L33.1382 34.8938L33.1675 34.9514L33.1812 35.0237L33.2104 35.0803L33.2388 35.1379L33.2817 35.2102L33.3247 35.2668L33.4536 35.4397L33.5679 35.554L33.6255 35.5969L33.6831 35.6409L33.7397 35.6838L33.812 35.7268L33.8687 35.7698L33.9409 35.8127L34.0122 35.8557L34.0835 35.884L34.1558 35.9133L34.2271 35.9417L34.313 35.9709L34.4556 36.0276L34.5278 36.0569L34.5991 36.0706L34.6704 36.0999L34.7427 36.1282L34.814 36.1428L34.8862 36.1711L34.9575 36.1858L35.0435 36.2141L35.1147 36.2288L35.2007 36.2571L35.2729 36.2717L35.3442 36.301L35.4155 36.3147L35.4878 36.344L35.5444 36.3577L35.6021 36.3723L35.688 36.4153L35.7593 36.4436L35.8306 36.4729L35.8882 36.5012L36.0034 36.5872L36.0454 36.6448L36.0747 36.717L36.0894 36.803V36.8167L36.0747 36.8889L36.0454 36.9602L36.0171 37.0178L35.9741 37.0754L35.9175 37.1184L35.8599 37.1467L35.8022 37.176L35.731 37.1897L35.6597 37.2043L35.5874 37.219L35.5015 37.2336H35.3442L35.2583 37.219H35.187L35.1147 37.2043L35.0288 37.1897L34.8862 37.1614L34.814 37.1467L34.7427 37.1184L34.6704 37.0901L34.5991 37.0608L34.5278 37.0325L34.4556 37.0042L34.3843 36.9749L34.313 36.9465L34.2417 36.9172L34.1841 36.8743L34.1128 36.8459L34.0552 36.803L33.9839 36.76L33.9263 36.717L33.855 36.6741L33.7974 36.6311L33.7261 36.5872L33.6685 36.5442L33.6255 36.6018L33.5679 36.6594L33.5249 36.717L33.4683 36.7737L33.3823 36.8889L33.3247 36.9465L33.2817 37.0042L33.2241 37.0608L33.1812 37.1184L33.1245 37.176L33.0815 37.2336L33.0386 37.2903L32.981 37.3479L32.938 37.4055L32.8804 37.4631L32.8374 37.5208L32.895 37.5774L32.9526 37.6204L33.0093 37.6633L33.0669 37.7073L33.1245 37.7502L33.1812 37.7932L33.2964 37.8792L33.3677 37.9221L33.4253 37.9651L33.4966 38.0081L33.5679 38.0374L33.6401 38.0657L33.7114 38.094L33.7827 38.1233L33.855 38.1516L33.9263 38.1809L33.9976 38.2092L34.0698 38.2375L34.1411 38.2668L34.2124 38.2952L34.2847 38.3098L34.356 38.3381L34.4272 38.3528L34.4995 38.3665L34.6421 38.3958L34.7144 38.4104L34.7856 38.4241L34.8716 38.4387L34.9429 38.4534L35.0151 38.467H35.1011L35.1724 38.4817H35.4585L35.5308 38.467L35.6157 38.4534L35.688 38.4387L35.7593 38.4241L35.8306 38.4104L35.9028 38.3958L36.0317 38.3665L36.103 38.3528L36.1753 38.3235V38.3381L36.2466 38.3098L36.3179 38.2805L36.3901 38.2522L36.4614 38.2092L36.5327 38.1809L36.605 38.137L36.6616 38.094L36.7192 38.0657L36.7759 38.0227L36.8335 37.9797L36.9341 37.8792L36.9907 37.8215L37.0347 37.7639L37.0776 37.7073L37.1206 37.6497L37.1626 37.592L37.2056 37.5344L37.2349 37.4631L37.2632 37.4055L37.2925 37.3342L37.3208 37.262L37.3354 37.1897L37.3638 37.1184L37.3774 37.0471L37.3921 36.9602L37.4067 36.8889L37.5073 36.9749V36.803L37.4927 36.717L37.478 36.6448L37.4497 36.5012L37.4351 36.4299L37.4204 36.3577L37.3921 36.2864L37.3638 36.2288L37.3208 36.1575L37.2778 36.0999L37.2349 36.0276L37.1919 35.9709L37.1343 35.9133L37.0776 35.8557L36.9624 35.7405L36.9048 35.6975L36.8481 35.6545L36.7905 35.6116L36.6479 35.5256L36.5757 35.4827L36.5044 35.4543L36.4331 35.4104L36.3472 35.3821L36.2749 35.3674L36.1323 35.3108L36.0601 35.2815L35.9888 35.2532L35.9175 35.2239L35.8452 35.2102L35.7593 35.1809L35.688 35.1526L35.6021 35.1379L35.5161 35.1096L35.4302 35.0803L35.3442 35.052L35.2729 35.0374L35.2007 35.009L35.1294 34.9944L35.0718 34.9661L35.0151 34.9514L34.9282 34.9231L34.8433 34.8938L34.771 34.8655L34.7144 34.8225L34.6421 34.7795L34.5854 34.7219L34.5562 34.679L34.5278 34.593L34.5132 34.4924V34.4778L34.5278 34.4065L34.5562 34.3342L34.5991 34.2629L34.6704 34.2053L34.728 34.177L34.7856 34.1477L34.8569 34.134L34.9282 34.1194L35.0151 34.1047H35.1724L35.2437 34.1194L35.3159 34.134L35.3872 34.1477L35.4585 34.1624L35.5015 34.134L35.5728 34.1477L35.645 34.177L35.7163 34.2053L35.8022 34.2336L35.8599 34.2629L35.9312 34.2913L35.9888 34.3206L36.0601 34.3489L36.1177 34.3772L36.189 34.4065L36.2466 34.4495L36.3179 34.4778L36.4331 34.5637L36.5044 34.6067L36.562 34.6506L36.605 34.593L36.7476 34.2776L36.8335 34.1624L36.8765 34.0911L37.0483 33.8606L37.0913 33.804L37.1772 33.6887L37.2202 33.6174L37.3491 33.4446L37.3921 33.3879L37.3354 33.344L37.1626 33.2151L37.0913 33.1721L37.0347 33.1292L36.9624 33.0862L36.8911 33.0432L36.8335 33.0139L36.7622 32.9709L36.6899 32.9426L36.6187 32.9143L36.5474 32.885L36.4751 32.8567L36.4038 32.8274L36.3325 32.8137L36.2603 32.7844L36.189 32.7561L36.1177 32.7415L36.0454 32.7278L35.9028 32.6985L35.8306 32.6838L35.7456 32.6702L35.6733 32.6555L35.5874 32.6409H35.5161L35.4302 32.6272L35.3442 32.6125H35.0288ZM17.3696 32.6985L17.3403 32.7708L17.2837 32.8997L17.2544 32.9709L17.2261 33.0432L17.1978 33.1145L17.1685 33.1868L17.1401 33.2581L17.1118 33.3303L17.0825 33.4016L17.0542 33.4739L17.0396 33.5452L17.0112 33.6174L16.9829 33.6887L16.9536 33.761L16.897 33.9036L16.8677 33.9758L16.8394 34.0481L16.811 34.1194L16.7817 34.1907L16.7534 34.2629L16.6958 34.3918L16.6675 34.4641L16.6392 34.5354L16.6099 34.6067L16.5532 34.7512L16.5239 34.8225L16.4956 34.8938L16.4673 34.9661L16.438 35.0374L16.4097 35.1096L16.3813 35.1809L16.3521 35.2532L16.3237 35.3245L16.2954 35.3967L16.2661 35.468L16.2378 35.5403L16.2095 35.6116L16.1802 35.6838L16.1519 35.7551L16.1235 35.8274L16.0942 35.8987L16.0659 35.9709L16.0376 36.0422L16.0083 36.1135L15.98 36.1858L15.9517 36.2571L15.9224 36.3293L15.894 36.4006L15.8657 36.4729L15.8364 36.5442L15.8081 36.6165L15.7798 36.6877L15.7222 36.8167L15.6938 36.8889L15.6646 36.9602L15.6362 37.0325L15.6079 37.1038L15.5786 37.176L15.5503 37.2473L15.522 37.3196L15.4927 37.3909L15.4644 37.4631L15.436 37.5344L15.4067 37.6067L15.3784 37.6497L15.3501 37.7209L15.3208 37.7932L15.2925 37.8645L15.2349 37.9934L15.2065 38.0657L15.1782 38.137L15.1206 38.2668L15.0923 38.3381H16.5239L16.5532 38.2668L16.5815 38.1946L16.6099 38.1233L16.6392 38.051L16.6675 37.9797L16.6958 37.9075L16.7251 37.8362L16.7534 37.7639L16.811 37.635L16.8394 37.5637L16.8677 37.4915L16.897 37.4202L16.9253 37.3479L16.9536 37.2766H19.0161L19.0454 37.3479L19.0737 37.4202L19.1021 37.4915L19.1313 37.5637L19.1597 37.635L19.188 37.7073L19.2173 37.7786L19.2456 37.8508L19.2739 37.9221L19.3032 37.9934L19.3315 38.0657L19.3599 38.137L19.3892 38.2092L19.4175 38.2805L19.4458 38.3528H20.8638L21.0073 38.4104L20.9497 38.2805L20.9214 38.2092L20.8931 38.137L20.8638 38.0657L20.8354 37.9934L20.8062 37.9221L20.7778 37.8508L20.7495 37.7786L20.7212 37.7073L20.6919 37.635L20.6636 37.5637L20.6353 37.4915L20.606 37.4202L20.5776 37.3479L20.5493 37.2766L20.52 37.2043L20.4917 37.1331L20.4634 37.0608L20.4341 36.9895L20.4058 36.9172L20.3765 36.8459L20.3481 36.7737L20.2915 36.6311L20.2622 36.5588L20.2339 36.4866L20.2056 36.4153L20.1763 36.344L20.1479 36.2717L20.1196 36.2004L20.0903 36.1282L20.062 36.0569L20.0337 35.9846L20.0044 35.9133L19.9761 35.8411L19.9478 35.7698L19.9185 35.6975L19.8901 35.6262L19.8618 35.554L19.8325 35.4827L19.8042 35.4104L19.7759 35.3391L19.7466 35.2668L19.6899 35.1243L19.6606 35.052L19.6323 34.9807L19.5747 34.8508L19.5464 34.7795L19.5181 34.7073L19.4888 34.636L19.4604 34.5637L19.4321 34.4924L19.4028 34.4211L19.3745 34.3489L19.3462 34.2776L19.3169 34.2053L19.2886 34.134L19.2603 34.0618L19.231 33.9905L19.2026 33.9182L19.1743 33.8469L19.145 33.7747L19.1167 33.7034L19.0884 33.6311L19.0591 33.5598L19.0308 33.4875L19.0024 33.4163L18.9731 33.344L18.9448 33.2727L18.9165 33.2004L18.8872 33.1292L18.8589 33.0579L18.8306 32.9856L18.8013 32.9143L18.7729 32.842L18.7446 32.7708L18.7153 32.6985H17.3696ZM21.5083 33.0139V38.3381H22.8833V35.2102L22.9263 35.2668L22.9692 35.3391L23.0122 35.3967L23.0552 35.468L23.0981 35.5256L23.1411 35.5969L23.1704 35.6409L23.2134 35.7122L23.2563 35.7698L23.2983 35.8411L23.3413 35.8987L23.3843 35.9709L23.4282 36.0276L23.4565 36.0706L23.4995 36.1282L23.5425 36.2004L23.5854 36.2571L23.6284 36.3293L23.6714 36.387L23.7144 36.4583L23.6431 36.5305L23.686 36.6018L23.728 36.6594L23.771 36.7307L23.8003 36.7883L23.8433 36.8606L23.8862 36.9172L23.9292 36.9895L23.9722 37.0471L24.0151 37.1184L24.0581 37.176L24.1011 37.2473L24.144 37.3049L24.187 37.3772H24.2153L24.2583 37.3196L24.3013 37.2473L24.3442 37.1897L24.3872 37.1331L24.4155 37.0608L24.4585 37.0042L24.5015 36.9465L24.5444 36.8743L24.5884 36.8167L24.6167 36.76L24.6597 36.7024L24.7026 36.6311L24.7886 36.5159L24.8315 36.4436L24.8745 36.387L24.9028 36.3293L24.9458 36.2571L24.9888 36.2004L25.0317 36.1428L25.0747 36.0706L25.1177 36.0139L25.1606 35.9563L25.2036 35.884L25.2466 35.8274L25.3325 35.7122L25.3755 35.6409L25.4614 35.5256L25.5044 35.4543L25.5903 35.3391L25.6333 35.2668L25.6763 35.2102V38.3528H27.0083L27.3374 38.3381V33.0139H25.8481L25.8052 33.0715L25.7622 33.1438L25.7192 33.2004L25.6763 33.2727L25.6333 33.3303L25.5903 33.4016L25.5474 33.4592L25.5044 33.5305L25.4614 33.5881L25.4331 33.6458L25.3901 33.718L25.3472 33.7747L25.3042 33.8469L25.2612 33.9036L25.2183 33.9758L25.1323 34.0911L25.0894 34.1624L25.0464 34.22L25.0034 34.2913L24.9604 34.3489L24.9175 34.4211L24.8745 34.4778L24.8315 34.55L24.8032 34.6067L24.7593 34.6643L24.7163 34.7366L24.6733 34.7942L24.6304 34.8655L24.5884 34.9231L24.5444 34.9944L24.5015 35.052L24.4585 35.1243L24.4155 35.1809L24.3735 35.1243L24.3306 35.052L24.2866 34.9944L24.2583 34.9231L24.2153 34.8655L24.1724 34.7942L24.1294 34.7366L24.0864 34.6643L24.0581 34.6067L24.0151 34.55L23.9858 34.4778L23.9429 34.4211L23.9009 34.3489L23.8579 34.2913L23.814 34.22L23.771 34.1624L23.728 34.0911L23.686 34.0334L23.6431 33.9758L23.5991 33.9036L23.5562 33.8469L23.5132 33.7747L23.4712 33.718L23.4282 33.6458L23.3843 33.5881L23.3413 33.5305L23.2983 33.4592L23.2563 33.4016L23.2134 33.3303L23.1704 33.2727L23.1265 33.2004L23.0835 33.1438L23.0415 33.0715L22.9985 33.0139H21.5083ZM28.1538 33.0286V38.3528H32.394V37.1467H29.5435V36.2434H32.064V35.1096H29.5435V34.2336H32.3511V33.0286H28.1538ZM17.9849 34.6506L18.0142 34.7219L18.0425 34.7942L18.0708 34.8655L18.1001 34.9368L18.1284 35.009L18.1567 35.0803L18.186 35.1526L18.2144 35.2239L18.2427 35.2961L18.272 35.3674L18.3003 35.4397L18.3286 35.511L18.3579 35.5833L18.3862 35.6545L18.4146 35.7268L18.4438 35.7981L18.4722 35.8704L18.5005 35.9417L18.5298 36.0139L18.5581 36.0852L18.5864 36.1575L18.5298 36.2288H17.2974L17.3267 36.1575L17.355 36.0852L17.3833 36.0139L17.4126 35.9417L17.4409 35.8704L17.4692 35.7981L17.4985 35.7268L17.5269 35.6545L17.5552 35.5833L17.5845 35.511L17.6128 35.4397L17.6411 35.3674L17.6704 35.2961L17.6987 35.2239L17.7271 35.1526L17.7563 35.0803L17.7847 35.009L17.813 34.9368L17.8423 34.8655L17.8706 34.7942L17.8989 34.7219L17.9282 34.6506L17.9565 34.5784L17.9849 34.6506ZM32.7515 10.9729C30.5747 10.973 29.5005 12.0489 29.5005 14.2444V25.6096C29.5005 27.805 30.5746 28.881 32.7515 28.8811H34.0698C36.2465 28.881 37.3208 27.8049 37.3208 25.6096V21.5051H34.7144V25.4954C34.7142 26.1982 34.3844 26.5285 33.7114 26.5286H33.2104C32.5088 26.5286 32.1793 26.1982 32.1792 25.4954V14.3733C32.1793 13.6703 32.5087 13.3401 33.2104 13.3401H33.6538C34.3269 13.3401 34.6567 13.6703 34.6567 14.3733V17.8176H37.2778V14.2161C37.2778 12.0348 36.2321 10.9729 34.0552 10.9729H32.7515ZM9.4917 28.7375H15.4927V26.2981H12.1704V20.9885H15.3208V18.5491H12.1704V13.5696H15.4497V11.1301H9.4917V28.7375ZM16.7817 28.7375H19.4604V22.3518H20.979C23.1557 22.3517 24.23 21.2758 24.23 19.0803V14.4026C24.23 12.2073 23.1557 11.1303 20.979 11.1301H16.7817V28.7375ZM25.4331 11.1301V28.7375H28.1108V11.1301H25.4331ZM20.5493 13.4983C21.2222 13.4984 21.5513 13.8285 21.5513 14.5315V18.9514C21.5512 19.6543 21.2222 19.9845 20.5493 19.9846H19.4458V13.4983H20.5493Z" fill="white"/>
</svg>
