<svg width="122" height="56" viewBox="0 0 122 56" fill="none" xmlns="http://www.w3.org/2000/svg">
<path d="M65.8222 27.8805L50.7007 12.8812V42.8447L65.8222 27.8805Z" fill="white"/>
<path d="M35.5805 27.8805L50.7021 12.8812H20.459L35.5805 27.8805Z" fill="white"/>
<path d="M5.30127 27.8805L20.4584 42.8447V12.8812L5.30127 27.8805Z" fill="white"/>
<path d="M35.5805 27.8806L20.459 42.8447H50.7021L35.5805 27.8806Z" fill="white"/>
<path d="M79.0945 28.7604H73.6151V34.1123H70.8755V21.5776H73.6151V26.7183H79.0945V21.5776H81.8341V34.1123H79.0945V28.7604Z" fill="white"/>
<path d="M88.4529 34.3592C85.7132 34.3592 83.4716 33.2677 83.436 30.2749H86.1758C86.2114 31.6129 86.994 32.4226 88.4884 32.4226C89.5915 32.4226 90.8723 31.8593 90.8723 30.6269C90.8723 29.6411 90.0183 29.3595 88.5952 28.9369L87.6701 28.6905C85.6777 28.1271 83.6851 27.3525 83.6851 25.0991C83.6851 22.3175 86.318 21.3668 88.7019 21.3668C91.1569 21.3668 93.2918 22.2118 93.3273 24.9935H90.5876C90.4809 23.8668 89.8048 23.1978 88.524 23.1978C87.4922 23.1978 86.4959 23.7259 86.4959 24.8526C86.4959 25.768 87.3498 26.0496 89.1289 26.6131L90.1962 26.9299C92.3667 27.5989 93.7542 28.3383 93.7542 30.4509C93.7187 33.2677 90.9434 34.3592 88.4529 34.3592Z" fill="white"/>
<path d="M95.2837 21.6129H99.6956C100.514 21.5777 101.368 21.6129 102.186 21.7538C103.716 22.1058 104.89 23.0918 104.89 24.7818C104.89 26.4015 103.858 27.2112 102.364 27.5986C104.072 27.9155 105.353 28.7605 105.353 30.6266C105.353 33.4786 102.507 34.1123 100.301 34.1123H95.3193L95.2837 21.6129ZM99.6956 26.8239C100.905 26.8239 102.151 26.5775 102.151 25.1339C102.151 23.8311 101.012 23.4791 99.8735 23.4791H97.9522V26.8239H99.6956ZM99.9447 32.2462C101.226 32.2462 102.471 31.9646 102.471 30.4153C102.471 28.8662 101.403 28.5845 100.087 28.5845H97.9166V32.2462H99.9447Z" fill="white"/>
<path d="M112.468 34.3589C108.377 34.3589 106.562 31.7886 106.562 27.9508C106.562 24.1129 108.591 21.3314 112.61 21.3314C115.137 21.3314 117.592 22.4581 117.663 25.2748H114.817C114.675 24.0072 113.82 23.3735 112.61 23.3735C110.12 23.3735 109.373 26.0142 109.373 28.0212C109.373 30.0281 110.12 32.3519 112.503 32.3519C113.749 32.3519 114.675 31.6829 114.852 30.4155H117.699C117.414 33.3026 115.101 34.3589 112.468 34.3589Z" fill="white"/>
</svg>
