<svg width="166" height="56" viewBox="0 0 166 56" fill="none" xmlns="http://www.w3.org/2000/svg">
<g clip-path="url(#clip0_11368_534)">
<mask id="mask0_11368_534" style="mask-type:luminance" maskUnits="userSpaceOnUse" x="-1" y="14" width="168" height="28">
<path d="M166.016 14.3449H-0.000488281V41.6551H166.016V14.3449Z" fill="white"/>
</mask>
<g mask="url(#mask0_11368_534)">
<path d="M39.874 21.6308C39.2072 21.6308 38.6414 21.413 38.1764 20.9775C37.7267 20.5419 37.502 20.013 37.502 19.3907C37.502 18.7373 37.7267 18.2007 38.1764 17.7806C38.6414 17.3451 39.2072 17.1274 39.874 17.1274C40.5406 17.1274 41.0986 17.3451 41.5482 17.7806C41.9979 18.2007 42.2226 18.7373 42.2226 19.3907C42.2226 20.013 41.9979 20.5419 41.5482 20.9775C41.0986 21.413 40.5406 21.6308 39.874 21.6308ZM37.7579 35.5612V23.5209H41.9667V35.5612H37.7579Z" fill="white"/>
<path d="M44.7979 35.5621V23.5217H48.9373L48.9838 25.0151C49.2938 24.424 49.7511 23.9651 50.3558 23.6385C50.9604 23.3117 51.658 23.1484 52.4485 23.1484C53.7973 23.1484 54.8204 23.5839 55.5183 24.455C56.2313 25.3106 56.5879 26.5707 56.5879 28.2352V35.5621H52.3789V29.0286C52.3789 27.613 51.8438 26.9052 50.7742 26.9052C50.2007 26.9052 49.7589 27.1074 49.4487 27.5118C49.1544 27.9008 49.007 28.4608 49.007 29.1919V35.5621H44.7979Z" fill="white"/>
<path d="M60.5649 35.5607V26.9038H58.6348V23.5203H60.5649V22.3537C60.5649 20.5024 61.0143 19.0713 61.9137 18.0602C62.8282 17.049 64.1149 16.5435 65.7736 16.5435C66.2545 16.5435 66.7039 16.5824 67.1227 16.6601C67.5567 16.7224 67.9209 16.8158 68.2156 16.9402L68.0062 20.4402C67.8356 20.3624 67.6264 20.308 67.3783 20.2769C67.1459 20.2303 66.9289 20.207 66.7272 20.207C66.0607 20.207 65.5645 20.4013 65.239 20.7903C64.929 21.1792 64.7737 21.7936 64.7737 22.6336V23.5203H67.6109V26.9038H64.7737V35.5607H60.5649ZM69.4713 35.5607V16.6601H73.6802V35.5607H69.4713Z" fill="white"/>
<path d="M80.4762 35.9338C79.1583 35.9338 78.1507 35.5138 77.453 34.6737C76.7555 33.8181 76.4067 32.5737 76.4067 30.9404V23.5201H80.6388V30.0769C80.6388 30.7926 80.7629 31.3214 81.0108 31.6637C81.2745 32.0058 81.6853 32.177 82.2434 32.177C82.8016 32.177 83.2277 31.9826 83.5224 31.5936C83.8324 31.1892 83.9874 30.6214 83.9874 29.8903V23.5201H88.1965V35.5605H84.0574L84.0106 34.067C83.7007 34.6582 83.2357 35.1171 82.6155 35.4437C82.0108 35.7705 81.2979 35.9338 80.4762 35.9338Z" fill="white"/>
<path d="M90.1045 35.5605L94.4763 29.3536L90.337 23.5201H95.0344L96.9878 26.7868L98.8947 23.5201H103.36L99.2435 29.4003L103.639 35.5605H98.918L96.7319 31.9203L94.5694 35.5605H90.1045Z" fill="white"/>
<path d="M111.01 35.9346C109.94 35.9346 108.979 35.6702 108.126 35.1413C107.289 34.6123 106.63 33.8812 106.15 32.9478C105.669 31.999 105.429 30.9255 105.429 29.7278C105.429 28.5766 105.685 27.5343 106.196 26.601C106.723 25.6521 107.429 24.9055 108.312 24.361C109.196 23.801 110.173 23.5209 111.242 23.5209C112.126 23.5209 112.932 23.7387 113.661 24.1743C114.405 24.6099 115.002 25.2243 115.452 26.0176V16.6608H117.428V35.5613H115.498L115.452 33.4379C114.986 34.2313 114.374 34.8457 113.614 35.2812C112.855 35.7168 111.986 35.9346 111.01 35.9346ZM111.522 34.1612C112.328 34.1612 113.033 33.9746 113.638 33.6012C114.242 33.2279 114.715 32.7068 115.056 32.0378C115.413 31.3689 115.591 30.5989 115.591 29.7278C115.591 28.8567 115.413 28.0866 115.056 27.4177C114.715 26.7488 114.242 26.2276 113.638 25.8543C113.033 25.481 112.328 25.2943 111.522 25.2943C110.731 25.2943 110.025 25.481 109.405 25.8543C108.801 26.2276 108.32 26.7488 107.964 27.4177C107.622 28.0866 107.452 28.8567 107.452 29.7278C107.452 30.5989 107.622 31.3689 107.964 32.0378C108.32 32.7068 108.801 33.2279 109.405 33.6012C110.025 33.9746 110.731 34.1612 111.522 34.1612Z" fill="white"/>
<path d="M126.384 35.9338C125.314 35.9338 124.353 35.6693 123.5 35.1404C122.663 34.6115 122.004 33.8803 121.524 32.947C121.043 31.9981 120.803 30.9247 120.803 29.7269C120.803 28.5758 121.058 27.5335 121.57 26.6002C122.097 25.6513 122.803 24.9046 123.686 24.3602C124.57 23.8001 125.547 23.5201 126.616 23.5201C127.5 23.5201 128.306 23.7379 129.035 24.1735C129.779 24.609 130.376 25.2234 130.825 26.0168L130.872 23.8934H132.802V35.5605H130.872L130.825 33.4371C130.36 34.2305 129.748 34.8448 128.988 35.2804C128.229 35.716 127.36 35.9338 126.384 35.9338ZM126.895 34.1604C127.701 34.1604 128.407 33.9737 129.011 33.6004C129.616 33.2271 130.089 32.7059 130.43 32.037C130.787 31.3681 130.965 30.5981 130.965 29.7269C130.965 28.8558 130.787 28.0858 130.43 27.4169C130.089 26.748 129.616 26.2268 129.011 25.8535C128.407 25.4802 127.701 25.2935 126.895 25.2935C126.105 25.2935 125.399 25.4802 124.779 25.8535C124.175 26.2268 123.694 26.748 123.337 27.4169C122.996 28.0858 122.826 28.8558 122.826 29.7269C122.826 30.5981 122.996 31.3681 123.337 32.037C123.694 32.7059 124.175 33.2271 124.779 33.6004C125.399 33.9737 126.105 34.1604 126.895 34.1604Z" fill="white"/>
<path d="M141.618 35.9351C140.301 35.9351 139.332 35.5851 138.712 34.8851C138.091 34.1695 137.782 33.0572 137.782 31.5483V25.5982H135.131V23.8948H137.782V20.5347H139.758V23.8948H143.828V25.5982H139.758V31.385C139.758 32.3806 139.928 33.1039 140.27 33.555C140.626 33.9905 141.193 34.2084 141.968 34.2084C142.711 34.2084 143.479 34.0062 144.269 33.6017L144.503 35.2585C144.146 35.4762 143.712 35.6395 143.2 35.7484C142.703 35.8729 142.177 35.9351 141.618 35.9351Z" fill="white"/>
<path d="M151.842 35.9338C150.772 35.9338 149.811 35.6693 148.958 35.1404C148.121 34.6115 147.462 33.8803 146.982 32.947C146.501 31.9981 146.261 30.9247 146.261 29.7269C146.261 28.5758 146.516 27.5335 147.028 26.6002C147.556 25.6513 148.26 24.9046 149.144 24.3602C150.028 23.8001 151.004 23.5201 152.075 23.5201C152.959 23.5201 153.764 23.7379 154.493 24.1735C155.237 24.609 155.834 25.2234 156.283 26.0168L156.33 23.8934H158.26V35.5605H156.33L156.283 33.4371C155.819 34.2305 155.206 34.8448 154.446 35.2804C153.686 35.716 152.818 35.9338 151.842 35.9338ZM152.354 34.1604C153.16 34.1604 153.866 33.9737 154.47 33.6004C155.074 33.2271 155.547 32.7059 155.888 32.037C156.245 31.3681 156.423 30.5981 156.423 29.7269C156.423 28.8558 156.245 28.0858 155.888 27.4169C155.547 26.748 155.074 26.2268 154.47 25.8535C153.866 25.4802 153.16 25.2935 152.354 25.2935C151.563 25.2935 150.857 25.4802 150.238 25.8535C149.633 26.2268 149.152 26.748 148.795 27.4169C148.455 28.0858 148.284 28.8558 148.284 29.7269C148.284 30.5981 148.455 31.3681 148.795 32.037C149.152 32.7059 149.633 33.2271 150.238 33.6004C150.857 33.9737 151.563 34.1604 152.354 34.1604Z" fill="white"/>
<path fill-rule="evenodd" clip-rule="evenodd" d="M19.7934 33.0414L26.0763 31.6009C26.1731 31.5812 26.2646 31.5417 26.3453 31.4847C26.4261 31.4278 26.4941 31.3546 26.545 31.27C26.5957 31.1854 26.6282 31.091 26.6408 30.993C26.6532 30.895 26.6451 30.7956 26.6168 30.7009L23.9449 19.1123C23.8967 18.9211 23.7745 18.7568 23.6053 18.6554C23.4361 18.5541 23.2335 18.524 23.0422 18.5717L16.762 20.0123C16.5718 20.061 16.4088 20.183 16.3085 20.3518C16.2081 20.5203 16.1786 20.7219 16.2266 20.9123L18.8907 32.5008C18.939 32.6921 19.0611 32.8565 19.2302 32.9577C19.3995 33.0591 19.602 33.0892 19.7934 33.0414Z" fill="white"/>
<path fill-rule="evenodd" clip-rule="evenodd" d="M17.63 40.2026L25.2476 33.1503C25.5347 32.8605 25.4623 32.6821 25.0664 32.8243L19.8311 34.014C19.6147 34.0674 19.4151 34.1746 19.251 34.3256C19.087 34.4767 18.9635 34.6666 18.8922 34.8778L17.3041 39.988C17.1955 40.3837 17.3403 40.4923 17.63 40.2026Z" fill="white"/>
<path fill-rule="evenodd" clip-rule="evenodd" d="M3.73107 37.8996L15.138 41.4245C15.3328 41.461 15.5343 41.4267 15.7062 41.3282C15.8783 41.2298 16.0097 41.0731 16.0769 40.8867L17.9884 34.7678C18.016 34.6724 18.0245 34.5724 18.0136 34.4737C18.0025 34.3749 17.9722 34.2793 17.924 34.1924C17.8759 34.1054 17.8113 34.0287 17.7335 33.9669C17.6558 33.9049 17.5666 33.859 17.471 33.8316L6.0642 30.3403C5.87108 30.2851 5.66397 30.3084 5.48806 30.4053C5.31215 30.5023 5.18172 30.6648 5.12526 30.8575L3.2267 36.9634C3.17031 37.1545 3.19167 37.36 3.28613 37.5353C3.38061 37.7108 3.54052 37.8417 3.73107 37.8996Z" fill="white"/>
<path fill-rule="evenodd" clip-rule="evenodd" d="M0.0478768 25.376L2.36028 35.5009C2.43271 35.8965 2.61895 35.8965 2.71983 35.5009L4.30798 30.3905C4.36211 30.1728 4.36431 29.9454 4.31445 29.7266C4.26458 29.5078 4.16404 29.3039 4.02087 29.1311L0.373788 25.1949C0.120301 24.8975 -0.0685198 24.9803 0.0478768 25.376Z" fill="white"/>
<path fill-rule="evenodd" clip-rule="evenodd" d="M8.9667 14.5523L0.229212 22.6392C0.0890348 22.7727 0.00673503 22.9557 -3.52178e-05 23.149C-0.00680411 23.3424 0.0624951 23.5308 0.193 23.6736L4.56173 28.3986C4.69637 28.5414 4.88194 28.6252 5.07808 28.6321C5.27424 28.6388 5.46515 28.568 5.60932 28.4348L14.3442 20.3349C14.4856 20.2021 14.5688 20.0189 14.5755 19.8251C14.5824 19.6313 14.5122 19.4427 14.3804 19.3005L10.0194 14.578C9.95238 14.5066 9.87176 14.4493 9.78232 14.4093C9.6929 14.3694 9.59643 14.3475 9.49848 14.3451C9.40054 14.3426 9.3031 14.3598 9.21181 14.3953C9.12051 14.4309 9.03722 14.4842 8.9667 14.5523Z" fill="white"/>
<path fill-rule="evenodd" clip-rule="evenodd" d="M17.4123 32.8594C17.8106 32.9681 18.0615 32.7534 17.9555 32.3422L15.4284 21.4027C15.3197 21.0071 14.9939 20.8984 14.7066 21.1855L6.47619 28.8302C6.1865 29.1172 6.25891 29.4406 6.65466 29.5491L17.4123 32.8594Z" fill="white"/>
<path fill-rule="evenodd" clip-rule="evenodd" d="M21.7077 17.601L11.7442 14.5518C11.3484 14.4433 11.276 14.5881 11.5993 14.9114L15.2464 18.8346C15.41 18.9876 15.6079 19.099 15.8234 19.1597C16.039 19.2205 16.266 19.2286 16.4854 19.1837L21.7207 17.9967C22.106 17.8881 22.106 17.7071 21.7077 17.601Z" fill="white"/>
<path d="M163.1 22.3011C162.56 22.3011 162.071 22.1729 161.631 21.9163C161.191 21.6598 160.842 21.3117 160.586 20.8718C160.329 20.432 160.201 19.9418 160.201 19.4012C160.201 18.8607 160.329 18.3705 160.586 17.9306C160.842 17.4908 161.191 17.1426 161.631 16.886C162.071 16.6296 162.56 16.5012 163.1 16.5012C163.651 16.5012 164.141 16.6296 164.572 16.886C165.012 17.1426 165.36 17.4908 165.616 17.9306C165.873 18.3705 166.001 18.8607 166.001 19.4012C166.001 19.9418 165.873 20.432 165.616 20.8718C165.36 21.3117 165.012 21.6598 164.572 21.9163C164.141 22.1729 163.651 22.3011 163.1 22.3011ZM163.1 21.7927C163.55 21.7927 163.948 21.6873 164.296 21.4766C164.654 21.2658 164.937 20.9818 165.148 20.6244C165.36 20.2579 165.465 19.8502 165.465 19.4012C165.465 18.9522 165.36 18.549 165.148 18.1918C164.937 17.8252 164.654 17.5366 164.296 17.3259C163.948 17.1151 163.55 17.0098 163.1 17.0098C162.66 17.0098 162.262 17.1151 161.905 17.3259C161.548 17.5366 161.263 17.8252 161.053 18.1918C160.842 18.549 160.737 18.9522 160.737 19.4012C160.737 19.8502 160.842 20.2579 161.053 20.6244C161.263 20.9818 161.548 21.2658 161.905 21.4766C162.262 21.6873 162.66 21.7927 163.1 21.7927ZM162.125 20.7206V17.9444H163.06C163.408 17.9444 163.674 18.0222 163.856 18.178C164.049 18.3337 164.145 18.549 164.145 18.824C164.145 18.9981 164.105 19.1584 164.022 19.305C163.939 19.4424 163.816 19.5478 163.651 19.6211L164.338 20.7206H163.76L163.156 19.7174H162.62V20.7206H162.125ZM163.018 18.3841H162.62V19.2775H163.005C163.234 19.2775 163.395 19.2409 163.485 19.1676C163.577 19.0943 163.623 18.9797 163.623 18.824C163.623 18.5308 163.422 18.3841 163.018 18.3841Z" fill="white"/>
</g>
</g>
<defs>
<clipPath id="clip0_11368_534">
<rect width="166" height="56" fill="white"/>
</clipPath>
</defs>
</svg>
