<svg width="88" height="56" viewBox="0 0 88 56" fill="none" xmlns="http://www.w3.org/2000/svg">
<path d="M15.52 11.5109H10.6064V16.4245H15.52V11.5109Z" fill="white"/>
<path d="M15.3984 37.1108V19.3972H10.7295V37.0933H15.3984V37.1108ZM46.3141 37.2857V32.9491C45.6322 32.9491 45.0551 32.9141 44.6355 32.8441C44.1458 32.7742 43.7786 32.5993 43.5338 32.3545C43.289 32.1097 43.1316 31.76 43.0442 31.2879C42.9743 30.8507 42.9393 30.2737 42.9393 29.5742V23.4015H46.3141V19.3972H42.9393V12.5076H38.2704V29.6267C38.2704 31.078 38.3928 32.3021 38.6377 33.2813C38.8825 34.243 39.3021 35.0299 39.8792 35.6245C40.4562 36.219 41.2256 36.6387 42.1524 36.901C43.0967 37.1633 44.2857 37.2857 45.7021 37.2857H46.3141ZM73.0332 37.1108V11.1437H68.3644V37.1108H73.0332ZM33.7765 21.1458C32.4825 19.7469 30.6639 19.0475 28.3557 19.0475C27.2366 19.0475 26.2049 19.2748 25.2956 19.7294C24.3688 20.1841 23.5994 20.8136 22.9699 21.6179L22.7251 21.9502V21.6529V19.3972H18.1262V37.0933H22.7601V27.6682V28.3152C22.7601 28.2103 22.7601 28.1054 22.7601 28.0004C22.8126 26.3392 23.2147 25.1152 23.9841 24.3283C24.806 23.489 25.8027 23.0693 26.9393 23.0693C28.2858 23.0693 29.3175 23.489 29.9994 24.2933C30.6639 25.0977 31.0136 26.2343 31.0136 27.6857V27.7381V37.0933H35.7174V27.0562C35.7349 24.5381 35.0704 22.5447 33.7765 21.1458ZM65.9512 28.2278C65.9512 26.9513 65.7239 25.7622 65.2868 24.6431C64.8321 23.5414 64.2026 22.5622 63.4157 21.7229C62.6114 20.8835 61.6496 20.2365 60.5305 19.7644C59.4114 19.2923 58.1698 19.0649 56.8234 19.0649C55.5469 19.0649 54.3403 19.3097 53.2212 19.7819C52.1021 20.2715 51.1229 20.9185 50.301 21.7403C49.4792 22.5622 48.8147 23.5414 48.3425 24.6606C47.8529 25.7797 47.6256 26.9862 47.6256 28.2627C47.6256 29.5392 47.8529 30.7458 48.3076 31.8649C48.7622 32.984 49.4092 33.9633 50.2136 34.7851C51.0179 35.607 52.0147 36.2715 53.1688 36.7436C54.3229 37.2332 55.5994 37.478 56.9633 37.478C60.9152 37.478 63.3633 35.6769 64.8321 33.9982L61.4748 31.4452C60.7753 32.2846 59.0966 33.4212 56.9983 33.4212C55.6868 33.4212 54.6026 33.1239 53.7808 32.5119C52.9589 31.9174 52.3994 31.078 52.1021 30.0463L52.0496 29.889H65.9512V28.2278ZM52.0846 26.6015C52.0846 25.3075 53.571 23.0518 56.7709 23.0343C59.9709 23.0343 61.4748 25.2901 61.4748 26.584L52.0846 26.6015ZM78.349 34.8725C78.2616 34.6627 78.1392 34.4878 77.9818 34.3305C77.8244 34.1731 77.6496 34.0507 77.4397 33.9633C77.2299 33.8758 77.0026 33.8234 76.7753 33.8234C76.5305 33.8234 76.3206 33.8758 76.1108 33.9633C75.9009 34.0507 75.7261 34.1731 75.5687 34.3305C75.4113 34.4878 75.2889 34.6627 75.2015 34.8725C75.1141 35.0824 75.0616 35.3097 75.0616 35.537C75.0616 35.7818 75.1141 35.9917 75.2015 36.2015C75.2889 36.4113 75.4113 36.5862 75.5687 36.7436C75.7261 36.901 75.9009 37.0234 76.1108 37.1108C76.3206 37.1982 76.5479 37.2507 76.7753 37.2507C77.0201 37.2507 77.2299 37.1982 77.4397 37.1108C77.6496 37.0234 77.8244 36.901 77.9818 36.7436C78.1392 36.5862 78.2616 36.4113 78.349 36.2015C78.4365 35.9917 78.4889 35.7643 78.4889 35.537C78.4889 35.3097 78.4365 35.0824 78.349 34.8725ZM78.0692 36.0966C77.9993 36.2715 77.8944 36.4288 77.772 36.5512C77.6496 36.6736 77.4922 36.7786 77.3173 36.8485C77.1425 36.9184 76.9676 36.9534 76.7578 36.9534C76.5654 36.9534 76.3731 36.9184 76.1982 36.8485C76.0233 36.7786 75.866 36.6736 75.7436 36.5512C75.6212 36.4288 75.5163 36.2715 75.4463 36.0966C75.3764 35.9217 75.3414 35.7469 75.3414 35.537C75.3414 35.3447 75.3764 35.1523 75.4463 34.9775C75.5163 34.8026 75.6212 34.6452 75.7436 34.5228C75.866 34.4004 76.0233 34.2955 76.1982 34.2256C76.3731 34.1556 76.5479 34.1206 76.7578 34.1206C76.9501 34.1206 77.1425 34.1556 77.3173 34.2256C77.4922 34.2955 77.6496 34.4004 77.772 34.5228C77.8944 34.6452 77.9993 34.8026 78.0692 34.9775C78.1392 35.1523 78.1742 35.3272 78.1742 35.537C78.1742 35.7469 78.1392 35.9217 78.0692 36.0966ZM77.09 35.6944C77.2299 35.6769 77.3348 35.6245 77.4222 35.537C77.5097 35.4496 77.5621 35.3272 77.5621 35.1523C77.5621 34.96 77.5097 34.8201 77.3873 34.7152C77.2824 34.6103 77.09 34.5578 76.8627 34.5578H76.0933V36.5337H76.4605V35.7294H76.7228L77.2124 36.5337H77.5971L77.09 35.6944ZM76.8977 35.3971C76.8452 35.3971 76.7927 35.3971 76.7228 35.3971H76.4605V34.8376H76.7228C76.7753 34.8376 76.8277 34.8376 76.8977 34.8376C76.9501 34.8376 77.0026 34.8551 77.055 34.8725C77.1075 34.89 77.1425 34.925 77.16 34.96C77.1949 34.995 77.1949 35.0474 77.1949 35.1174C77.1949 35.1873 77.1774 35.2398 77.16 35.2747C77.125 35.3097 77.09 35.3447 77.055 35.3622C77.0026 35.3797 76.9501 35.3971 76.8977 35.3971Z" fill="white"/>
</svg>
