<svg width="156" height="56" viewBox="0 0 156 56" fill="none" xmlns="http://www.w3.org/2000/svg">
<path d="M148.773 26.5575V24.0624H145.67V20.1833L145.566 20.2153L142.651 21.1057L142.593 21.1232V24.0624H137.992V22.4252C137.992 21.6628 138.163 21.0793 138.5 20.6902C138.834 20.3058 139.312 20.1103 139.921 20.1103C140.36 20.1103 140.814 20.2135 141.27 20.4168L141.385 20.4677V17.8399L141.331 17.8202C140.905 17.6674 140.325 17.5903 139.607 17.5903C138.702 17.5903 137.879 17.7869 137.162 18.1767C136.444 18.567 135.88 19.1242 135.484 19.8328C135.09 20.5404 134.89 21.3577 134.89 22.2622V24.0624H132.729V26.5575H134.89V37.069H137.992V26.5575H142.593V33.2375C142.593 35.9886 143.893 37.3828 146.456 37.3828C146.877 37.3828 147.321 37.3334 147.773 37.2368C148.234 37.1378 148.548 37.0388 148.733 36.9332L148.773 36.9091V34.3908L148.647 34.4742C148.479 34.5864 148.269 34.6779 148.023 34.7458C147.777 34.8151 147.57 34.8499 147.411 34.8499C146.81 34.8499 146.366 34.6883 146.09 34.3696C145.811 34.0479 145.67 33.4852 145.67 32.6982V26.5575H148.773ZM125.801 34.8502C124.675 34.8502 123.788 34.4774 123.162 33.7431C122.533 33.0051 122.214 31.9529 122.214 30.6161C122.214 29.237 122.533 28.1575 123.162 27.4064C123.788 26.6603 124.668 26.2817 125.776 26.2817C126.852 26.2817 127.708 26.6433 128.321 27.3572C128.938 28.0747 129.251 29.1455 129.251 30.5408C129.251 31.9532 128.956 33.0382 128.376 33.7639C127.8 34.4842 126.934 34.8502 125.801 34.8502ZM125.94 23.749C123.791 23.749 122.085 24.3774 120.869 25.6169C119.653 26.8566 119.036 28.572 119.036 30.7161C119.036 32.7525 119.638 34.3906 120.825 35.5839C122.012 36.7778 123.627 37.3825 125.625 37.3825C127.708 37.3825 129.38 36.7454 130.596 35.4887C131.812 34.2332 132.428 32.5341 132.428 30.4401C132.428 28.3718 131.85 26.7216 130.709 25.5361C129.568 24.3501 127.963 23.749 125.94 23.749ZM114.035 23.7489C112.573 23.7489 111.365 24.1221 110.441 24.8579C109.512 25.598 109.041 26.5688 109.041 27.7435C109.041 28.3541 109.143 28.8965 109.343 29.3565C109.544 29.8181 109.856 30.2244 110.27 30.5654C110.681 30.9038 111.315 31.2582 112.156 31.6186C112.862 31.9089 113.389 32.1546 113.724 32.3481C114.051 32.5377 114.283 32.7284 114.415 32.9141C114.542 33.0957 114.607 33.3443 114.607 33.6514C114.607 34.5252 113.951 34.9503 112.603 34.9503C112.102 34.9503 111.532 34.8462 110.907 34.6405C110.281 34.4351 109.697 34.1399 109.17 33.7612L109.041 33.6691V36.6509L109.088 36.6729C109.527 36.8752 110.081 37.0457 110.733 37.18C111.384 37.3144 111.976 37.3828 112.49 37.3828C114.075 37.3828 115.352 37.0078 116.284 36.2677C117.221 35.5224 117.697 34.5288 117.697 33.3133C117.697 32.4366 117.441 31.6847 116.937 31.0784C116.436 30.4769 115.567 29.9248 114.354 29.4368C113.388 29.0497 112.77 28.7284 112.514 28.4819C112.268 28.2436 112.143 27.9066 112.143 27.48C112.143 27.1017 112.298 26.7987 112.614 26.5532C112.933 26.3065 113.377 26.1811 113.934 26.1811C114.451 26.1811 114.98 26.2626 115.506 26.4223C116.032 26.582 116.493 26.796 116.879 27.0578L117.005 27.1442V24.3156L116.957 24.2946C116.601 24.1425 116.132 24.0123 115.563 23.9066C114.996 23.8019 114.482 23.7489 114.035 23.7489ZM100.954 34.8502C99.8281 34.8502 98.9401 34.4774 98.3146 33.7431C97.685 33.0051 97.3666 31.9532 97.3666 30.6161C97.3666 29.237 97.6853 28.1575 98.3153 27.4064C98.9407 26.6603 99.8198 26.2817 100.929 26.2817C102.004 26.2817 102.86 26.6433 103.474 27.3572C104.09 28.0747 104.403 29.1455 104.403 30.5408C104.403 31.9532 104.109 33.0382 103.529 33.7639C102.953 34.4842 102.087 34.8502 100.954 34.8502ZM101.092 23.749C98.9435 23.749 97.2372 24.3774 96.0213 25.6169C94.8056 26.8566 94.1887 28.572 94.1887 30.7161C94.1887 32.7534 94.7908 34.3906 95.9777 35.5839C97.1645 36.7778 98.7796 37.3825 100.778 37.3825C102.86 37.3825 104.533 36.7454 105.749 35.4887C106.964 34.2332 107.581 32.5341 107.581 30.4401C107.581 28.3718 107.002 26.7216 105.862 25.5361C104.72 24.3501 103.115 23.749 101.092 23.749ZM89.4796 26.3147V24.0624H86.4152V37.0687H89.4796V30.4155C89.4796 29.2841 89.7365 28.3547 90.2434 27.6527C90.7439 26.9591 91.411 26.6076 92.2253 26.6076C92.5013 26.6076 92.8111 26.6531 93.1467 26.743C93.4788 26.8323 93.7194 26.9293 93.8613 27.0313L93.99 27.1245V24.0401L93.9404 24.0188C93.655 23.8977 93.2513 23.8366 92.7405 23.8366C91.9705 23.8366 91.2813 24.0836 90.691 24.57C90.173 24.9975 89.7984 25.5837 89.5121 26.3147H89.4796ZM80.9275 23.7489C79.5217 23.7489 78.2677 24.05 77.2009 24.6433C76.1322 25.2379 75.3056 26.0869 74.7432 27.1665C74.1834 28.2436 73.8992 29.5016 73.8992 30.9044C73.8992 32.1333 74.1748 33.2611 74.7195 34.255C75.2646 35.2505 76.0361 36.0294 77.0126 36.5696C77.9878 37.1092 79.1148 37.3828 80.3626 37.3828C81.8189 37.3828 83.0623 37.092 84.0593 36.5188L84.0995 36.4957V33.6928L83.9708 33.7866C83.5192 34.115 83.0145 34.3771 82.4715 34.566C81.9299 34.7547 81.4361 34.8501 81.0032 34.8501C79.8008 34.8501 78.8356 34.4744 78.1348 33.7339C77.4326 32.9923 77.0765 31.9511 77.0765 30.6408C77.0765 29.3222 77.4479 28.2542 78.1797 27.4661C78.9091 26.6803 79.8762 26.2818 81.0538 26.2818C82.061 26.2818 83.0425 26.6223 83.9711 27.2949L84.0995 27.388V24.4346L84.0581 24.4113C83.7086 24.2161 83.2321 24.0548 82.6403 23.9325C82.0512 23.8105 81.4751 23.7489 80.9275 23.7489ZM71.7887 24.0624H68.7242V37.0687H71.7887V24.0624ZM70.2877 18.5216C69.7834 18.5216 69.3435 18.693 68.9821 19.0327C68.6192 19.3734 68.435 19.8023 68.435 20.3084C68.435 20.8066 68.617 21.2276 68.9763 21.5592C69.3334 21.8898 69.7746 22.0574 70.2877 22.0574C70.8006 22.0574 71.2436 21.8898 71.605 21.5597C71.9687 21.2276 72.1531 20.8066 72.1531 20.3084C72.1531 19.8199 71.9737 19.3953 71.6199 19.0464C71.2666 18.6981 70.8183 18.5216 70.2877 18.5216ZM62.6419 23.1028V37.0687H65.7692V18.9199H61.441L55.9393 32.4002L50.6003 18.9199H46.0957V37.0687H49.0345V23.1014H49.1356L54.7734 37.0687H56.9912L62.541 23.1028H62.6419Z" fill="white"/>
<path d="M21.0846 27.2477H6.66895V12.855H21.0846V27.2477Z" fill="white"/>
<path d="M37.0014 27.2477H22.5859V12.855H37.0014V27.2477Z" fill="white"/>
<path d="M21.0843 43.1446H6.66895V28.7519H21.0843V43.1446Z" fill="white"/>
<path d="M37.0014 43.1446H22.5859V28.7519H37.0014V43.1446Z" fill="white"/>
</svg>
