<svg width="122" height="56" viewBox="0 0 122 56" fill="none" xmlns="http://www.w3.org/2000/svg">
<path d="M6.16064 16.1263V30.1222L12.8301 39.8737H20.5551L16.5081 30.1222H25.6256V16.1263H6.16064Z" fill="white"/>
<path d="M42.0816 31.0813H39.1193V36.4032H35.3584V19.6104H42.0816C45.464 19.6104 47.9941 22.1175 47.9941 25.3578C47.9941 28.598 45.4633 31.0813 42.0816 31.0813ZM41.9161 23.1579H39.1193V27.5573H41.9161C43.2641 27.5573 44.2339 26.5875 44.2339 25.3578C44.2339 24.1039 43.2641 23.1579 41.9161 23.1579Z" fill="white"/>
<path d="M48.7026 30.4896C48.7026 27.0128 51.5182 24.3152 54.924 24.3152C58.3298 24.3152 61.1447 27.0114 61.1447 30.4883C61.1447 33.9651 58.3298 36.6614 54.924 36.6614C51.5182 36.6614 48.7026 33.9654 48.7026 30.4896ZM57.5483 30.4896C57.5483 28.8104 56.413 27.6513 54.9229 27.6513C53.433 27.6513 52.2977 28.8104 52.2977 30.4896C52.2977 32.1689 53.433 33.328 54.9229 33.328C56.413 33.328 57.5483 32.1689 57.5483 30.4896Z" fill="white"/>
<path d="M62.6353 30.4904C62.6353 27.1318 65.0237 24.3173 68.1223 24.3173C69.7068 24.3173 70.9994 25.1216 71.4724 25.76V19.1812H75.0437V36.4031H71.4735V34.8761C70.9617 35.7766 69.7065 36.6634 68.1234 36.6634C65.0247 36.6634 62.6353 33.8489 62.6353 30.4904ZM71.6236 30.4904C71.6236 28.7876 70.5363 27.5576 68.9274 27.5576C67.3184 27.5576 66.2313 28.7876 66.2313 30.4904C66.2313 32.1931 67.3187 33.4231 68.9274 33.4231C70.5359 33.4231 71.6236 32.1934 71.6236 30.4904Z" fill="white"/>
<path d="M81.5483 24.5773H77.9771V36.4033H81.5483V24.5773Z" fill="white"/>
<path d="M84.3394 31.3182V24.5773H87.9106V30.7038C87.9106 32.4302 88.4076 33.4222 89.7315 33.4222C91.0795 33.4222 91.9555 32.5 91.9555 30.3239V24.5773H95.5264V36.4022H91.9555V34.8524C91.4303 35.9203 90.3465 36.6631 88.8096 36.6631C85.8766 36.6631 84.3394 34.5347 84.3394 31.3182Z" fill="white"/>
<path d="M98.4609 24.5775H102.032V26.1283C102.489 25.199 103.664 24.3173 105.06 24.3173C106.763 24.3173 108.368 25.1867 108.884 26.7736C109.401 25.2473 110.699 24.3173 112.345 24.3173C115.23 24.3173 116.839 26.375 116.839 29.6626V36.4034H113.267V30.2775C113.267 28.5508 112.771 27.5575 111.564 27.5575C110.311 27.5575 109.435 28.5035 109.435 30.6561V36.4034H105.864V30.2775C105.864 28.5508 105.367 27.5575 104.161 27.5575C102.907 27.5575 102.032 28.5035 102.032 30.6561V36.4034H98.4609V24.5775Z" fill="white"/>
<path d="M81.5494 19.1812H77.9536V22.4321H81.5494V19.1812Z" fill="white"/>
</svg>
