<svg width="28" height="28" viewBox="0 0 28 28" fill="none" xmlns="http://www.w3.org/2000/svg">
<g filter="url(#filter0_i_11909_1066)">
<rect width="28" height="28" rx="5.25" fill="white" fill-opacity="0.02"/>
<rect x="0.21875" y="0.21875" width="27.5625" height="27.5625" rx="5.03125" stroke="white" stroke-opacity="0.25" stroke-width="0.4375"/>
<path d="M21.1237 11.2793C21.388 10.8314 21.5353 10.3149 21.5502 9.78429C21.5651 9.25365 21.447 8.72851 21.2084 8.26422C20.9697 7.79994 20.6194 7.41371 20.1942 7.14627C19.7691 6.87884 19.285 6.7401 18.7929 6.74468H6.66772C10.0134 6.8561 12.9863 8.01882 15.0117 9.79195L7.82636 21.5547H14.8545L17.4457 17.306L21.1237 11.2793Z" fill="url(#paint0_linear_11909_1066)"/>
<path d="M21.5503 9.69986C21.5503 9.31013 21.4789 8.92426 21.3401 8.56444C21.2013 8.20463 20.9979 7.87798 20.7416 7.60331C20.4853 7.32864 20.1812 7.11136 19.8468 6.964C19.5123 6.81663 19.1542 6.74208 18.7929 6.74463H6.66772C12.8336 6.95294 17.7511 10.7172 17.7511 15.3342C17.7493 16.0049 17.6461 16.6709 17.4457 17.3059L21.1282 11.2792C21.4068 10.8075 21.5534 10.2592 21.5503 9.69986Z" fill="url(#paint1_linear_11909_1066)"/>
</g>
<defs>
<filter id="filter0_i_11909_1066" x="-0.875" y="0" width="28.875" height="28.875" filterUnits="userSpaceOnUse" color-interpolation-filters="sRGB">
<feFlood flood-opacity="0" result="BackgroundImageFix"/>
<feBlend mode="normal" in="SourceGraphic" in2="BackgroundImageFix" result="shape"/>
<feColorMatrix in="SourceAlpha" type="matrix" values="0 0 0 0 0 0 0 0 0 0 0 0 0 0 0 0 0 0 127 0" result="hardAlpha"/>
<feOffset dx="-0.875" dy="0.875"/>
<feGaussianBlur stdDeviation="2.1875"/>
<feComposite in2="hardAlpha" operator="arithmetic" k2="-1" k3="1"/>
<feColorMatrix type="matrix" values="0 0 0 0 1 0 0 0 0 1 0 0 0 0 1 0 0 0 0.5 0"/>
<feBlend mode="normal" in2="shape" result="effect1_innerShadow_11909_1066"/>
</filter>
<linearGradient id="paint0_linear_11909_1066" x1="17.0954" y1="3.21294" x2="5.07831" y2="21.9104" gradientUnits="userSpaceOnUse">
<stop stop-color="#4E61A3"/>
<stop offset="1" stop-color="#00EC9C"/>
</linearGradient>
<linearGradient id="paint1_linear_11909_1066" x1="-33.6913" y1="12.0253" x2="-33.5746" y2="12.0253" gradientUnits="userSpaceOnUse">
<stop stop-color="#00FFA3"/>
<stop offset="0.46" stop-color="#00F9A1"/>
<stop offset="1" stop-color="#01EB9C"/>
</linearGradient>
</defs>
</svg>
