<svg width="24" height="24" viewBox="0 0 24 24" fill="none" xmlns="http://www.w3.org/2000/svg">
<path d="M21.5137 6.70062C21.5137 6.32465 21.3028 5.98045 20.9678 5.8097L16.7466 3.65785C16.0812 3.31869 15.2924 3.80198 15.2924 4.54876V20.0834C15.2924 20.6357 15.7401 21.0834 16.2924 21.0834L20.5137 21.0834C21.066 21.0834 21.5137 20.6357 21.5137 20.0834V6.70062Z" fill="white"/>
<path d="M12.7012 3.25024C13.3356 3.08194 13.9577 3.55978 13.958 4.21606V20.0833C13.958 20.6355 13.5103 21.0833 12.958 21.0833H3.00391C2.45162 21.0833 2.00391 20.6355 2.00391 20.0833V6.85767C2.00391 6.40428 2.30893 6.00731 2.74707 5.89087L12.7012 3.25024ZM4.82324 16.5071C4.5471 16.5071 4.32324 16.7309 4.32324 17.0071V18.051C4.32336 18.3271 4.54717 18.551 4.82324 18.551H6.56641C6.84248 18.551 7.06629 18.3271 7.06641 18.051V17.0071C7.06641 16.7309 6.84255 16.5071 6.56641 16.5071H4.82324ZM9.39551 16.5071C9.11937 16.5071 8.89551 16.7309 8.89551 17.0071V18.051C8.89562 18.3271 9.11944 18.551 9.39551 18.551H11.1387C11.4147 18.551 11.6386 18.3271 11.6387 18.051V17.0071C11.6387 16.7309 11.4148 16.5071 11.1387 16.5071H9.39551ZM4.82324 12.1497C4.5471 12.1497 4.32324 12.3735 4.32324 12.6497V13.6946C4.32336 13.9706 4.54717 14.1946 4.82324 14.1946H6.56641C6.84248 14.1946 7.06629 13.9706 7.06641 13.6946V12.6497C7.06641 12.3735 6.84255 12.1497 6.56641 12.1497H4.82324ZM9.39551 12.1497C9.11937 12.1497 8.89551 12.3735 8.89551 12.6497V13.6946C8.89562 13.9706 9.11944 14.1946 9.39551 14.1946H11.1387C11.4147 14.1946 11.6386 13.9706 11.6387 13.6946V12.6497C11.6387 12.3735 11.4148 12.1497 11.1387 12.1497H9.39551ZM4.82324 7.79321C4.5471 7.79321 4.32324 8.01707 4.32324 8.29321V9.33716C4.32336 9.6132 4.54717 9.83716 4.82324 9.83716H6.56641C6.84248 9.83716 7.06629 9.6132 7.06641 9.33716V8.29321C7.06641 8.01707 6.84255 7.79321 6.56641 7.79321H4.82324ZM9.39551 7.79321C9.11937 7.79321 8.89551 8.01707 8.89551 8.29321V9.33716C8.89562 9.6132 9.11944 9.83716 9.39551 9.83716H11.1387C11.4147 9.83716 11.6386 9.6132 11.6387 9.33716V8.29321C11.6387 8.01707 11.4148 7.79321 11.1387 7.79321H9.39551Z" fill="white"/>
</svg>
