<svg width="24" height="24" viewBox="0 0 24 24" fill="none" xmlns="http://www.w3.org/2000/svg">
<path d="M19.2988 4.30762C20.4032 4.30788 21.2988 5.20419 21.2988 6.30859V17.6914C21.2988 18.796 20.4024 19.6914 19.2979 19.6914H4.70117C3.5966 19.6914 2.70117 18.796 2.70117 17.6914V6.30859C2.70117 5.20402 3.5966 4.30762 4.70117 4.30762H19.2988ZM13.4316 6.54395C13.0312 6.43908 12.6219 6.67884 12.5166 7.0791L10.0332 16.541C9.9285 16.9414 10.168 17.3509 10.5684 17.4561C10.9688 17.5611 11.379 17.3221 11.4844 16.9219L13.9668 7.45996C14.0716 7.05948 13.8321 6.64908 13.4316 6.54395ZM8.59277 9.03223C8.33167 8.71071 7.85963 8.66177 7.53809 8.92285L4.46387 11.418C4.28866 11.5604 4.18652 11.7752 4.18652 12.001C4.1868 12.2265 4.28878 12.4408 4.46387 12.583L7.53809 15.0791C7.85951 15.3396 8.33178 15.2898 8.59277 14.9688C8.85364 14.6473 8.80463 14.1752 8.4834 13.9141L6.12695 12L8.4834 10.0869C8.80479 9.82592 8.8535 9.35377 8.59277 9.03223ZM16.4609 8.92285C16.1394 8.66177 15.6673 8.71071 15.4062 9.03223C15.1455 9.35377 15.1942 9.82592 15.5156 10.0869L17.8721 12L15.5156 13.9141C15.1944 14.1752 15.1454 14.6473 15.4062 14.9688C15.6672 15.2898 16.1395 15.3396 16.4609 15.0791L19.5352 12.583C19.7102 12.4408 19.8122 12.2265 19.8125 12.001C19.8125 11.7752 19.7104 11.5604 19.5352 11.418L16.4609 8.92285Z" fill="white"/>
</svg>
