<svg width="20" height="20" viewBox="0 0 20 20" fill="none" xmlns="http://www.w3.org/2000/svg">
<mask id="mask0_1_792" style="mask-type:alpha" maskUnits="userSpaceOnUse" x="0" y="0" width="20" height="20">
<rect width="20" height="20" fill="#D9D9D9"/>
</mask>
<g mask="url(#mask0_1_792)">
<path d="M9.99996 17.5833C8.95621 17.5833 7.97357 17.3857 7.05204 16.9904C6.13052 16.5951 5.32524 16.0529 4.63621 15.3638C3.94704 14.6747 3.40482 13.8694 3.00954 12.9479C2.61427 12.0264 2.41663 11.0438 2.41663 10C2.41663 8.94764 2.61427 7.96285 3.00954 7.04563C3.40482 6.1284 3.94704 5.32528 4.63621 4.63625C5.32524 3.94708 6.13052 3.40486 7.05204 3.00959C7.97357 2.61431 8.95621 2.41667 9.99996 2.41667C11.0523 2.41667 12.0371 2.61431 12.9543 3.00959C13.8716 3.40486 14.6747 3.94708 15.3637 4.63625C16.0529 5.32528 16.5951 6.1284 16.9904 7.04563C17.3857 7.96285 17.5833 8.94764 17.5833 10C17.5833 11.0438 17.3857 12.0264 16.9904 12.9479C16.5951 13.8694 16.0529 14.6747 15.3637 15.3638C14.6747 16.0529 13.8716 16.5951 12.9543 16.9904C12.0371 17.3857 11.0523 17.5833 9.99996 17.5833ZM9.99996 16.4615C10.3002 16.1613 10.5818 15.6723 10.8445 14.9944C11.1073 14.3165 11.3093 13.5608 11.4504 12.7275H8.54954C8.70135 13.5822 8.906 14.3485 9.1635 15.0265C9.42086 15.7044 9.69968 16.1827 9.99996 16.4615ZM8.65704 16.3573C8.39315 15.9406 8.15489 15.4161 7.94225 14.7838C7.72961 14.1513 7.5667 13.4658 7.4535 12.7275H4.10579C4.54593 13.6901 5.16746 14.4901 5.97038 15.1275C6.77329 15.7647 7.66885 16.1747 8.65704 16.3573ZM11.3429 16.3573C12.3311 16.1747 13.2266 15.7647 14.0295 15.1275C14.8325 14.4901 15.454 13.6901 15.8941 12.7275H12.5464C12.4064 13.4711 12.2301 14.1592 12.0175 14.7917C11.805 15.4242 11.5801 15.946 11.3429 16.3573ZM3.72746 11.6442H7.34621C7.30774 11.3483 7.28364 11.0585 7.27392 10.7748C7.26433 10.4912 7.25954 10.219 7.25954 9.95833C7.25954 9.69764 7.26433 9.43243 7.27392 9.16271C7.28364 8.89285 7.30774 8.62389 7.34621 8.35583H3.72746C3.64732 8.625 3.5894 8.89847 3.55371 9.17625C3.51788 9.45403 3.49996 9.72861 3.49996 10C3.49996 10.2714 3.51788 10.546 3.55371 10.8238C3.5894 11.1015 3.64732 11.375 3.72746 11.6442ZM8.45017 11.6442H11.5498C11.5881 11.3344 11.6121 11.0474 11.6218 10.7829C11.6314 10.5185 11.6362 10.2575 11.6362 10C11.6362 9.7425 11.6314 9.47806 11.6218 9.20667C11.6121 8.93528 11.5881 8.65167 11.5498 8.35583H8.45017C8.41183 8.65167 8.38781 8.93528 8.37808 9.20667C8.3685 9.47806 8.36371 9.7425 8.36371 10C8.36371 10.2575 8.3685 10.5219 8.37808 10.7933C8.38781 11.0647 8.41183 11.3483 8.45017 11.6442ZM12.6537 11.6442H16.2725C16.3526 11.375 16.4105 11.1015 16.4462 10.8238C16.482 10.546 16.5 10.2714 16.5 10C16.5 9.72861 16.482 9.45056 16.4462 9.16584C16.4105 8.88111 16.3526 8.61111 16.2725 8.35583H12.6537C12.6922 8.65167 12.7163 8.94146 12.726 9.22521C12.7356 9.50882 12.7404 9.78097 12.7404 10.0417C12.7404 10.3024 12.7356 10.5676 12.726 10.8373C12.7163 11.1072 12.6922 11.3761 12.6537 11.6442ZM12.5464 7.2725H15.8941C15.4487 6.29917 14.8312 5.49917 14.0416 4.8725C13.252 4.24597 12.3525 3.83334 11.3429 3.63459C11.6068 4.07792 11.8423 4.61188 12.0495 5.23646C12.2569 5.8609 12.4225 6.53959 12.5464 7.2725ZM8.54954 7.2725H11.4504C11.2986 6.42306 11.09 5.65271 10.8245 4.96146C10.559 4.27021 10.2841 3.7959 9.99996 3.53854C9.71579 3.7959 9.44093 4.27021 9.17538 4.96146C8.90996 5.65271 8.70135 6.42306 8.54954 7.2725ZM4.10579 7.2725H7.4535C7.57739 6.53959 7.74301 5.8609 7.95038 5.23646C8.1576 4.61188 8.39315 4.07792 8.65704 3.63459C7.64204 3.83334 6.74114 4.24736 5.95433 4.87667C5.16739 5.50584 4.55121 6.30445 4.10579 7.2725Z" fill="white"/>
</g>
</svg>
