<svg width="24" height="24" viewBox="0 0 24 24" fill="none" xmlns="http://www.w3.org/2000/svg">
<path d="M20.2764 20.0018C20.4935 20.3779 20.1606 20.8337 19.7363 20.7411L17.0752 20.1591C16.8233 20.1041 16.5706 20.2503 16.4922 20.496L15.665 23.0917C15.533 23.5052 14.973 23.5654 14.7559 23.1893L12 18.4159L9.24414 23.1893C9.02706 23.5653 8.467 23.5052 8.33496 23.0917L7.50781 20.496C7.42941 20.2504 7.17671 20.1043 6.9248 20.1591L4.26367 20.7411C3.83941 20.8337 3.5065 20.3779 3.72363 20.0018L5.7334 16.5194C6.30686 17.0426 7.08392 17.3416 7.9209 17.2841C8.76058 18.7001 10.5973 19.153 11.999 18.2899C13.4007 19.1534 15.2372 18.7 16.0771 17.2841C16.9146 17.3419 17.6912 17.042 18.2646 16.5184L20.2764 20.0018Z" fill="#01EB9C"/>
<path d="M10.9573 2.05579C11.5267 1.46437 12.4737 1.4645 13.0432 2.05579C13.4301 2.45767 14.0138 2.60194 14.5432 2.4259C15.3222 2.1669 16.1604 2.60649 16.3899 3.39465C16.5457 3.93031 16.9956 4.32893 17.5461 4.41907C18.3564 4.55176 18.894 5.33124 18.7307 6.13586C18.6198 6.68255 18.833 7.24457 19.2786 7.5802C19.9343 8.07423 20.048 9.01394 19.5295 9.65051C19.1774 10.083 19.1055 10.6795 19.344 11.1837C19.6951 11.9259 19.3587 12.8112 18.6038 13.1339C18.091 13.3532 17.7499 13.8481 17.7268 14.4054C17.6927 15.2257 16.9837 15.8533 16.1653 15.7882C15.6094 15.7441 15.0776 16.0234 14.7981 16.506C14.3867 17.2166 13.4672 17.443 12.7727 17.005C12.3009 16.7075 11.6996 16.7074 11.2278 17.005C10.5333 17.4429 9.6147 17.2165 9.20337 16.506C8.92387 16.0232 8.39132 15.744 7.83521 15.7882C7.01683 15.8532 6.30776 15.2256 6.27368 14.4054C6.25057 13.848 5.9097 13.3532 5.39673 13.1339C4.64179 12.8112 4.30637 11.9259 4.65747 11.1837C4.89588 10.6795 4.8232 10.083 4.47095 9.65051C3.95252 9.01403 4.06643 8.07428 4.72192 7.5802C5.1675 7.24455 5.3807 6.68258 5.26978 6.13586C5.10649 5.33121 5.64506 4.55172 6.45532 4.41907C7.00566 4.32879 7.4548 3.93017 7.6106 3.39465C7.84002 2.60639 8.67921 2.16683 9.45825 2.4259C9.9875 2.60173 10.5705 2.45754 10.9573 2.05579ZM16.011 7.57922C15.7181 7.28658 15.2433 7.28651 14.9504 7.57922L11.3381 11.1915L9.48853 9.34192C9.19563 9.04929 8.7208 9.04916 8.42798 9.34192C8.13516 9.63473 8.13533 10.1095 8.42798 10.4025L10.8079 12.7823C10.9485 12.9229 11.1393 13.002 11.3381 13.0021C11.537 13.002 11.7278 12.923 11.8684 12.7823L16.011 8.63977C16.3037 8.3469 16.3037 7.87209 16.011 7.57922Z" fill="#01EB9C"/>
</svg>
