<svg width="100" height="29" viewBox="0 0 100 29" fill="none" xmlns="http://www.w3.org/2000/svg">
<path d="M90.4599 28.8752C94.5128 28.8752 97.7983 27.6015 97.7983 24.2898C97.7983 21.8599 95.9293 21.0173 93.6864 20.5078C91.7584 20.0767 90.6763 19.7044 90.6763 18.705C90.6763 17.686 91.66 17.1765 92.7814 17.1765C93.9422 17.1765 94.5915 17.6664 94.5915 18.5286C94.5915 18.7834 94.5324 19.0381 94.4537 19.2145H98.9985C99.0378 19.0185 99.0771 18.6266 99.0771 18.3327C99.0771 15.6089 95.9883 14.8642 93.1749 14.8642C89.3582 14.8642 86.1316 16.2163 86.1316 19.3712C86.1316 21.4288 87.6072 22.193 89.8697 22.8201C92.3683 23.506 93.1946 23.9175 93.1946 24.8973C93.1946 25.975 92.1715 26.5041 90.9124 26.5041C89.6336 26.5041 88.7876 25.9554 88.7876 24.9756C88.7876 24.7209 88.8073 24.5445 88.8663 24.3486H84.1445C84.0855 24.6229 84.0658 24.9364 84.0658 25.1912C84.0658 28.0522 87.2727 28.8752 90.4599 28.8752ZM72.222 28.8556C74.2485 28.8556 75.9207 28.1501 77.1996 26.6413C77.0422 27.2487 76.9438 27.8758 76.9045 28.5813H81.5475C81.7049 27.4643 82.0394 26.2885 82.4329 24.9756L83.574 21.0761C83.8297 20.2139 84.0462 19.2929 84.0462 18.607C84.0462 15.7068 81.3705 14.8446 77.9669 14.8446C74.1894 14.8446 71.1793 15.9616 70.5694 18.9989H75.3502C75.724 17.8036 76.4323 17.1765 77.6717 17.1765C78.7735 17.1765 79.3637 17.7056 79.3637 18.5874C79.3637 19.0577 79.1867 19.7632 79.0096 20.1943L77.8882 20.2139C72.5171 20.351 68.1298 21.2328 68.1298 25.2892C68.1495 27.5623 69.7628 28.8556 72.222 28.8556ZM74.6223 26.2885C73.5992 26.2885 72.8713 25.7595 72.8713 24.7797C72.8713 22.7613 75.2715 22.2322 77.6521 22.2322H78.3997L78.1636 22.9769C77.5537 24.8385 76.3339 26.2885 74.6223 26.2885ZM57.6632 20.3314C58.2731 18.4698 59.2371 17.3137 61.0471 17.3137C62.385 17.3137 63.0145 17.9408 63.0145 19.2929C63.0145 19.6064 62.9162 20.0179 62.8375 20.3314H57.6632ZM58.8043 28.8556C62.9555 28.8556 65.4148 27.6211 66.5952 24.1526H61.8341C61.2636 25.8183 60.5159 26.4061 59.0404 26.4061C57.5255 26.4061 56.6992 25.8183 56.6992 24.3682C56.6992 23.7607 56.8369 23.1532 56.9943 22.6829H67.0084C67.3232 22.0363 67.5396 20.6842 67.5396 19.7436C67.5396 16.3339 64.9623 14.9622 61.4209 14.9622C55.8925 14.9622 52.0758 18.607 52.0758 23.8391C52.0758 27.3663 54.8892 28.8556 58.8043 28.8556ZM42.8093 28.8752C46.8621 28.8752 50.1477 27.6015 50.1477 24.2898C50.1477 21.8599 48.2787 21.0173 46.0358 20.5078C44.1078 20.0767 43.0257 19.7044 43.0257 18.705C43.0257 17.686 44.0094 17.1765 45.1308 17.1765C46.2916 17.1765 46.9408 17.6664 46.9408 18.5286C46.9408 18.7834 46.8818 19.0381 46.8031 19.2145H51.3478C51.3872 19.0185 51.4265 18.6266 51.4265 18.3327C51.4265 15.6089 48.3377 14.8642 45.5243 14.8642C41.7075 14.8642 38.481 16.2163 38.481 19.3712C38.481 21.4288 39.9565 22.193 42.219 22.8201C44.7176 23.506 45.544 23.9175 45.544 24.8973C45.544 25.975 44.5209 26.5041 43.2618 26.5041C41.983 26.5041 41.137 25.9554 41.137 24.9756C41.137 24.7209 41.1566 24.5445 41.2157 24.3486H36.4939C36.4349 24.6229 36.4152 24.9364 36.4152 25.1912C36.4152 28.0522 39.6221 28.8752 42.8093 28.8752ZM28.2111 28.5617H33.0706L38.481 9.74973H33.6411L28.2111 28.5617ZM24.3943 28.5617H24.5517L29.9818 9.74973H25.1419L21.8367 21.1937L24.3943 28.5617ZM9.97321 28.5617H19.3184L18.256 25.25H11.0553L9.97321 28.5617ZM0.0771484 28.5617H4.77925L11.8619 9.74973H14.1244L11.2914 0.931641H11.0946L0.0771484 28.5617Z" fill="#171E37"/>
<path d="M12.0527 21.6897H17.6414L14.9973 13.3066H14.7569L12.0527 21.6897Z" fill="#171E37"/>
</svg>
