<svg width="333" height="157" viewBox="0 0 333 157" fill="none" xmlns="http://www.w3.org/2000/svg">
<g clip-path="url(#clip0_1349_7559)">
<ellipse cx="3.44415" cy="3.41651" rx="3.44415" ry="3.41651" transform="matrix(0.826864 -0.562402 0.580268 0.814426 51.5771 15.874)" fill="#204CE1" fill-opacity="0.22"/>
<ellipse cx="3.44415" cy="3.41651" rx="3.44415" ry="3.41651" transform="matrix(0.826864 -0.562402 0.580268 0.814426 271.577 15.874)" fill="#204CE1" fill-opacity="0.22"/>
<ellipse cx="3.44415" cy="3.41651" rx="3.44415" ry="3.41651" transform="matrix(0.826864 -0.562402 0.580268 0.814426 51.5771 46.874)" fill="#204CE1"/>
<ellipse cx="3.44415" cy="3.41651" rx="3.44415" ry="3.41651" transform="matrix(0.826864 -0.562402 0.580268 0.814426 271.577 46.874)" fill="#204CE1" fill-opacity="0.22"/>
<ellipse cx="3.44415" cy="3.41651" rx="3.44415" ry="3.41651" transform="matrix(0.826864 -0.562402 0.580268 0.814426 51.5771 77.874)" fill="#204CE1" fill-opacity="0.22"/>
<ellipse cx="3.44415" cy="3.41651" rx="3.44415" ry="3.41651" transform="matrix(0.826864 -0.562402 0.580268 0.814426 271.577 77.874)" fill="#204CE1" fill-opacity="0.22"/>
<ellipse cx="3.44415" cy="3.41651" rx="3.44415" ry="3.41651" transform="matrix(0.826864 -0.562402 0.580268 0.814426 51.5771 108.874)" fill="#204CE1" fill-opacity="0.22"/>
<ellipse cx="3.44415" cy="3.41651" rx="3.44415" ry="3.41651" transform="matrix(0.826864 -0.562402 0.580268 0.814426 271.577 108.874)" fill="#204CE1"/>
<ellipse cx="3.44415" cy="3.41651" rx="3.44415" ry="3.41651" transform="matrix(0.826864 -0.562402 0.580268 0.814426 51.5771 139.874)" fill="#204CE1" fill-opacity="0.22"/>
<ellipse cx="3.44415" cy="3.41651" rx="3.44415" ry="3.41651" transform="matrix(0.826864 -0.562402 0.580268 0.814426 271.577 139.874)" fill="#204CE1" fill-opacity="0.22"/>
<path d="M234.407 77.9215C234.407 114.386 204.148 143.971 166.791 143.971C129.435 143.971 99.1759 114.386 99.1759 77.9215C99.1759 41.457 129.435 11.872 166.791 11.872C204.148 11.872 234.407 41.457 234.407 77.9215Z" stroke="url(#paint0_linear_1349_7559)" stroke-width="1.25809"/>
<path d="M234.407 77.9215C234.407 114.386 204.148 143.971 166.791 143.971C129.435 143.971 99.1759 114.386 99.1759 77.9215C99.1759 41.457 129.435 11.872 166.791 11.872C204.148 11.872 234.407 41.457 234.407 77.9215Z" stroke="url(#paint1_linear_1349_7559)" stroke-width="1.25809"/>
<path d="M234.407 77.9215C234.407 114.386 204.148 143.971 166.791 143.971C129.435 143.971 99.1759 114.386 99.1759 77.9215C99.1759 41.457 129.435 11.872 166.791 11.872C204.148 11.872 234.407 41.457 234.407 77.9215Z" stroke="url(#paint2_linear_1349_7559)" stroke-width="1.25809"/>
<path d="M142.809 118.143C120.347 105.472 112.661 77.4164 125.621 55.4849C138.58 33.5533 167.291 26.0293 189.753 38.7003C212.215 51.3713 219.901 79.4267 206.942 101.358C193.982 123.29 165.272 130.814 142.809 118.143Z" stroke="url(#paint3_linear_1349_7559)" stroke-width="1.25809"/>
<path d="M142.809 118.143C120.347 105.472 112.661 77.4164 125.621 55.4849C138.58 33.5533 167.291 26.0293 189.753 38.7003C212.215 51.3713 219.901 79.4267 206.942 101.358C193.982 123.29 165.272 130.814 142.809 118.143Z" stroke="url(#paint4_linear_1349_7559)" stroke-width="1.25809"/>
<path d="M142.809 118.143C120.347 105.472 112.661 77.4164 125.621 55.4849C138.58 33.5533 167.291 26.0293 189.753 38.7003C212.215 51.3713 219.901 79.4267 206.942 101.358C193.982 123.29 165.272 130.814 142.809 118.143Z" stroke="url(#paint5_linear_1349_7559)" stroke-width="1.25809"/>
<path d="M184.483 65.2856C191.786 75.5354 189.205 89.6366 178.705 96.7788C168.204 103.921 153.773 101.39 146.471 91.1402C139.168 80.8904 141.748 66.7893 152.249 59.647C162.749 52.5048 177.18 55.0358 184.483 65.2856Z" stroke="url(#paint6_linear_1349_7559)" stroke-width="1.25809"/>
<path d="M184.483 65.2856C191.786 75.5354 189.205 89.6366 178.705 96.7788C168.204 103.921 153.773 101.39 146.471 91.1402C139.168 80.8904 141.748 66.7893 152.249 59.647C162.749 52.5048 177.18 55.0358 184.483 65.2856Z" stroke="url(#paint7_linear_1349_7559)" stroke-width="1.25809"/>
<path d="M184.483 65.2856C191.786 75.5354 189.205 89.6366 178.705 96.7788C168.204 103.921 153.773 101.39 146.471 91.1402C139.168 80.8904 141.748 66.7893 152.249 59.647C162.749 52.5048 177.18 55.0358 184.483 65.2856Z" stroke="url(#paint8_linear_1349_7559)" stroke-width="1.25809"/>
<mask id="path-14-inside-1_1349_7559" fill="white">
<path d="M182.41 94.4709C186.456 90.5177 188.883 85.2549 189.232 79.6746L187.988 79.6003C187.657 84.8838 185.36 89.8667 181.529 93.6097L182.41 94.4709Z"/>
</mask>
<path d="M182.41 94.4709C186.456 90.5177 188.883 85.2549 189.232 79.6746L187.988 79.6003C187.657 84.8838 185.36 89.8667 181.529 93.6097L182.41 94.4709Z" stroke="url(#paint9_linear_1349_7559)" stroke-width="2.51617" mask="url(#path-14-inside-1_1349_7559)"/>
<path d="M182.41 94.4709C186.456 90.5177 188.883 85.2549 189.232 79.6746L187.988 79.6003C187.657 84.8838 185.36 89.8667 181.529 93.6097L182.41 94.4709Z" stroke="url(#paint10_linear_1349_7559)" stroke-width="2.51617" mask="url(#path-14-inside-1_1349_7559)"/>
<path d="M182.41 94.4709C186.456 90.5177 188.883 85.2549 189.232 79.6746L187.988 79.6003C187.657 84.8838 185.36 89.8667 181.529 93.6097L182.41 94.4709Z" stroke="url(#paint11_linear_1349_7559)" stroke-width="2.51617" mask="url(#path-14-inside-1_1349_7559)"/>
<mask id="path-15-inside-2_1349_7559" fill="white">
<path d="M120.294 90.3615C123.314 101.371 130.351 110.922 140.079 117.213L140.813 116.128C131.357 110.012 124.516 100.728 121.581 90.0248L120.294 90.3615Z"/>
</mask>
<path d="M120.294 90.3615C123.314 101.371 130.351 110.922 140.079 117.213L140.813 116.128C131.357 110.012 124.516 100.728 121.581 90.0248L120.294 90.3615Z" stroke="url(#paint12_linear_1349_7559)" stroke-width="2.51617" mask="url(#path-15-inside-2_1349_7559)"/>
<path d="M120.294 90.3615C123.314 101.371 130.351 110.922 140.079 117.213L140.813 116.128C131.357 110.012 124.516 100.728 121.581 90.0248L120.294 90.3615Z" stroke="url(#paint13_linear_1349_7559)" stroke-width="2.51617" mask="url(#path-15-inside-2_1349_7559)"/>
<path d="M120.294 90.3615C123.314 101.371 130.351 110.922 140.079 117.213L140.813 116.128C131.357 110.012 124.516 100.728 121.581 90.0248L120.294 90.3615Z" stroke="url(#paint14_linear_1349_7559)" stroke-width="2.51617" mask="url(#path-15-inside-2_1349_7559)"/>
<path d="M110.033 41.7991C119.149 28.3421 132.99 18.6059 148.948 14.428" stroke="url(#paint15_linear_1349_7559)" stroke-width="1.25809"/>
<path d="M110.033 41.7991C119.149 28.3421 132.99 18.6059 148.948 14.428" stroke="url(#paint16_linear_1349_7559)" stroke-width="1.25809"/>
<path d="M110.033 41.7991C119.149 28.3421 132.99 18.6059 148.948 14.428" stroke="url(#paint17_linear_1349_7559)" stroke-width="1.25809"/>
</g>
<defs>
<linearGradient id="paint0_linear_1349_7559" x1="166.791" y1="11.2429" x2="166.791" y2="144.6" gradientUnits="userSpaceOnUse">
<stop stop-color="#17275E"/>
<stop offset="1" stop-color="#244EE1"/>
</linearGradient>
<linearGradient id="paint1_linear_1349_7559" x1="166.791" y1="11.2429" x2="166.791" y2="144.6" gradientUnits="userSpaceOnUse">
<stop stop-color="#13276D"/>
<stop offset="1" stop-color="#2349CD"/>
</linearGradient>
<linearGradient id="paint2_linear_1349_7559" x1="166.791" y1="11.2429" x2="166.791" y2="144.6" gradientUnits="userSpaceOnUse">
<stop stop-color="#13276D"/>
<stop offset="1" stop-color="#244EE2"/>
</linearGradient>
<linearGradient id="paint3_linear_1349_7559" x1="207.49" y1="101.667" x2="126.04" y2="53.5382" gradientUnits="userSpaceOnUse">
<stop stop-color="#17275E"/>
<stop offset="1" stop-color="#244EE1"/>
</linearGradient>
<linearGradient id="paint4_linear_1349_7559" x1="207.49" y1="101.667" x2="126.04" y2="53.5382" gradientUnits="userSpaceOnUse">
<stop stop-color="#13276D"/>
<stop offset="1" stop-color="#2349CD"/>
</linearGradient>
<linearGradient id="paint5_linear_1349_7559" x1="207.49" y1="101.667" x2="126.04" y2="53.5382" gradientUnits="userSpaceOnUse">
<stop stop-color="#13276D"/>
<stop offset="1" stop-color="#244EE2"/>
</linearGradient>
<linearGradient id="paint6_linear_1349_7559" x1="151.884" y1="59.1347" x2="178.226" y2="97.8647" gradientUnits="userSpaceOnUse">
<stop stop-color="#17275E"/>
<stop offset="1" stop-color="#244EE1"/>
</linearGradient>
<linearGradient id="paint7_linear_1349_7559" x1="151.884" y1="59.1347" x2="178.226" y2="97.8647" gradientUnits="userSpaceOnUse">
<stop stop-color="#13276D"/>
<stop offset="1" stop-color="#2349CD"/>
</linearGradient>
<linearGradient id="paint8_linear_1349_7559" x1="151.884" y1="59.1347" x2="178.226" y2="97.8647" gradientUnits="userSpaceOnUse">
<stop stop-color="#13276D"/>
<stop offset="1" stop-color="#244EE2"/>
</linearGradient>
<linearGradient id="paint9_linear_1349_7559" x1="182.41" y1="62.0813" x2="150.029" y2="95.2227" gradientUnits="userSpaceOnUse">
<stop stop-color="#17275E"/>
<stop offset="1" stop-color="#244EE1"/>
</linearGradient>
<linearGradient id="paint10_linear_1349_7559" x1="182.41" y1="62.0813" x2="150.029" y2="95.2227" gradientUnits="userSpaceOnUse">
<stop stop-color="#13276D"/>
<stop offset="1" stop-color="#2349CD"/>
</linearGradient>
<linearGradient id="paint11_linear_1349_7559" x1="188.832" y1="80.0214" x2="180.794" y2="95.5665" gradientUnits="userSpaceOnUse">
<stop stop-color="#1EFFAE" stop-opacity="0"/>
<stop offset="1" stop-color="#1EFFAE"/>
</linearGradient>
<linearGradient id="paint12_linear_1349_7559" x1="178.825" y1="123.379" x2="155.138" y2="32.8987" gradientUnits="userSpaceOnUse">
<stop stop-color="#17275E"/>
<stop offset="1" stop-color="#244EE1"/>
</linearGradient>
<linearGradient id="paint13_linear_1349_7559" x1="178.825" y1="123.379" x2="155.138" y2="32.8987" gradientUnits="userSpaceOnUse">
<stop stop-color="#13276D"/>
<stop offset="1" stop-color="#2349CD"/>
</linearGradient>
<linearGradient id="paint14_linear_1349_7559" x1="139.859" y1="116.17" x2="121.182" y2="85.7083" gradientUnits="userSpaceOnUse">
<stop stop-color="#1EFFAE" stop-opacity="0"/>
<stop offset="1" stop-color="#1EFFAE"/>
</linearGradient>
<linearGradient id="paint15_linear_1349_7559" x1="100.49" y1="95.5459" x2="232.007" y2="59.4784" gradientUnits="userSpaceOnUse">
<stop stop-color="#17275E"/>
<stop offset="1" stop-color="#244EE1"/>
</linearGradient>
<linearGradient id="paint16_linear_1349_7559" x1="100.49" y1="95.5459" x2="232.007" y2="59.4784" gradientUnits="userSpaceOnUse">
<stop stop-color="#13276D"/>
<stop offset="1" stop-color="#2349CD"/>
</linearGradient>
<linearGradient id="paint17_linear_1349_7559" x1="111.034" y1="41.1391" x2="154.434" y2="13.2644" gradientUnits="userSpaceOnUse">
<stop stop-color="#1EFFAE" stop-opacity="0"/>
<stop offset="1" stop-color="#1EFFAE"/>
</linearGradient>
<clipPath id="clip0_1349_7559">
<rect width="332" height="157" fill="white" transform="translate(0.577148)"/>
</clipPath>
</defs>
</svg>
