<svg width="23" height="23" viewBox="0 0 23 23" fill="none" xmlns="http://www.w3.org/2000/svg">
<g clip-path="url(#clip0_1907_39153)">
<path d="M22.5413 11.0149C22.5413 16.8366 17.7288 21.5708 11.7738 21.5708C5.81881 21.5708 1.00632 16.8366 1.00632 11.0149C1.00632 5.1932 5.81881 0.458954 11.7738 0.458954C17.7288 0.458954 22.5413 5.1932 22.5413 11.0149Z" fill="#1EFFAE" stroke="#171E37" stroke-width="0.917908"/>
<path d="M5.22461 10.5559C4.97114 10.5559 4.76566 10.7614 4.76566 11.0149C4.76566 11.2684 4.97114 11.4738 5.22461 11.4738V10.5559ZM17.7111 11.3394C17.8903 11.1602 17.8903 10.8696 17.7111 10.6904L14.7903 7.7696C14.6111 7.59037 14.3205 7.59037 14.1413 7.7696C13.9621 7.94883 13.9621 8.23942 14.1413 8.41866L16.7375 11.0149L14.1413 13.6111C13.9621 13.7904 13.9621 14.081 14.1413 14.2602C14.3205 14.4394 14.6111 14.4394 14.7903 14.2602L17.7111 11.3394ZM5.22461 11.4738H17.3866V10.5559H5.22461V11.4738Z" fill="#171E37"/>
</g>
<defs>
<clipPath id="clip0_1907_39153">
<rect width="22.4529" height="22.0298" fill="white" transform="translate(0.547363)"/>
</clipPath>
</defs>
</svg>
