<svg width="23" height="23" viewBox="0 0 23 23" fill="none" xmlns="http://www.w3.org/2000/svg">
<g clip-path="url(#clip0_1907_39149)">
<path d="M22.5413 11.4689C22.5413 17.2906 17.7288 22.0248 11.7738 22.0248C5.81881 22.0248 1.00632 17.2906 1.00632 11.4689C1.00632 5.64718 5.81881 0.912933 11.7738 0.912933C17.7288 0.912933 22.5413 5.64718 22.5413 11.4689Z" fill="white" stroke="#171E37" stroke-width="0.917908"/>
<path d="M5.22461 11.0099C4.97114 11.0099 4.76566 11.2154 4.76566 11.4689C4.76566 11.7223 4.97114 11.9278 5.22461 11.9278V11.0099ZM17.7111 11.7934C17.8903 11.6142 17.8903 11.3236 17.7111 11.1443L14.7903 8.22358C14.6111 8.04435 14.3205 8.04435 14.1413 8.22358C13.9621 8.40281 13.9621 8.6934 14.1413 8.87264L16.7375 11.4689L14.1413 14.0651C13.9621 14.2443 13.9621 14.5349 14.1413 14.7142C14.3205 14.8934 14.6111 14.8934 14.7903 14.7142L17.7111 11.7934ZM5.22461 11.9278H17.3866V11.0099H5.22461V11.9278Z" fill="#171E37"/>
</g>
<defs>
<clipPath id="clip0_1907_39149">
<rect width="22.4529" height="22.0298" fill="white" transform="translate(0.547363 0.453979)"/>
</clipPath>
</defs>
</svg>
