<svg width="114" height="82" viewBox="0 0 114 82" fill="none" xmlns="http://www.w3.org/2000/svg">
<path d="M78.2501 10.5425H36.077C32.6778 10.5425 31.4077 11.8239 31.4077 15.2724V56.8997C31.4077 57.2954 31.4264 57.6535 31.4637 57.9927C31.5385 58.7465 31.5571 59.4814 32.2482 60.3105C32.3229 60.3859 33.0326 60.9324 33.0326 60.9324C33.4062 61.1209 33.6677 61.2528 34.0972 61.4412L54.8476 70.2227C55.9309 70.7127 56.3791 70.9199 57.1636 70.9011C57.948 70.9199 58.3962 70.7315 59.4795 70.2227L80.2299 61.4412C80.6594 61.2716 80.9209 61.1209 81.2945 60.9324C81.2945 60.9324 82.0042 60.4048 82.0789 60.3105C82.77 59.4814 82.7886 58.7465 82.8634 57.9927C82.9007 57.6535 82.9194 57.2954 82.9194 56.8997V15.2724C82.9194 11.8239 81.668 10.5425 78.2501 10.5425Z" fill="white"/>
<path d="M75.4112 52.3958L75.3926 52.49L75.3739 52.6031L75.3552 52.6973L75.3178 52.7915L75.2992 52.8857L75.2618 52.98L75.2245 53.0742L75.1871 53.1496L75.1497 53.2438L75.0937 53.3192L75.0377 53.3945L74.9817 53.4699L74.9256 53.5453L74.8696 53.6207L74.7949 53.696L74.7389 53.7526L74.6642 53.828L74.5894 53.8845L74.5147 53.941L74.44 53.9787L74.3653 54.0352L74.2719 54.0918L74.1785 54.1295L74.0852 54.186L73.9918 54.2237L73.8984 54.2614L73.805 54.2991V54.2802L73.7116 54.3179L73.6182 54.3368L73.4501 54.3744L73.3567 54.3933L73.2634 54.4121L73.17 54.431L73.0766 54.4498L72.9645 54.4687L72.8711 54.4875H72.4976L72.4042 54.4687H72.2921L72.1988 54.4498L72.1054 54.431L71.9933 54.4121L71.8999 54.3933L71.8065 54.3744L71.7132 54.3556L71.6198 54.3368L71.5264 54.3179L71.433 54.2991L71.3396 54.2614L71.2462 54.2425L71.1528 54.2048L71.0594 54.1672L70.9661 54.1295L70.8727 54.0918L70.7793 54.0541L70.6859 54.0164L70.5925 53.9787L70.4991 53.941L70.4057 53.9033L70.3124 53.8656L70.219 53.8091L70.1443 53.7526L70.0509 53.696L69.9762 53.6395L69.9015 53.583L69.8268 53.5264L69.752 53.4699L69.6773 53.4134L69.6026 53.3568L69.5279 53.3003L69.4532 53.2249L69.5092 53.1496L69.584 53.0742L69.64 52.9988L69.7147 52.9234L69.7707 52.848L69.8268 52.7727L69.9015 52.6973L69.9575 52.6219L70.0322 52.5465L70.0882 52.4712L70.1629 52.3958L70.219 52.3204L70.275 52.245L70.3497 52.1696L70.4057 52.0943L70.4805 52.0189L70.5365 51.9435L70.6112 52L70.7046 52.0566L70.7793 52.1131L70.8727 52.1696L70.9474 52.2262L71.0408 52.2827L71.1155 52.3392L71.2089 52.3769L71.2836 52.4335L71.377 52.4712L71.4703 52.5089L71.5637 52.5465L71.6571 52.5842L71.7505 52.6219L71.8439 52.6596L71.9373 52.6973L72.0307 52.735L72.1241 52.7538L72.3108 52.7915L72.4229 52.8104L72.5163 52.8292H72.6097L72.7217 52.848H72.9272L73.0392 52.8292L73.1326 52.8104L73.226 52.7915L73.3194 52.7727L73.3941 52.735L73.4688 52.6973L73.5435 52.6408L73.5995 52.5654L73.6369 52.49L73.6743 52.3958L73.6929 52.3016V52.2827L73.6743 52.1696L73.6369 52.0754L73.5809 52L73.5062 51.9435L73.4315 51.887L73.3567 51.8493L73.2634 51.8116L73.17 51.7739L73.0579 51.7174L72.9832 51.6985L72.9085 51.6797L72.8151 51.642L72.7217 51.6232L72.6283 51.5855L72.5349 51.5666L72.4229 51.5289L72.3295 51.5101L72.2174 51.4724L72.1241 51.4536L72.0307 51.4159L71.9373 51.397L71.8439 51.3593L71.7505 51.3216L71.6571 51.3028L71.5637 51.2651L71.4703 51.2274L71.377 51.1897L71.2649 51.1521L71.1715 51.1144L71.0781 51.0767L70.9847 51.039L70.8914 50.9825L70.798 50.9259L70.7233 50.8694L70.6299 50.8129L70.5552 50.7563L70.4805 50.6998L70.4057 50.6432L70.331 50.5679L70.2563 50.4925L70.2003 50.4171L70.1443 50.3417L70.0882 50.2664L70.0322 50.191L69.9762 50.0968L69.9388 50.0214L69.9015 49.946L69.8828 49.8518L69.8454 49.7764L69.8268 49.6822L69.8081 49.588L69.7894 49.4937L69.7707 49.3995L69.752 49.2865V49.0603L69.7707 48.9661L69.7894 48.8719L69.8081 48.7777L69.8268 48.6834L69.8454 48.5892L69.8828 48.495L69.9015 48.4008L69.9388 48.3065L69.9762 48.2123L70.0135 48.1181L70.0696 48.0239L70.1256 47.9297L70.1816 47.8543L70.2377 47.7789L70.3124 47.7035L70.3871 47.6281L70.4618 47.5528L70.5365 47.4774L70.6112 47.4209L70.6859 47.3643L70.7606 47.3078L70.8353 47.2513L70.9287 47.1947L71.0221 47.157L71.1155 47.1005L71.2089 47.0628L71.3023 47.0251L71.3956 46.9874L71.489 46.9498L71.5637 46.9309L71.6571 46.9121L71.7505 46.8932L71.8439 46.8744L71.9373 46.8555L72.0307 46.8367L72.1241 46.8178L72.2174 46.799L72.3108 46.7801H72.7217L72.8338 46.799L72.9458 46.8178H73.0392L73.1513 46.8367L73.2447 46.8555L73.3567 46.8744L73.4501 46.8932L73.5435 46.9121L73.6369 46.9309L73.7303 46.9498L73.8237 46.9686L73.9171 47.0063L74.0104 47.044L74.1038 47.0628L74.1972 47.1005L74.2906 47.1382L74.384 47.1759L74.4774 47.2136L74.5708 47.2513L74.6642 47.3078L74.7389 47.3455L74.8322 47.402L74.9256 47.4585L75.0003 47.5151L75.0937 47.5716L75.1684 47.6281L75.2431 47.6847L75.3178 47.7412L75.3926 47.7977L75.3365 47.8731L75.2805 47.9485L75.2245 48.0239L75.1684 48.0993L75.1124 48.1935L75.0564 48.2689L75.0003 48.3442L74.9443 48.4196L74.8883 48.495L74.8322 48.5704L74.7762 48.6457L74.7202 48.7211L74.6642 48.8153L74.6081 48.8907L74.5521 48.9661L74.3653 49.3807L74.3093 49.4561L74.2346 49.3995L74.1412 49.343L74.0665 49.2865L73.9918 49.2299L73.8984 49.1922L73.8237 49.1357L73.7303 49.098L73.6556 49.0603L73.5622 49.0226L73.4875 48.9849L73.3941 48.9473L73.3194 48.9096L73.2073 48.8719L73.1139 48.8342L73.0206 48.7965L72.9272 48.7777L72.8711 48.8153L72.7778 48.7965L72.6844 48.7777L72.591 48.7588L72.4976 48.74H72.2921L72.1801 48.7588L72.0867 48.7777L71.9933 48.7965L71.9186 48.8342L71.8439 48.8719L71.7505 48.9473L71.6945 49.0415L71.6571 49.1357L71.6384 49.2299V49.2488L71.6571 49.3807L71.6945 49.4937L71.7318 49.5503L71.8065 49.6257L71.8999 49.6822L71.9746 49.7387L72.068 49.7764L72.1801 49.8141L72.2921 49.8518L72.3669 49.8706L72.4416 49.9083L72.5349 49.9272L72.6283 49.9649L72.7217 49.9837L72.8338 50.0214L72.9458 50.0591L73.0579 50.0968L73.17 50.1156L73.2634 50.1533L73.3754 50.191L73.4688 50.2098L73.5622 50.2475L73.6556 50.2852L73.749 50.3229L73.8423 50.3606L73.9357 50.3983L74.0291 50.4171L74.1412 50.4548L74.2346 50.5113L74.328 50.549L74.4213 50.6056L74.5147 50.6621L74.6081 50.7186L74.6828 50.7752L74.7575 50.8317L74.8322 50.8882L74.9069 50.9636L74.9817 51.039L75.0564 51.1144L75.1311 51.1897L75.1871 51.2651L75.2431 51.3593L75.2992 51.4347L75.3552 51.5289L75.3926 51.6043L75.4299 51.6985L75.4486 51.7928L75.4673 51.887L75.5046 52.0754L75.5233 52.1696L75.542 52.2827V52.5089L75.4112 52.3958ZM68.7808 54.3179H63.3458V47.3266H68.8182V48.9096H65.1575V50.0591H68.4446V51.5478H65.1575V52.735H68.8742V54.3179H68.7808ZM61.8516 54.3179H60.1146V50.191L60.0586 50.2664L60.0026 50.3606L59.9465 50.436L59.8905 50.5113L59.8345 50.6056L59.7784 50.6809L59.7224 50.7563L59.6664 50.8505L59.6103 50.9259L59.5543 51.0013L59.4983 51.0767L59.4422 51.1709L59.3862 51.2463L59.3302 51.3216L59.2741 51.4159L59.2181 51.4912L59.1621 51.5666L59.1061 51.6609L59.0687 51.7362L59.0127 51.8116L58.9566 51.9058L58.9006 51.9812L58.8446 52.0566L58.7885 52.1508L58.7325 52.2262L58.6952 52.3016L58.6391 52.3769L58.5831 52.4712L58.5271 52.5465L58.471 52.6219L58.4337 52.7161L58.3776 52.7915L58.3216 52.8669L58.2656 52.9611L58.2095 53.0365H58.1722L58.1162 52.9423L58.0601 52.8669L58.0041 52.7727L57.9481 52.6973L57.892 52.6031L57.836 52.5277L57.78 52.4335L57.7239 52.3581L57.6679 52.2639L57.6306 52.1885L57.5745 52.0943L57.5185 52.0189L57.4625 51.9247L57.5558 51.8304L57.4998 51.7362L57.4438 51.6609L57.3878 51.5666L57.3317 51.4912L57.2757 51.397L57.2197 51.3216L57.1823 51.2651L57.1263 51.1897L57.0702 51.0955L57.0142 51.0201L56.9582 50.9259L56.9021 50.8505L56.8461 50.7563L56.8088 50.6998L56.7527 50.6056L56.6967 50.5302L56.6407 50.436L56.5846 50.3606L56.5286 50.2664L56.4726 50.191V54.2991H54.6796V47.3078H56.622L56.678 47.3832L56.7341 47.4774L56.7901 47.5528L56.8461 47.647L56.9021 47.7224L56.9582 47.8166L57.0142 47.892L57.0702 47.9862L57.1263 48.0616L57.1823 48.1369L57.2383 48.2312L57.2944 48.3065L57.3504 48.4008L57.4064 48.4761L57.4625 48.5704L57.5185 48.6457L57.5745 48.7211L57.6306 48.8153L57.6866 48.8907L57.7426 48.9849L57.7987 49.0603L57.8547 49.1545L57.9107 49.2299L57.9481 49.3241L58.0041 49.3995L58.0415 49.4749L58.0975 49.5691L58.1535 49.6445L58.2095 49.7387L58.2656 49.8141L58.3029 49.9083L58.359 49.9837L58.415 50.0779L58.471 50.1533L58.5271 50.0779L58.5831 49.9837L58.6391 49.9083L58.6952 49.8141L58.7512 49.7387L58.8072 49.6445L58.8632 49.5691L58.9193 49.4749L58.9753 49.3995L59.0127 49.3241L59.0687 49.2299L59.1247 49.1545L59.1808 49.0603L59.2368 48.9849L59.2928 48.8907L59.3489 48.8153L59.4049 48.7211L59.4609 48.6457L59.517 48.5704L59.573 48.4761L59.629 48.4008L59.685 48.3065L59.7411 48.2312L59.7971 48.1369L59.8345 48.0616L59.8905 47.9862L59.9465 47.892L60.0026 47.8166L60.0586 47.7224L60.1146 47.647L60.1707 47.5528L60.2267 47.4774L60.2827 47.3832L60.3387 47.3078H62.2812V54.2991L61.8516 54.3179ZM50.8694 51.4347L50.8321 51.3405L50.7947 51.2463L50.7574 51.1521L50.72 51.0578L50.6826 50.9636L50.6453 50.8694L50.6079 50.7752L50.5706 50.6809L50.5332 50.5867L50.4959 50.4925L50.4585 50.3983L50.4212 50.3041L50.3838 50.2098L50.3465 50.1156L50.3091 50.0214L50.2717 49.9272L50.2344 49.8329L50.197 49.7387L50.1597 49.6445L50.1223 49.5503L50.085 49.4561L50.0476 49.3618L50.0103 49.4561L49.9729 49.5503L49.9356 49.6445L49.8982 49.7387L49.8608 49.8329L49.8235 49.9272L49.7861 50.0214L49.7488 50.1156L49.7114 50.2098L49.6741 50.3041L49.6367 50.3983L49.5994 50.4925L49.562 50.5867L49.5247 50.6809L49.4873 50.7752L49.4499 50.8694L49.4126 50.9636L49.3752 51.0578L49.3379 51.1521L49.3005 51.2463L49.2632 51.3405L49.2258 51.4347L49.1885 51.5289H50.7947L50.8694 51.4347ZM53.8391 54.3179H51.99L51.9527 54.2237L51.9153 54.1295L51.878 54.0352L51.8406 53.941L51.8033 53.8468L51.7659 53.7526L51.7286 53.6584L51.6912 53.5641L51.6539 53.4699L51.6165 53.3757L51.5791 53.2815L51.5418 53.1872L51.5044 53.093L51.4671 52.9988L51.4297 52.9046H48.7402L48.7029 52.9988L48.6655 53.093L48.6282 53.1872L48.5908 53.2815L48.5534 53.3757L48.4787 53.5453L48.4414 53.6395L48.404 53.7337L48.3667 53.828L48.3293 53.9222L48.292 54.0164L48.2546 54.1106L48.2173 54.2048L48.1799 54.2991H46.3122L46.3495 54.2048L46.4242 54.0352L46.4616 53.941L46.499 53.8468L46.5737 53.6772L46.611 53.583L46.6484 53.4888L46.6857 53.3945L46.7231 53.338L46.7604 53.2438L46.7978 53.1496L46.8351 53.0553L46.8725 52.9611L46.9099 52.8669L46.9472 52.7727L46.9846 52.6784L47.0219 52.5842L47.0593 52.49L47.0966 52.3958L47.134 52.3016L47.2087 52.132L47.246 52.0377L47.2834 51.9435L47.3208 51.8493L47.3581 51.7551L47.3955 51.6609L47.4328 51.5666L47.4702 51.4724L47.5075 51.3782L47.5449 51.284L47.5822 51.1897L47.6196 51.0955L47.6569 51.0013L47.6943 50.9071L47.7316 50.8129L47.769 50.7186L47.8064 50.6244L47.8437 50.5302L47.8811 50.436L47.9184 50.3417L47.9558 50.2475L47.9931 50.1533L48.0305 50.0591L48.0678 49.9649L48.1052 49.8706L48.1425 49.7764L48.1799 49.6822L48.2173 49.588L48.2546 49.4937L48.292 49.3995L48.3293 49.3053L48.3667 49.2111L48.404 49.1169L48.4787 48.9473L48.5161 48.853L48.5534 48.7588L48.5908 48.6646L48.6282 48.5704L48.6655 48.4761L48.7029 48.3819L48.7402 48.2877L48.7776 48.1935L48.8149 48.0993L48.8523 48.005L48.871 47.9108L48.9083 47.8166L48.9457 47.7224L48.983 47.6281L49.0204 47.5339L49.0577 47.4397L49.0951 47.3455L49.1324 47.2513L49.1698 47.157L49.2445 46.9874L49.2819 46.8932H51.0375L51.0749 46.9874L51.1122 47.0817L51.1496 47.1759L51.1869 47.2701L51.2243 47.3643L51.2616 47.4585L51.299 47.5528L51.3363 47.647L51.3737 47.7412L51.4111 47.8354L51.4484 47.9297L51.4858 48.0239L51.5231 48.1181L51.5605 48.2123L51.5978 48.3065L51.6352 48.4008L51.6725 48.495L51.7099 48.5892L51.7472 48.6834L51.7846 48.7777L51.822 48.8719L51.8593 48.9661L51.8967 49.0603L51.934 49.1545L51.9714 49.2488L52.0087 49.343L52.0461 49.4372L52.0834 49.5314L52.1208 49.6257L52.1581 49.7199L52.2329 49.8895L52.2702 49.9837L52.3076 50.0779L52.3449 50.1721L52.3823 50.2664L52.4196 50.3606L52.457 50.4548L52.4943 50.549L52.5317 50.6432L52.569 50.7375L52.6064 50.8317L52.6437 50.9259L52.6811 51.0201L52.7185 51.1144L52.7558 51.2086L52.7932 51.3028L52.8305 51.397L52.8679 51.4912L52.9052 51.5855L52.9426 51.6797L52.9799 51.7739L53.0173 51.8681L53.0546 51.9624L53.092 52.0566L53.1294 52.1508L53.1667 52.245L53.2041 52.3392L53.2414 52.4335L53.2788 52.5277L53.3161 52.6219L53.3535 52.7161L53.3908 52.8104L53.4282 52.9046L53.4655 52.9988L53.5029 53.093L53.5403 53.1872L53.5776 53.2815L53.615 53.3757L53.6523 53.4699L53.6897 53.5641L53.727 53.6584L53.7644 53.7526L53.8017 53.8468L53.8391 53.941L53.8764 54.0352L53.9138 54.1295L53.9511 54.2237L54.0259 54.3933L53.8391 54.3179ZM45.5464 53.4134L45.4717 53.4699L45.397 53.5264L45.3223 53.583L45.2476 53.6395L45.1729 53.696L45.0982 53.7526L45.0235 53.8091L44.9301 53.8656L44.8367 53.9222L44.7433 53.9787L44.6499 54.0164L44.5565 54.0729L44.4631 54.1106L44.3698 54.1483L44.2764 54.186L44.183 54.2237L44.0896 54.2614L43.9962 54.2991L43.9028 54.3368L43.8094 54.3744L43.7161 54.4121L43.6227 54.431L43.5293 54.4498L43.4359 54.4687L43.3425 54.4875L43.2491 54.5064L43.1371 54.5252L43.0437 54.544L42.9316 54.5629L42.8382 54.5817L42.7262 54.6006H42.4273L42.3339 54.5817L42.2219 54.5629L42.1285 54.544L42.0351 54.5252L41.9417 54.5064L41.8483 54.4875L41.755 54.4687L41.6616 54.4498L41.5682 54.431L41.4748 54.4121L41.3814 54.3933L41.288 54.3556L41.1946 54.3179L41.1012 54.2802L41.0079 54.2425L40.9145 54.2048L40.8211 54.1672L40.7277 54.1295L40.6343 54.0729L40.5596 54.0352L40.4662 53.9787L40.3915 53.9222L40.3168 53.8656L40.2421 53.8091L40.1674 53.7526L40.0927 53.696L40.018 53.6395L39.9433 53.583L39.8686 53.5076L39.7938 53.4511L39.7191 53.3757L39.6444 53.3003L39.5884 53.2249L39.5324 53.1496L39.4763 53.0742L39.4203 52.9988L39.3643 52.9234L39.3082 52.848L39.2709 52.7727L39.2149 52.6784L39.1588 52.6031L39.1215 52.5089L39.0841 52.4146L39.0468 52.3204L39.0094 52.2262L38.9721 52.1508L38.9347 52.0566L38.916 51.9624L38.8787 51.8681L38.86 51.7739L38.8226 51.6797L38.804 51.5855V51.4912L38.7853 51.397V51.3028L38.7666 51.2086V50.3983L38.7853 50.2852L38.804 50.191L38.8226 50.0968L38.8413 50.0025L38.8787 49.9083L38.8973 49.8141L38.9347 49.7199L38.9721 49.6257L39.0094 49.5314L39.0468 49.4372L39.0841 49.343L39.1215 49.2488L39.1588 49.1545L39.1962 49.0603L39.2522 48.9661L39.3082 48.8907L39.3456 48.8153L39.4016 48.74L39.4577 48.6646L39.5137 48.5892L39.5697 48.5138L39.6258 48.4385L39.6818 48.3631L39.7565 48.2877L39.8125 48.2123L39.8872 48.1369L39.9619 48.0616L40.0366 48.005L40.1114 47.9297L40.1861 47.8731L40.2608 47.8166L40.3355 47.7601L40.4102 47.7035L40.4849 47.647L40.5596 47.5905L40.653 47.5339L40.7464 47.4774L40.8398 47.4209L40.9332 47.3832L41.0265 47.3455L41.1199 47.2889L41.1946 47.2513L41.288 47.2136L41.3814 47.1759L41.4748 47.157L41.5682 47.1193L41.6616 47.1005L41.755 47.0628L41.8483 47.044L41.9417 47.0251L42.0351 47.0063L42.1285 46.9874L42.2219 46.9686L42.3153 46.9498L42.4087 46.9309H42.8009L42.9129 46.9498L43.025 46.9686H43.1184L43.2118 46.9874L43.3238 47.0063L43.4172 47.0251L43.5106 47.044L43.604 47.0628L43.6974 47.0817L43.7908 47.1005L43.8842 47.1193L43.9775 47.157L44.0709 47.1759L44.1456 47.2136L44.239 47.2513L44.4071 47.3266L44.5005 47.3643L44.5939 47.4209L44.6873 47.4585L44.762 47.5151L44.8554 47.5716L44.9301 47.6281L45.0235 47.6847L45.0982 47.7412L45.1729 47.7977L45.2476 47.8543L45.3223 47.9108L45.397 47.9862L45.4717 48.0427L45.4157 48.1181L45.341 48.1935L45.2849 48.2689L45.2102 48.3442L45.1542 48.4196L45.0982 48.495L45.0235 48.5704L44.9674 48.6457L44.9114 48.7211L44.8367 48.7965L44.7807 48.8719L44.7059 48.9473L44.6499 49.0226L44.5939 49.098L44.5192 49.1734L44.4631 49.2488L44.3884 49.3241L44.3324 49.3995L44.2577 49.343L44.183 49.2676L44.1083 49.2111L44.0336 49.1545L43.9589 49.098L43.8842 49.0415L43.8094 48.9849L43.7161 48.9284L43.6413 48.8907L43.5666 48.853L43.4919 48.8153L43.3985 48.7777L43.3052 48.74L43.2118 48.7211L43.1184 48.7023L43.025 48.6834L42.9316 48.6646L42.8195 48.6457L42.7075 48.6269H42.502L42.4087 48.6457L42.3153 48.6646L42.2219 48.6834L42.1285 48.7023L42.0351 48.74L41.9417 48.7777L41.867 49.0038L41.7736 49.0415L41.6989 49.098L41.6242 49.1545L41.5495 49.2111L41.4748 49.2676L41.4001 49.3241L41.3254 49.3807L41.2693 49.4561L41.1946 49.5314L41.1386 49.6068L41.0826 49.6822L41.0265 49.7576L40.9892 49.8518L40.9332 49.9272L40.8958 50.0214L40.8584 50.1156L40.8211 50.2098L40.7837 50.3041L40.7651 50.3983L40.7464 50.4925L40.7277 50.6056V51.3028L40.7464 51.397L40.7651 51.4912L40.7837 51.5855L40.8211 51.6797L40.9332 51.642L40.9705 51.7362L41.0079 51.8304L41.0639 51.9247L41.1573 52.0754L41.2133 52.1508L41.2693 52.2262L41.3441 52.3016L41.4001 52.3769L41.4748 52.4335L41.5495 52.49L41.6242 52.5465L41.6989 52.6031L41.7736 52.6596L41.867 52.6973L41.9604 52.735L42.0538 52.7727L42.1472 52.8104L42.2406 52.848L42.3339 52.8669L42.4273 52.8857L42.5207 52.9046L42.6328 52.9234H42.8009L42.9129 52.9046L43.025 52.8857L43.1184 52.8669L43.2118 52.848L43.3052 52.8292L43.3985 52.8104L43.4919 52.7915L43.5853 52.7538L43.66 52.7161L43.7534 52.6784L43.8281 52.6408L43.9028 52.5842V51.642H42.5207V50.2475H45.6024V53.3757L45.5464 53.4134ZM42.502 31.5162H46.611V28.3126H42.502V21.7736H46.7791V18.5701H39.0094V41.6922H46.8351V38.4886H42.502V31.5162ZM71.8999 32.2134V37.4333C71.8999 38.3567 71.4703 38.7901 70.5925 38.7901H69.9388C69.0236 38.7901 68.5941 38.3567 68.5941 37.4333V22.8289C68.5941 21.9055 69.0236 21.4721 69.9388 21.4721H70.5178C71.3956 21.4721 71.8252 21.9055 71.8252 22.8289V27.3516H75.2431V22.6216C75.2431 19.7573 73.8797 18.3628 71.0408 18.3628H69.3412C66.5022 18.3628 65.1014 19.7761 65.1014 22.6593V37.5841C65.1014 40.4673 66.5022 41.8806 69.3412 41.8806H71.0594C73.8984 41.8806 75.2992 40.4673 75.2992 37.5841V32.1946H71.8999M59.7971 18.5701H63.2897V41.6922H59.7971V18.5701ZM54.7356 28.8403C54.7356 29.7637 54.306 30.1971 53.4282 30.1971H51.99V21.6794H53.4282C54.306 21.6794 54.7356 22.1128 54.7356 23.0362V28.8403ZM53.9885 18.5701H48.5161V41.6922H52.0087V33.3064H53.9885C56.8274 33.3064 58.2282 31.8931 58.2282 29.0099V22.8666C58.2282 19.9834 56.8274 18.5701 53.9885 18.5701ZM47.2274 62.5906H67.1933L57.0142 65.9826L47.2274 62.5906Z" fill="#1D274D"/>
</svg>
