<svg width="28" height="28" viewBox="0 0 28 28" fill="none" xmlns="http://www.w3.org/2000/svg">
<path d="M25.7101 0.352051H2.8316C1.7375 0.352051 0.849609 1.21906 0.849609 2.28668V25.264C0.849609 26.3331 1.7375 27.2012 2.8316 27.2012H25.7101C26.8049 27.2012 27.6988 26.3331 27.6988 25.264V2.28668C27.6988 1.21906 26.8049 0.352051 25.7101 0.352051ZM8.81263 23.2313H4.82851V10.4186H8.81263V23.2313ZM6.82057 8.66672C5.54411 8.66672 4.51229 7.63228 4.51229 6.35695C4.51229 5.08347 5.54411 4.04903 6.82057 4.04903C8.09404 4.04903 9.12848 5.08347 9.12848 6.35695C9.12848 7.63228 8.09404 8.66672 6.82057 8.66672ZM23.7274 23.2313H19.7496V17.0008C19.7496 15.5144 19.7205 13.6032 17.6796 13.6032C15.607 13.6032 15.2911 15.222 15.2911 16.893V23.2317H11.3103V10.4186H15.1308V12.1683H15.1852C15.717 11.1615 17.0162 10.0991 18.9538 10.0991C22.9834 10.0991 23.7277 12.7519 23.7277 16.2031L23.7274 23.2313Z" fill="white"/>
</svg>
