<svg width="28" height="28" viewBox="0 0 28 28" fill="none" xmlns="http://www.w3.org/2000/svg">
<path d="M26.0655 0.352051H2.18017C1.36164 0.352051 0.698242 1.01545 0.698242 1.83398V25.7197C0.698242 26.5378 1.36164 27.2012 2.18017 27.2012H15.0391V16.8039H11.5401V12.7519H15.0391V9.76343C15.0391 6.29542 17.1572 4.4074 20.2508 4.4074C21.7327 4.4074 23.0062 4.5174 23.3776 4.567V8.19127L21.2319 8.19239C19.5494 8.19239 19.2238 8.99189 19.2238 10.1651V12.7523H23.2363L22.7138 16.8043H19.2238V27.2012H26.0659C26.884 27.2012 27.5474 26.5378 27.5474 25.7193V1.83398C27.5474 1.01545 26.884 0.352051 26.0655 0.352051Z" fill="white"/>
</svg>
