<svg width="27" height="28" viewBox="0 0 27 28" fill="none" xmlns="http://www.w3.org/2000/svg">
<path d="M24.8605 0.352051H1.98199C0.887888 0.352051 0 1.21906 0 2.28668V25.264C0 26.3331 0.887888 27.2012 1.98199 27.2012H24.8605C25.9553 27.2012 26.8492 26.3331 26.8492 25.264V2.28668C26.8492 1.21906 25.9553 0.352051 24.8605 0.352051ZM7.96302 23.2313H3.9789V10.4186H7.96302V23.2313ZM5.97096 8.66672C4.69451 8.66672 3.66268 7.63228 3.66268 6.35695C3.66268 5.08347 4.69451 4.04903 5.97096 4.04903C7.24443 4.04903 8.27887 5.08347 8.27887 6.35695C8.27887 7.63228 7.24443 8.66672 5.97096 8.66672Z" fill="white"/>
<path d="M1.5936 2.07845H25.232V24.9201H1.5936V2.07845Z" fill="white"/>
<path d="M5.29061 6.66992L11.5787 15.0775L5.25098 21.9133H6.6752L12.2152 15.9283L16.6912 21.9133H21.5376L14.8956 13.0329L20.7854 6.66992H19.3612L14.2593 12.1818L10.137 6.66992H5.29061ZM7.38499 7.71889H9.61138L19.4429 20.8643H17.2165L7.38499 7.71889Z" fill="#0F236A"/>
</svg>
