<svg width="169" height="24" viewBox="0 0 169 24" fill="none" xmlns="http://www.w3.org/2000/svg">
<g clip-path="url(#clip0_1260_13062)">
<path d="M23.2417 7.38748C23.6665 6.69416 23.9034 5.89461 23.9274 5.07313C23.9513 4.25164 23.7615 3.43866 23.3778 2.7199C22.9941 2.00113 22.4309 1.40322 21.7474 0.989203C21.0639 0.575182 20.2856 0.360392 19.4944 0.367479H0C5.37901 0.539979 10.1587 2.33998 13.415 5.08498L1.8628 23.295H13.1623L17.3284 16.7175L23.2417 7.38748Z" fill="url(#paint0_linear_1260_13062)"/>
<path d="M23.9276 4.94253C23.9276 4.3392 23.8127 3.74183 23.5896 3.1848C23.3664 2.62777 23.0394 2.12209 22.6274 1.69686C22.2154 1.27164 21.7264 0.935276 21.1887 0.707133C20.651 0.478989 20.0752 0.363574 19.4944 0.36753H0C9.91326 0.69003 17.8193 6.51753 17.8193 13.665C17.8164 14.7035 17.6506 15.7345 17.3284 16.7175L23.2489 7.38753C23.6969 6.65733 23.9325 5.80838 23.9276 4.94253Z" fill="url(#paint1_linear_1260_13062)"/>
<path d="M32.5704 11.535L33.7184 13.635L30.4766 23.43H32.9964L36.9314 11.535H32.5704Z" fill="white"/>
<path d="M40.8295 11.535H43.1472L45.9414 19.095L48.454 11.535H50.9377L47.0027 23.43H44.8367L41.9486 15.63L39.371 23.43H36.8945L40.8295 11.535Z" fill="white"/>
<path d="M56.7139 23.6325C55.9772 23.6449 55.2441 23.523 54.5479 23.2725C53.9396 23.0476 53.3837 22.6924 52.9161 22.23C52.4618 21.778 52.1177 21.2201 51.9125 20.6025C51.6836 19.9114 51.5999 19.1774 51.667 18.45C51.7262 17.5055 51.972 16.5839 52.389 15.7425C52.8126 14.9 53.3718 14.139 54.0424 13.4925C54.7197 12.8336 55.5045 12.3054 56.3601 11.9325C57.257 11.5261 58.2265 11.3216 59.2048 11.3325C60.1569 11.2934 61.1011 11.5269 61.9341 12.0075C62.6423 12.4577 63.2209 13.0975 63.6091 13.86L61.4431 15.36C61.1668 14.895 60.8063 14.49 60.3817 14.1675C59.8909 13.8523 59.319 13.7005 58.7428 13.7325C58.2111 13.7352 57.6863 13.8581 57.2049 14.0925C56.1674 14.6026 55.3309 15.4688 54.8367 16.545C54.5707 17.1056 54.4114 17.7142 54.3673 18.3375C54.3182 18.7257 54.3403 19.1202 54.4323 19.5C54.5349 19.8389 54.7102 20.1491 54.945 20.4075C55.1808 20.6657 55.4695 20.8656 55.7897 20.9925C56.1434 21.1378 56.5213 21.2092 56.9016 21.2025C57.3995 21.2105 57.8929 21.1029 58.3456 20.8875C58.8078 20.6501 59.2436 20.3608 59.6453 20.025L61.1543 21.795C60.5697 22.333 59.913 22.7802 59.2048 23.1225C58.4202 23.4789 57.5701 23.653 56.7139 23.6325Z" fill="white"/>
<path d="M115.587 11.535H120.035C120.618 11.5201 121.2 11.5985 121.761 11.7675C122.185 11.8898 122.581 12.1017 122.923 12.39C123.207 12.6421 123.426 12.9645 123.558 13.3275C123.683 13.6902 123.732 14.0761 123.703 14.46C123.674 15.1868 123.385 15.8765 122.894 16.395C122.382 16.9097 121.738 17.2589 121.039 17.4C121.474 17.6024 121.852 17.9175 122.136 18.315C122.413 18.7589 122.531 19.29 122.468 19.815C122.431 20.3277 122.283 20.8251 122.035 21.27C121.774 21.7247 121.422 22.116 121.002 22.4175C120.518 22.7645 119.978 23.0185 119.407 23.1675C118.712 23.3546 117.995 23.4429 117.277 23.43H111.652L115.587 11.535ZM117.826 21.135C118.36 21.1636 118.891 21.0251 119.349 20.7375C119.53 20.6204 119.682 20.4599 119.791 20.2693C119.901 20.0788 119.964 19.8639 119.977 19.6425C119.996 19.4868 119.975 19.3288 119.917 19.1841C119.858 19.0394 119.765 18.913 119.645 18.8175C119.298 18.5923 118.891 18.4873 118.483 18.5175H115.717L114.858 21.135H117.826ZM118.988 16.3425C119.523 16.3714 120.057 16.2523 120.533 15.9975C120.717 15.8845 120.871 15.7248 120.98 15.5333C121.088 15.3417 121.148 15.1247 121.154 14.9025C121.164 14.7593 121.14 14.6156 121.083 14.4847C121.026 14.3537 120.939 14.2395 120.829 14.1525C120.481 13.9108 120.062 13.8022 119.645 13.845H117.27L116.454 16.3575L118.988 16.3425Z" fill="white"/>
<path d="M129.688 23.6175C129.088 23.6277 128.49 23.5366 127.919 23.3475C127.441 23.1975 127 22.9417 126.626 22.5975C126.278 22.2473 126.015 21.8151 125.861 21.3375C125.695 20.7875 125.639 20.2083 125.695 19.635C125.748 18.9859 125.886 18.3474 126.106 17.7375L128.142 11.565H130.684L128.518 17.94C128.448 18.1417 128.388 18.347 128.337 18.555C128.288 18.7795 128.257 19.0077 128.244 19.2375C128.212 19.4912 128.231 19.7489 128.301 19.9943C128.371 20.2397 128.489 20.4673 128.648 20.6625C128.838 20.8543 129.065 21.0017 129.314 21.0948C129.563 21.188 129.828 21.2247 130.092 21.2025C130.798 21.2134 131.482 20.9453 132.005 20.4525C132.607 19.8263 133.047 19.0524 133.283 18.2025L135.5 11.49H138.02L135.738 18.6225C135.356 19.9554 134.661 21.1691 133.716 22.155C133.207 22.6451 132.605 23.0182 131.947 23.25C131.221 23.5082 130.456 23.6326 129.688 23.6175Z" fill="white"/>
<path d="M148.613 11.535H151.125L148.013 21.0525H153.724L152.93 23.43H144.699L148.613 11.535Z" fill="white"/>
<path d="M87.2412 18.585L88.0138 16.29H82.6926H80.1872L77.8262 23.43H86.4615L87.2412 21.105H81.0897L81.92 18.585H87.2412Z" fill="white"/>
<path d="M81.7608 11.535L80.9883 13.8675H83.4865H83.4937H89.5442L90.3167 11.535H81.7608Z" fill="white"/>
<path d="M167.219 13.065C166.754 12.5821 166.188 12.2175 165.565 12C164.691 11.6862 163.768 11.5413 162.843 11.5725H157.399L158.699 13.935H162.453C162.994 13.9188 163.534 14 164.049 14.175C164.418 14.2999 164.753 14.5161 165.024 14.805C165.237 15.0612 165.394 15.3617 165.486 15.6863C165.579 16.011 165.603 16.3523 165.558 16.6875C165.518 17.254 165.378 17.8081 165.146 18.3225C164.913 18.8284 164.59 19.2838 164.193 19.665C163.688 20.1327 163.096 20.4875 162.453 20.7075C161.755 20.9502 161.023 21.0718 160.287 21.0675H158.843L160.432 16.29H157.912L155.551 23.43H159.803C161 23.4518 162.192 23.2616 163.327 22.8675C164.308 22.5246 165.209 21.97 165.969 21.24C166.614 20.6272 167.143 19.8946 167.529 19.08C167.903 18.287 168.126 17.4261 168.186 16.545C168.272 15.9269 168.23 15.2969 168.063 14.6969C167.896 14.0969 167.608 13.5406 167.219 13.065Z" fill="white"/>
<path d="M102.961 13.065C102.496 12.5821 101.93 12.2175 101.307 12C100.433 11.6862 99.5102 11.5413 98.5853 11.5725H93.1413L94.441 13.935H98.1954C98.7391 13.9182 99.2814 13.9994 99.7983 14.175C100.168 14.2999 100.502 14.5161 100.773 14.805C100.986 15.0612 101.144 15.3617 101.236 15.6863C101.328 16.011 101.352 16.3523 101.307 16.6875C101.267 17.254 101.128 17.8081 100.896 18.3225C100.662 18.8284 100.339 19.2838 99.9427 19.665C99.4354 20.1336 98.8406 20.4885 98.1954 20.7075C97.4973 20.9502 96.7655 21.0718 96.0294 21.0675H94.5854L96.1738 16.29H93.654L91.293 23.43H95.5456C96.7423 23.4518 97.9339 23.2616 99.0691 22.8675C100.05 22.5228 100.95 21.9684 101.712 21.24C102.354 20.6251 102.883 19.893 103.271 19.08C103.646 18.287 103.869 17.4261 103.928 16.545C104.014 15.9269 103.972 15.2969 103.805 14.6969C103.638 14.0969 103.35 13.5406 102.961 13.065Z" fill="white"/>
<path d="M75.6748 12.7499C75.2911 12.3303 74.8081 12.0225 74.2741 11.8574C73.5724 11.6366 72.8409 11.5352 72.1081 11.5574H66.1948L67.1839 13.9199H71.8192C72.1093 13.8839 72.4034 13.9091 72.6838 13.9942C72.9642 14.0793 73.2252 14.2224 73.451 14.4149C73.5631 14.5437 73.647 14.6962 73.6969 14.862C73.7468 15.0277 73.7614 15.2027 73.7398 15.3749C73.7146 15.8377 73.5148 16.2715 73.1839 16.5824C72.8917 16.8553 72.5435 17.0553 72.1658 17.1674C71.7263 17.2946 71.2719 17.3577 70.8156 17.3549H66.0431L64.0215 23.4599H66.5413L67.7976 19.6574H69.6821L71.1767 23.4599H74.0647L72.4113 19.4024C73.434 19.1858 74.3832 18.6915 75.1622 17.9699C75.5231 17.6192 75.8149 17.1989 76.0214 16.7324C76.2439 16.2347 76.3737 15.6978 76.404 15.1499C76.4571 14.7189 76.4193 14.2811 76.2934 13.8667C76.1675 13.4523 75.9564 13.0712 75.6748 12.7499Z" fill="white"/>
<path d="M107.154 11.535L108.302 13.635L105.061 23.43H107.58L111.515 11.535H107.154Z" fill="white"/>
<path d="M140.576 11.535L141.717 13.635L138.482 23.43H141.002L144.937 11.535H140.576Z" fill="white"/>
</g>
<defs>
<linearGradient id="paint0_linear_1260_13062" x1="16.7652" y1="-5.10002" x2="-1.53801" y2="24.4752" gradientUnits="userSpaceOnUse">
<stop stop-color="#4E61A3"/>
<stop offset="1" stop-color="#00EC9C"/>
</linearGradient>
<linearGradient id="paint1_linear_1260_13062" x1="-64.8875" y1="8.54253" x2="-64.6998" y2="8.54253" gradientUnits="userSpaceOnUse">
<stop stop-color="#00FFA3"/>
<stop offset="0.46" stop-color="#00F9A1"/>
<stop offset="1" stop-color="#01EB9C"/>
</linearGradient>
<clipPath id="clip0_1260_13062">
<rect width="168.229" height="24" fill="white"/>
</clipPath>
</defs>
</svg>
