<svg width="600" height="479" viewBox="0 0 600 479" fill="none" xmlns="http://www.w3.org/2000/svg">
<path d="M118.5 56H194.294C200.921 56 206.294 61.3726 206.294 68V192C206.294 198.627 211.666 204 218.294 204H354.5" stroke="black" stroke-width="2"/>
<g filter="url(#filter0_d_1_2)">
<path d="M173 56H194C200.627 56 206 61.3726 206 68V96.5" stroke="url(#paint0_linear_1_2)" stroke-width="4" stroke-linecap="round" shape-rendering="crispEdges"/>
<path d="M173 56H194C200.627 56 206 61.3726 206 68V96.5" stroke="url(#paint1_linear_1_2)" stroke-width="4" stroke-linecap="round" shape-rendering="crispEdges"/>
</g>
<g filter="url(#filter1_f_1_2)">
<path d="M173 56H194C200.627 56 206 61.3726 206 68V96" stroke="url(#paint2_linear_1_2)" stroke-width="4" stroke-linecap="round"/>
<path d="M173 56H194C200.627 56 206 61.3726 206 68V96" stroke="url(#paint3_linear_1_2)" stroke-width="4" stroke-linecap="round"/>
</g>
<path d="M245 204H271" stroke="url(#paint4_linear_1_2)" stroke-width="4" stroke-linecap="round"/>
<g filter="url(#filter2_f_1_2)">
<path d="M231 204H273" stroke="url(#paint5_linear_1_2)" stroke-width="4" stroke-linecap="round"/>
</g>
<path d="M118.5 228H354.5" stroke="black" stroke-width="2"/>
<path d="M118 402H194.294C200.921 402 206.294 396.627 206.294 390V266C206.294 259.373 211.666 254 218.294 254H354.5" stroke="black" stroke-width="2"/>
<path d="M283 254H304" stroke="url(#paint6_linear_1_2)" stroke-width="4" stroke-linecap="round"/>
<g filter="url(#filter3_f_1_2)">
<path d="M283 254H304" stroke="url(#paint7_linear_1_2)" stroke-width="4" stroke-linecap="round"/>
</g>
<path d="M206 361L206 339" stroke="url(#paint8_linear_1_2)" stroke-width="4" stroke-linecap="round"/>
<g filter="url(#filter4_f_1_2)">
<path d="M206 361L206 339" stroke="url(#paint9_linear_1_2)" stroke-width="4" stroke-linecap="round"/>
</g>
<path d="M155.739 228H216" stroke="url(#paint10_linear_1_2)" stroke-width="4" stroke-linecap="round"/>
<g filter="url(#filter5_f_1_2)">
<path d="M150 228H210.261" stroke="url(#paint11_linear_1_2)" stroke-width="4" stroke-linecap="round"/>
</g>
<path d="M301.043 228H333" stroke="url(#paint12_linear_1_2)" stroke-width="4" stroke-linecap="round"/>
<g filter="url(#filter6_f_1_2)">
<path d="M298 228H329.957" stroke="url(#paint13_linear_1_2)" stroke-width="4" stroke-linecap="round"/>
</g>
<g opacity="0.75">
<rect x="421" y="337" width="171" height="89" rx="9.375" fill="#1E2B5A"/>
<rect x="288" y="37" width="171" height="89" rx="9.375" fill="#1E2B5A"/>
<rect x="299" y="51" width="148" height="23" rx="9.375" fill="#1B307A"/>
<rect x="299" y="51" width="22" height="23" rx="10" fill="#445BAA"/>
<rect x="299" y="87" width="148" height="23" rx="9.375" fill="#1B307A"/>
<rect x="473" y="365" width="51" height="12" rx="6" transform="rotate(90 473 365)" fill="#1B307A"/>
<rect x="447" y="397" width="19" height="12" rx="6" transform="rotate(90 447 397)" fill="#1B307A"/>
<rect x="525" y="346" width="70" height="12" rx="6" transform="rotate(90 525 346)" fill="#1B307A"/>
<rect x="577" y="388" width="28" height="12" rx="6" transform="rotate(90 577 388)" fill="#1B307A"/>
<rect x="499" y="377" width="39" height="12" rx="6" transform="rotate(90 499 377)" fill="#1B307A"/>
<rect x="551" y="365" width="51" height="12" rx="6" transform="rotate(90 551 365)" fill="#1B307A"/>
<path d="M572 117C572 120.956 570.827 124.822 568.629 128.111C566.432 131.4 563.308 133.964 559.654 135.478C555.999 136.991 551.978 137.387 548.098 136.616C544.219 135.844 540.655 133.939 537.858 131.142C535.061 128.345 533.156 124.781 532.384 120.902C531.613 117.022 532.009 113.001 533.522 109.346C535.036 105.692 537.6 102.568 540.889 100.371C544.178 98.173 548.044 97 552 97L552 117H572Z" fill="#1B2D6C"/>
<path d="M559.321 92.3205C563.723 92.3205 568.003 93.7733 571.496 96.4534C574.989 99.1336 577.5 102.891 578.639 107.144L559.321 112.321L559.321 92.3205Z" fill="#394C8F"/>
</g>
<g filter="url(#filter7_d_1_2)">
<rect x="352" y="141" width="180" height="180" rx="9.375" fill="#1F2B5A"/>
<rect x="352.5" y="141.5" width="179" height="179" rx="8.875" stroke="#204CE1"/>
</g>
<g filter="url(#filter8_d_1_2)">
<path d="M493.249 208.042C495.207 204.812 496.298 201.086 496.409 197.259C496.519 193.432 495.644 189.644 493.876 186.295C492.108 182.947 489.512 180.161 486.362 178.232C483.213 176.303 479.626 175.302 475.98 175.335H386.141C410.93 176.139 432.957 184.525 447.963 197.314L394.726 282.155H446.799L465.998 251.51L493.249 208.042Z" fill="url(#paint14_linear_1_2)"/>
<path d="M496.41 196.652C496.41 193.841 495.881 191.058 494.852 188.462C493.824 185.867 492.317 183.511 490.418 181.53C488.519 179.549 486.266 177.982 483.788 176.919C481.31 175.856 478.657 175.318 475.98 175.337H386.142C431.826 176.839 468.261 203.99 468.261 237.29C468.247 242.128 467.483 246.932 465.998 251.512L493.282 208.043C495.347 204.641 496.433 200.686 496.41 196.652V196.652Z" fill="url(#paint15_linear_1_2)"/>
</g>
<g filter="url(#filter9_d_1_2)">
<rect x="45" y="364" width="75" height="75" rx="9.375" fill="#1F2B5A"/>
<rect x="45.5" y="364.5" width="74" height="74" rx="8.875" stroke="#204CE1"/>
</g>
<g filter="url(#filter10_d_1_2)">
<rect x="45" y="191" width="75" height="75" rx="9.375" fill="#1F2B5A"/>
<rect x="45.5" y="191.5" width="74" height="74" rx="8.875" stroke="#204CE1"/>
</g>
<circle cx="91" cy="228" r="20" transform="rotate(-90 91 228)" fill="#445BAA"/>
<circle opacity="0.22" cx="73" cy="228" r="20" transform="rotate(-90 73 228)" fill="#445BAA"/>
<g filter="url(#filter11_d_1_2)">
<rect x="45" y="19" width="75" height="75" rx="9.375" fill="#1F2B5A"/>
<rect x="45.5" y="19.5" width="74" height="74" rx="8.875" stroke="#204CE1"/>
</g>
<rect x="82.6274" y="376" width="34.8284" height="34.8284" transform="rotate(45 82.6274 376)" fill="#445BAA"/>
<path d="M82.6274 32L90.7592 46.8683L105.627 55L90.7592 63.1317L82.6274 78L74.4957 63.1317L59.6274 55L74.4957 46.8683L82.6274 32Z" fill="#445BAA"/>
<defs>
<filter id="filter0_d_1_2" x="167" y="54" width="45" height="52.5" filterUnits="userSpaceOnUse" color-interpolation-filters="sRGB">
<feFlood flood-opacity="0" result="BackgroundImageFix"/>
<feColorMatrix in="SourceAlpha" type="matrix" values="0 0 0 0 0 0 0 0 0 0 0 0 0 0 0 0 0 0 127 0" result="hardAlpha"/>
<feOffset dy="4"/>
<feGaussianBlur stdDeviation="2"/>
<feComposite in2="hardAlpha" operator="out"/>
<feColorMatrix type="matrix" values="0 0 0 0 0 0 0 0 0 0 0 0 0 0 0 0 0 0 0.25 0"/>
<feBlend mode="normal" in2="BackgroundImageFix" result="effect1_dropShadow_1_2"/>
<feBlend mode="normal" in="SourceGraphic" in2="effect1_dropShadow_1_2" result="shape"/>
</filter>
<filter id="filter1_f_1_2" x="167" y="50" width="45" height="52" filterUnits="userSpaceOnUse" color-interpolation-filters="sRGB">
<feFlood flood-opacity="0" result="BackgroundImageFix"/>
<feBlend mode="normal" in="SourceGraphic" in2="BackgroundImageFix" result="shape"/>
<feGaussianBlur stdDeviation="2" result="effect1_foregroundBlur_1_2"/>
</filter>
<filter id="filter2_f_1_2" x="219" y="192" width="66" height="24" filterUnits="userSpaceOnUse" color-interpolation-filters="sRGB">
<feFlood flood-opacity="0" result="BackgroundImageFix"/>
<feBlend mode="normal" in="SourceGraphic" in2="BackgroundImageFix" result="shape"/>
<feGaussianBlur stdDeviation="5" result="effect1_foregroundBlur_1_2"/>
</filter>
<filter id="filter3_f_1_2" x="271" y="242" width="45" height="24" filterUnits="userSpaceOnUse" color-interpolation-filters="sRGB">
<feFlood flood-opacity="0" result="BackgroundImageFix"/>
<feBlend mode="normal" in="SourceGraphic" in2="BackgroundImageFix" result="shape"/>
<feGaussianBlur stdDeviation="5" result="effect1_foregroundBlur_1_2"/>
</filter>
<filter id="filter4_f_1_2" x="194" y="327" width="24" height="46" filterUnits="userSpaceOnUse" color-interpolation-filters="sRGB">
<feFlood flood-opacity="0" result="BackgroundImageFix"/>
<feBlend mode="normal" in="SourceGraphic" in2="BackgroundImageFix" result="shape"/>
<feGaussianBlur stdDeviation="5" result="effect1_foregroundBlur_1_2"/>
</filter>
<filter id="filter5_f_1_2" x="138" y="216" width="84.2609" height="24" filterUnits="userSpaceOnUse" color-interpolation-filters="sRGB">
<feFlood flood-opacity="0" result="BackgroundImageFix"/>
<feBlend mode="normal" in="SourceGraphic" in2="BackgroundImageFix" result="shape"/>
<feGaussianBlur stdDeviation="5" result="effect1_foregroundBlur_1_2"/>
</filter>
<filter id="filter6_f_1_2" x="286" y="216" width="55.9565" height="24" filterUnits="userSpaceOnUse" color-interpolation-filters="sRGB">
<feFlood flood-opacity="0" result="BackgroundImageFix"/>
<feBlend mode="normal" in="SourceGraphic" in2="BackgroundImageFix" result="shape"/>
<feGaussianBlur stdDeviation="5" result="effect1_foregroundBlur_1_2"/>
</filter>
<filter id="filter7_d_1_2" x="346.356" y="135.356" width="202.575" height="202.575" filterUnits="userSpaceOnUse" color-interpolation-filters="sRGB">
<feFlood flood-opacity="0" result="BackgroundImageFix"/>
<feColorMatrix in="SourceAlpha" type="matrix" values="0 0 0 0 0 0 0 0 0 0 0 0 0 0 0 0 0 0 127 0" result="hardAlpha"/>
<feOffset dx="5.64369" dy="5.64369"/>
<feGaussianBlur stdDeviation="5.64369"/>
<feComposite in2="hardAlpha" operator="out"/>
<feColorMatrix type="matrix" values="0 0 0 0 0 0 0 0 0 0 0 0 0 0 0 0 0 0 0.25 0"/>
<feBlend mode="normal" in2="BackgroundImageFix" result="effect1_dropShadow_1_2"/>
<feBlend mode="normal" in="SourceGraphic" in2="effect1_dropShadow_1_2" result="shape"/>
</filter>
<filter id="filter8_d_1_2" x="386.141" y="175.335" width="158.102" height="154.646" filterUnits="userSpaceOnUse" color-interpolation-filters="sRGB">
<feFlood flood-opacity="0" result="BackgroundImageFix"/>
<feColorMatrix in="SourceAlpha" type="matrix" values="0 0 0 0 0 0 0 0 0 0 0 0 0 0 0 0 0 0 127 0" result="hardAlpha"/>
<feOffset dx="23.9127" dy="23.9127"/>
<feGaussianBlur stdDeviation="11.9563"/>
<feComposite in2="hardAlpha" operator="out"/>
<feColorMatrix type="matrix" values="0 0 0 0 0 0 0 0 0 0 0 0 0 0 0 0 0 0 0.25 0"/>
<feBlend mode="normal" in2="BackgroundImageFix" result="effect1_dropShadow_1_2"/>
<feBlend mode="normal" in="SourceGraphic" in2="effect1_dropShadow_1_2" result="shape"/>
</filter>
<filter id="filter9_d_1_2" x="39.3563" y="358.356" width="97.5748" height="97.5748" filterUnits="userSpaceOnUse" color-interpolation-filters="sRGB">
<feFlood flood-opacity="0" result="BackgroundImageFix"/>
<feColorMatrix in="SourceAlpha" type="matrix" values="0 0 0 0 0 0 0 0 0 0 0 0 0 0 0 0 0 0 127 0" result="hardAlpha"/>
<feOffset dx="5.64369" dy="5.64369"/>
<feGaussianBlur stdDeviation="5.64369"/>
<feComposite in2="hardAlpha" operator="out"/>
<feColorMatrix type="matrix" values="0 0 0 0 0 0 0 0 0 0 0 0 0 0 0 0 0 0 0.25 0"/>
<feBlend mode="normal" in2="BackgroundImageFix" result="effect1_dropShadow_1_2"/>
<feBlend mode="normal" in="SourceGraphic" in2="effect1_dropShadow_1_2" result="shape"/>
</filter>
<filter id="filter10_d_1_2" x="39.3563" y="185.356" width="97.5748" height="97.5748" filterUnits="userSpaceOnUse" color-interpolation-filters="sRGB">
<feFlood flood-opacity="0" result="BackgroundImageFix"/>
<feColorMatrix in="SourceAlpha" type="matrix" values="0 0 0 0 0 0 0 0 0 0 0 0 0 0 0 0 0 0 127 0" result="hardAlpha"/>
<feOffset dx="5.64369" dy="5.64369"/>
<feGaussianBlur stdDeviation="5.64369"/>
<feComposite in2="hardAlpha" operator="out"/>
<feColorMatrix type="matrix" values="0 0 0 0 0 0 0 0 0 0 0 0 0 0 0 0 0 0 0.25 0"/>
<feBlend mode="normal" in2="BackgroundImageFix" result="effect1_dropShadow_1_2"/>
<feBlend mode="normal" in="SourceGraphic" in2="effect1_dropShadow_1_2" result="shape"/>
</filter>
<filter id="filter11_d_1_2" x="39.3563" y="13.3563" width="97.5748" height="97.5748" filterUnits="userSpaceOnUse" color-interpolation-filters="sRGB">
<feFlood flood-opacity="0" result="BackgroundImageFix"/>
<feColorMatrix in="SourceAlpha" type="matrix" values="0 0 0 0 0 0 0 0 0 0 0 0 0 0 0 0 0 0 127 0" result="hardAlpha"/>
<feOffset dx="5.64369" dy="5.64369"/>
<feGaussianBlur stdDeviation="5.64369"/>
<feComposite in2="hardAlpha" operator="out"/>
<feColorMatrix type="matrix" values="0 0 0 0 0 0 0 0 0 0 0 0 0 0 0 0 0 0 0.25 0"/>
<feBlend mode="normal" in2="BackgroundImageFix" result="effect1_dropShadow_1_2"/>
<feBlend mode="normal" in="SourceGraphic" in2="effect1_dropShadow_1_2" result="shape"/>
</filter>
<linearGradient id="paint0_linear_1_2" x1="179.5" y1="54" x2="207" y2="96" gradientUnits="userSpaceOnUse">
<stop stop-color="#1EFFAE" stop-opacity="0"/>
<stop offset="1" stop-color="#1EFFAE"/>
</linearGradient>
<linearGradient id="paint1_linear_1_2" x1="179.5" y1="54" x2="207" y2="96" gradientUnits="userSpaceOnUse">
<stop stop-color="#1EFFAE" stop-opacity="0"/>
<stop offset="1" stop-color="#1EFFAE"/>
</linearGradient>
<linearGradient id="paint2_linear_1_2" x1="179.5" y1="54" x2="207" y2="96" gradientUnits="userSpaceOnUse">
<stop stop-color="#1EFFAE" stop-opacity="0"/>
<stop offset="1" stop-color="#1EFFAE"/>
</linearGradient>
<linearGradient id="paint3_linear_1_2" x1="179.5" y1="54" x2="207" y2="96" gradientUnits="userSpaceOnUse">
<stop stop-color="#1EFFAE" stop-opacity="0"/>
<stop offset="1" stop-color="#1EFFAE"/>
</linearGradient>
<linearGradient id="paint4_linear_1_2" x1="245" y1="204.5" x2="271" y2="204.5" gradientUnits="userSpaceOnUse">
<stop stop-color="#1EFFAE" stop-opacity="0"/>
<stop offset="1" stop-color="#1EFFAE"/>
</linearGradient>
<linearGradient id="paint5_linear_1_2" x1="231" y1="204.5" x2="273" y2="204.5" gradientUnits="userSpaceOnUse">
<stop stop-color="#1EFFAE" stop-opacity="0"/>
<stop offset="1" stop-color="#1EFFAE"/>
</linearGradient>
<linearGradient id="paint6_linear_1_2" x1="283" y1="254.5" x2="304" y2="254.5" gradientUnits="userSpaceOnUse">
<stop stop-color="#1EFFAE" stop-opacity="0"/>
<stop offset="1" stop-color="#1EFFAE"/>
</linearGradient>
<linearGradient id="paint7_linear_1_2" x1="283" y1="254.5" x2="304" y2="254.5" gradientUnits="userSpaceOnUse">
<stop stop-color="#1EFFAE" stop-opacity="0"/>
<stop offset="1" stop-color="#1EFFAE"/>
</linearGradient>
<linearGradient id="paint8_linear_1_2" x1="206.5" y1="361" x2="206.5" y2="339" gradientUnits="userSpaceOnUse">
<stop stop-color="#1EFFAE" stop-opacity="0"/>
<stop offset="1" stop-color="#1EFFAE"/>
</linearGradient>
<linearGradient id="paint9_linear_1_2" x1="206.5" y1="361" x2="206.5" y2="339" gradientUnits="userSpaceOnUse">
<stop stop-color="#1EFFAE" stop-opacity="0"/>
<stop offset="1" stop-color="#1EFFAE"/>
</linearGradient>
<linearGradient id="paint10_linear_1_2" x1="155.739" y1="228.5" x2="216" y2="228.5" gradientUnits="userSpaceOnUse">
<stop stop-color="#661EFF" stop-opacity="0"/>
<stop offset="1" stop-color="#661EFF"/>
</linearGradient>
<linearGradient id="paint11_linear_1_2" x1="150" y1="228.5" x2="210.261" y2="228.5" gradientUnits="userSpaceOnUse">
<stop stop-color="#661EFF" stop-opacity="0"/>
<stop offset="1" stop-color="#661EFF"/>
</linearGradient>
<linearGradient id="paint12_linear_1_2" x1="301.043" y1="228.5" x2="333" y2="228.5" gradientUnits="userSpaceOnUse">
<stop stop-color="#661EFF" stop-opacity="0"/>
<stop offset="1" stop-color="#661EFF"/>
</linearGradient>
<linearGradient id="paint13_linear_1_2" x1="298" y1="228.5" x2="329.957" y2="228.5" gradientUnits="userSpaceOnUse">
<stop stop-color="#661EFF" stop-opacity="0"/>
<stop offset="1" stop-color="#661EFF"/>
</linearGradient>
<linearGradient id="paint14_linear_1_2" x1="463.402" y1="149.862" x2="377.715" y2="286.817" gradientUnits="userSpaceOnUse">
<stop stop-color="#4E61A3"/>
<stop offset="1" stop-color="#00EC9C"/>
</linearGradient>
<linearGradient id="paint15_linear_1_2" x1="87.1126" y1="213.424" x2="87.9777" y2="213.424" gradientUnits="userSpaceOnUse">
<stop stop-color="#00FFA3"/>
<stop offset="0.46" stop-color="#00F9A1"/>
<stop offset="1" stop-color="#01EB9C"/>
</linearGradient>
</defs>
</svg>
