<svg width="183" height="63" viewBox="0 0 183 63" fill="none" xmlns="http://www.w3.org/2000/svg">
<g clip-path="url(#clip0_1260_12139)">
<path d="M165.165 29.4028V26.812H161.947V22.7844L161.839 22.8177L158.817 23.7423L158.758 23.7604V26.812H153.988V25.1119C153.988 24.3204 154.165 23.7146 154.514 23.3104C154.861 22.9112 155.356 22.7084 155.988 22.7084C156.442 22.7084 156.913 22.8153 157.386 23.0265L157.505 23.0795V20.3513L157.449 20.3307C157.008 20.1721 156.407 20.092 155.662 20.092C154.724 20.092 153.872 20.2961 153.128 20.7009C152.384 21.1064 151.799 21.6847 151.389 22.4204C150.98 23.1552 150.773 24.0038 150.773 24.943V26.812H148.533V29.4028H150.773V40.3168H153.989V29.4028H158.758V36.3384C158.758 39.195 160.106 40.6425 162.763 40.6425C163.199 40.6425 163.659 40.5914 164.128 40.491C164.606 40.3882 164.931 40.2854 165.123 40.1757L165.165 40.1508V37.5363L165.034 37.6229C164.86 37.7392 164.642 37.8342 164.388 37.9049C164.132 37.9769 163.918 38.0131 163.752 38.0131C163.13 38.0131 162.669 37.8454 162.384 37.5142C162.095 37.1801 161.948 36.5961 161.948 35.7788V29.4031H165.165L165.165 29.4028ZM141.351 38.0128C140.184 38.0128 139.264 37.6257 138.615 36.8632C137.963 36.0969 137.632 35.0044 137.632 33.6165C137.632 32.2285 137.963 31.0637 138.615 30.2841C139.265 29.5094 140.176 29.1161 141.325 29.1161C142.474 29.1161 143.328 29.4916 143.963 30.2326C144.603 30.9777 144.927 32.0896 144.927 33.538C144.927 34.9863 144.622 36.1309 144.02 36.8844C143.423 37.6323 142.525 38.0121 141.351 38.0121M141.494 26.4867C139.267 26.4867 137.499 27.1392 136.238 28.4262C134.977 29.7132 134.338 31.4944 134.338 33.7206C134.338 35.9467 134.962 37.5357 136.192 38.7747C137.423 40.0143 139.097 40.6419 141.169 40.6419C143.24 40.6419 145.061 39.9803 146.321 38.6756C147.582 37.3724 148.22 35.608 148.22 33.4339C148.22 31.2597 147.621 29.573 146.439 28.3421C145.256 27.1109 143.592 26.4867 141.494 26.4867ZM129.153 26.4867C127.638 26.4867 126.385 26.874 125.428 27.6381C124.465 28.4066 123.977 29.4147 123.977 30.6343C123.977 31.2685 124.082 31.8315 124.29 32.3093C124.498 32.7885 124.821 33.2104 125.251 33.5644C125.677 33.9156 126.334 34.2836 127.205 34.6579C127.938 34.9592 128.484 35.2141 128.831 35.4151C129.17 35.6121 129.411 35.8099 129.547 36.0028C129.679 36.1914 129.746 36.4497 129.746 36.7685C129.746 37.6759 129.067 38.1171 127.668 38.1171C127.15 38.1171 126.558 38.0087 125.91 37.7952C125.267 37.5849 124.66 37.277 124.11 36.8825L123.977 36.7869V39.8831L124.026 39.9058C124.481 40.1159 125.054 40.2928 125.73 40.4325C126.405 40.5721 127.019 40.6428 127.551 40.6428C129.195 40.6428 130.519 40.2536 131.484 39.4848C132.456 38.7111 132.949 37.6793 132.949 36.4176C132.949 35.5074 132.684 34.7268 132.161 34.097C131.642 33.4725 130.741 32.8991 129.484 32.3925C128.483 31.9905 127.842 31.657 127.577 31.4009C127.322 31.1535 127.193 30.8035 127.193 30.3607C127.193 29.9681 127.353 29.6534 127.681 29.3984C128.011 29.1423 128.472 29.012 129.049 29.012C129.585 29.012 130.134 29.0968 130.679 29.2626C131.223 29.4284 131.702 29.6505 132.101 29.9223L132.233 30.012V27.075L132.182 27.0532C131.814 26.8952 131.328 26.76 130.738 26.6503C130.15 26.5412 129.617 26.4864 129.154 26.4864M115.593 38.0128C114.426 38.0128 113.506 37.6257 112.857 36.8632C112.205 36.0969 111.874 35.0047 111.874 33.6165C111.874 32.2282 112.205 31.0637 112.858 30.2841C113.506 29.5094 114.418 29.1161 115.567 29.1161C116.717 29.1161 117.57 29.4916 118.206 30.2326C118.845 30.9777 119.169 32.0896 119.169 33.538C119.169 34.9863 118.864 36.1309 118.262 36.8844C117.665 37.6323 116.767 38.0121 115.593 38.0121M115.737 26.4867C113.509 26.4867 111.74 27.1392 110.48 28.4262C109.22 29.7132 108.58 31.4944 108.58 33.7206C108.58 35.9467 109.205 37.5357 110.435 38.7747C111.665 40.0143 113.339 40.6419 115.411 40.6419C117.483 40.6419 119.303 39.9803 120.564 38.6756C121.824 37.3724 122.463 35.608 122.463 33.4339C122.463 31.2597 121.864 29.573 120.681 28.3421C119.498 27.1106 117.834 26.4867 115.737 26.4867M103.699 29.1507V26.812H100.522V40.3165H103.699V33.4086C103.699 32.2342 103.965 31.2691 104.49 30.5402C105.009 29.8201 105.701 29.4552 106.545 29.4552C106.831 29.4552 107.152 29.5022 107.5 29.5957C107.844 29.6886 108.094 29.7892 108.241 29.8952L108.374 29.9921V26.7896L108.323 26.7675C108.027 26.6419 107.608 26.5783 107.079 26.5783C106.28 26.5783 105.566 26.8348 104.954 27.3399C104.417 27.7837 104.029 28.3926 103.732 29.1513H103.698L103.699 29.1507ZM94.8334 26.4867C93.376 26.4867 92.0763 26.7993 90.9707 27.4153C89.8629 28.0326 89.0059 28.9142 88.4229 30.0351C87.8423 31.1532 87.5479 32.4595 87.5479 33.9159C87.5479 35.192 87.8336 36.3628 88.3983 37.3948C88.9632 38.4285 89.7631 39.2371 90.7753 39.798C91.7862 40.3583 92.9544 40.6422 94.2482 40.6422C95.758 40.6422 97.0469 40.3402 98.0802 39.745L98.1219 39.721V36.8109L97.9886 36.9084C97.5205 37.2493 96.9973 37.5217 96.4345 37.7177C95.873 37.9137 95.3613 38.0128 94.9123 38.0128C93.6658 38.0128 92.6652 37.6226 91.9388 36.8539C91.2109 36.0839 90.842 35.0029 90.842 33.6423C90.842 32.2818 91.2268 31.1644 91.9853 30.3461C92.7416 29.5303 93.744 29.1164 94.9646 29.1164C96.0089 29.1164 97.0263 29.4701 97.9889 30.1681L98.1222 30.2647V27.1981L98.0792 27.1738C97.7171 26.971 97.2229 26.8036 96.6097 26.6765C95.9989 26.5497 95.4015 26.4861 94.8341 26.4861M85.3597 26.812H82.1831V40.3162H85.3597V26.812ZM83.8038 21.0593C83.2809 21.0593 82.825 21.2372 82.4505 21.59C82.0743 21.9437 81.8833 22.389 81.8833 22.9147C81.8833 23.4404 82.0718 23.8691 82.4445 24.2135C82.8147 24.5569 83.2722 24.7308 83.8041 24.7308C84.336 24.7308 84.7951 24.5569 85.1696 24.2141C85.5467 23.8691 85.738 23.4323 85.738 22.9147C85.738 22.3971 85.552 21.9667 85.1852 21.6043C84.8187 21.2425 84.3541 21.0593 83.8041 21.0593M75.8782 25.8158V40.3165H79.1199V21.4725H74.633L68.9298 35.469L63.3952 21.4725H58.7256V40.3162H61.7723V25.8142H61.877L67.7213 40.3162H70.0204L75.7735 25.8155H75.8782V25.8158Z" fill="white"/>
<path d="M32.7974 30.1196H17.8535V15.1758H32.7974V30.1196Z" fill="white"/>
<path d="M49.2975 30.1196H34.354V15.1758H49.2975V30.1196Z" fill="white"/>
<path d="M32.7967 46.6247H17.8535V31.6812H32.7967V46.6247Z" fill="white"/>
<path d="M49.2975 46.6247H34.354V31.6812H49.2975V46.6247Z" fill="white"/>
</g>
<defs>
<clipPath id="clip0_1260_12139">
<rect width="147.31" height="31.4492" fill="white" transform="translate(17.8535 15.1758)"/>
</clipPath>
</defs>
</svg>
