<svg xmlns="http://www.w3.org/2000/svg" xmlns:xlink="http://www.w3.org/1999/xlink" width="73" height="68" viewBox="0 0 73 68">
  <defs>
    <style>
      .cls-1 {
        fill: url(#New_Gradient_Swatch_3);
      }

      .cls-2 {
        fill: url(#linear-gradient);
      }
    </style>
    <linearGradient id="New_Gradient_Swatch_3" data-name="New Gradient Swatch 3" x1="51.21" y1="-16.04" x2="-1.91" y2="73.13" gradientUnits="userSpaceOnUse">
      <stop offset="0" stop-color="#4e61a3"/>
      <stop offset="1" stop-color="#00ec9c"/>
    </linearGradient>
    <linearGradient id="linear-gradient" x1="-197.97" y1="24.23" x2="-197.4" y2="24.23" gradientUnits="userSpaceOnUse">
      <stop offset="0" stop-color="#00ffa3"/>
      <stop offset="0.46" stop-color="#00f9a1"/>
      <stop offset="1" stop-color="#01eb9c"/>
    </linearGradient>
  </defs>
  <g id="Layer_2" data-name="Layer 2">
    <g id="Layer_1-2" data-name="Layer 1">
      <g>
        <path class="cls-1" d="M70.9,20.82A13.57,13.57,0,0,0,59.55,0H0C16.41.52,31,5.85,40.92,14L5.58,68l34.47,0L52.84,48.46h0Z"/>
        <path class="cls-2" d="M73,13.57A13.51,13.51,0,0,0,59.55,0H0C30.25,1,54.36,18.24,54.36,39.42a28.21,28.21,0,0,1-1.52,9L70.9,20.82A13.58,13.58,0,0,0,73,13.57Z"/>
      </g>
    </g>
  </g>
</svg>
