<svg id="Layer_1" data-name="Layer 1" xmlns="http://www.w3.org/2000/svg" width="49" height="41" viewBox="0 0 49 41"><defs><style>.cls-1{fill:#00f0b9;}</style></defs><title>annual</title><rect class="cls-1" x="6.83" y="11.58" width="35.35" height="2.36"/><path class="cls-1" d="M39.65,41.12H9.35A3.86,3.86,0,0,1,5.5,37.27v-30A3.86,3.86,0,0,1,9.35,3.42h30.3A3.86,3.86,0,0,1,43.5,7.27v30A3.86,3.86,0,0,1,39.65,41.12Zm-30.3-35a1.2,1.2,0,0,0-1.2,1.2v30a1.2,1.2,0,0,0,1.2,1.2h30.3a1.2,1.2,0,0,0,1.2-1.2v-30a1.2,1.2,0,0,0-1.2-1.2Z"/><path class="cls-1" d="M17.11,9.23a1.33,1.33,0,0,1-1.33-1.32V1.21a1.33,1.33,0,1,1,2.65,0v6.7A1.32,1.32,0,0,1,17.11,9.23Z"/><path class="cls-1" d="M31.89,9.23a1.32,1.32,0,0,1-1.32-1.32V1.21a1.33,1.33,0,1,1,2.65,0v6.7A1.33,1.33,0,0,1,31.89,9.23Z"/><circle class="cls-1" cx="13.52" cy="18.82" r="2.03"/><circle class="cls-1" cx="20.84" cy="18.82" r="2.03"/><circle class="cls-1" cx="28.16" cy="18.82" r="2.03"/><circle class="cls-1" cx="35.48" cy="18.82" r="2.03"/><circle class="cls-1" cx="13.52" cy="25.97" r="2.03"/><circle class="cls-1" cx="20.84" cy="25.97" r="2.03"/><circle class="cls-1" cx="28.16" cy="25.97" r="2.03"/><circle class="cls-1" cx="35.48" cy="25.97" r="2.03"/><circle class="cls-1" cx="13.52" cy="33.12" r="2.03"/><circle class="cls-1" cx="20.84" cy="33.12" r="2.03"/><circle class="cls-1" cx="28.16" cy="33.12" r="2.03"/><circle class="cls-1" cx="35.48" cy="33.12" r="2.03"/></svg>