<svg xmlns="http://www.w3.org/2000/svg" width="20" height="25" viewBox="0 0 20 25">
  <g id="Group_103" data-name="Group 103" transform="translate(-776 -514)">
    <g id="Group_99" data-name="Group 99">
      <g id="Group_98" data-name="Group 98">
        <g id="Group_97" data-name="Group 97">
          <path id="Path_106" data-name="Path 106" d="M788,515v5.972A1.028,1.028,0,0,0,789.028,522H795" fill="none" stroke="#00e5b1" stroke-miterlimit="10" stroke-width="2"/>
          <path id="Path_107" data-name="Path 107" d="M787.574,515h-5.546A1.028,1.028,0,0,0,781,516.028v16.944A1.028,1.028,0,0,0,782.028,534h11.944A1.028,1.028,0,0,0,795,532.972V522.426a1.027,1.027,0,0,0-.3-.727l-6.4-6.4A1.027,1.027,0,0,0,787.574,515Z" fill="none" stroke="#00e5b1" stroke-miterlimit="10" stroke-width="2"/>
        </g>
      </g>
    </g>
    <g id="Group_102" data-name="Group 102">
      <g id="Group_101" data-name="Group 101">
        <g id="Group_100" data-name="Group 100">
          <path id="Path_108" data-name="Path 108" d="M781,519h-2.972A1.028,1.028,0,0,0,777,520.028v16.944A1.028,1.028,0,0,0,778.028,538h11.944A1.028,1.028,0,0,0,791,536.972V534" fill="none" stroke="#00e5b1" stroke-miterlimit="10" stroke-width="2"/>
        </g>
      </g>
    </g>
  </g>
</svg>
