<svg xmlns="http://www.w3.org/2000/svg" xmlns:xlink="http://www.w3.org/1999/xlink" width="98" height="122.598" viewBox="0 0 98 122.598"><defs><style>.a{fill:url(#a);}.b{fill:#00f0b9;}.c,.d{fill:none;stroke:#00e5b1;stroke-width:4px;}.d{stroke-linecap:square;}</style><linearGradient id="a" x1="0.701" y1="-0.238" x2="-0.023" y2="1.077" gradientUnits="objectBoundingBox"><stop offset="0" stop-color="#4a68a3"/><stop offset="1" stop-color="#00ec9c"/></linearGradient></defs><g transform="translate(1582 -2382)"><circle cx="49" cy="49" r="49" transform="translate(-1582 2382)"/><g transform="translate(-1555.906 2409.85)"><g transform="translate(0)"><g transform="translate(0 0)"><path class="a" d="M695.653,289.146a8.429,8.429,0,0,0-7.123-12.952H651.157c10.3.323,19.45,3.638,25.679,8.7l-22.175,33.572,21.627.029,8.029-12.156h0Z" transform="translate(-651.157 -276.194)"/><path class="b" d="M696.968,284.633a8.439,8.439,0,0,0-8.439-8.439H651.156c18.986.6,34.114,11.347,34.114,24.522a17.325,17.325,0,0,1-.954,5.623l11.335-17.193A8.388,8.388,0,0,0,696.968,284.633Z" transform="translate(-651.156 -276.194)"/></g></g></g><g transform="translate(-3221.775 2880.132) rotate(-90)"><line class="c" x2="33.538" transform="translate(378.363 1688.775)"/><line class="d" x1="7.291" y2="7.291" transform="translate(378.363 1681.484)"/><line class="d" x1="7.291" y2="7.291" transform="translate(385.654 1688.775) rotate(90)"/></g></g></svg>