<svg xmlns="http://www.w3.org/2000/svg" xmlns:xlink="http://www.w3.org/1999/xlink" width="998.393" height="394.351" viewBox="0 0 998.393 394.351">
  <defs>
    <radialGradient id="radial-gradient" cx="0.432" cy="0.354" r="0.637" gradientTransform="translate(0.152) scale(0.695 1)" gradientUnits="objectBoundingBox">
      <stop offset="0" stop-color="#9b54f7"/>
      <stop offset="1"/>
    </radialGradient>
    <radialGradient id="radial-gradient-2" cx="0.624" cy="0.499" r="0.469" gradientTransform="translate(0.152) scale(0.695 1)" gradientUnits="objectBoundingBox">
      <stop offset="0" stop-color="#00e5b1"/>
      <stop offset="1"/>
    </radialGradient>
  </defs>
  <g id="Group_212" data-name="Group 212" transform="translate(-869.346 -165.649)">
    <path id="Path_175" data-name="Path 175" d="M837.811,338.87l-8.5-.032L852.4,304.554h8.284Zm-16.047-32.794-7.945-.6-21.425,31.843,8.145.635ZM782.848,307.6l-7.606-1.207-19.762,29.4,7.787,1.239Zm-46.183-.288-18.1,26.962,7.429,1.842,17.938-26.993Zm-38.576.918-16.438,24.521,7.072,2.447,16.295-24.553Zm-38.577.919-14.775,22.08,6.713,3.05L666.1,312.165Zm-38.577.918L607.823,329.7l6.355,3.654,13.009-19.672Zm-38.576.919-11.45,17.2,6,4.257,11.366-17.231Zm-42.725,20.538,9.723-14.791-5.575-4.829-9.788,14.759Zm-42.554-6.383,5.282,5.464,8.079-12.35-5.236-5.432Zm-36.914-1.522,4.924,6.068,6.436-9.91-4.9-6.036ZM423.252,322.1l4.565,6.671,4.794-7.469-4.559-6.639Zm-36.915-1.522,4.208,7.275,3.151-5.029-4.221-7.243Zm-36.914-1.522,3.85,7.878,1.507-2.588-3.881-7.846Zm491.994-57.537-18.567,9.074,7.347,4.279,18.481-9.142,18.481-9.142-7.174-4.142Zm-20.665-8.49-3.734,1.875L803.7,261.737l-1.779.913-15.195,7.8,6.859,3.82,3.691-1.875,13.276-6.9,1.757-.913,15.136-7.863ZM760.4,271.881l12.027-6.613,1.591-.874,13.713-7.535-6.216-3.252-3.466,1.795-12.065,6.557-1.612.877-13.768,7.478,6.369,3.361ZM739.085,255.9l-10.813,6.278-1.445.838-12.341,7.157,5.879,2.9,3.164-1.713,10.777-6.327,1.426-.837L748.022,257l-5.738-2.807Zm-38.966.5-9.562,6-1.278.8-10.914,6.835,5.389,2.443,2.9-1.631,9.528-6.041,1.261-.8,10.867-6.879-5.259-2.36Zm-38.966.5-8.311,5.717-1.11.764-9.489,6.513,4.9,1.984,2.636-1.55,8.279-5.754,1.1-.762,9.443-6.55-4.78-1.915Zm-38.966.5-7.06,5.436-.943.727-8.062,6.191,4.41,1.526,2.372-1.47,7.03-5.468.93-.723,8.021-6.222-4.3-1.47Zm-38.966.5-5.809,5.157-.776.689L570,269.63l3.92,1.067,2.108-1.388,5.781-5.182.765-.685,6.6-5.894-3.823-1.025Zm-38.967.5-4.557,4.876-.609.652-5.209,5.548,3.431.607,1.844-1.306,4.532-4.9.6-.648,5.175-5.565-3.345-.58ZM500.7,269.505l1.58-1.225,3.282-4.609.435-.61,3.751-5.237-2.865-.134-1.6,1.231-3.306,4.6-.442.615-3.782,5.226Zm-36.611-.6,1.316-1.144,2.033-4.323.269-.573,2.329-4.908-2.387.311-1.327,1.15-2.056,4.316-.274.577-2.355,4.9Zm-36.611-.6,1.052-1.063.784-4.037.1-.534.9-4.58-1.908.756-1.059,1.07-.8,4.035-.107.54-.928,4.582Zm-36.349-5.825-.518-4.251-1.429,1.2-.793.99.447,3.755.06.5.5,4.261,1.473-1.229.788-.981-.465-3.751Zm-40.23-4.113-1.476,2.556,1.925,3.939,1.925,3.939,1.507-2.588-1.94-3.923ZM830.2,407.909l-7.347,4.28,18.567,9.073,18.568,9.073,7.174-4.141-18.481-9.142Zm-19.643,9.371-13.276-6.9-3.691-1.876-6.859,3.82,15.195,7.8,1.779.914,13.316,6.838,3.734,1.874,6.7-3.7-15.136-7.863Zm-38.124.228L760.4,410.895l-3.427-1.794-6.369,3.361,13.768,7.479,1.612.876,12.065,6.558,3.466,1.794,6.216-3.251-13.713-7.535Zm-38.124.228-10.777-6.326-3.164-1.713-5.879,2.9,12.341,7.157,1.445.839,10.813,6.277,3.2,1.714,5.738-2.806-12.29-7.207Zm-38.124.229-9.528-6.041-2.9-1.632-5.389,2.444,10.914,6.835,1.278.8,9.562,6L703.051,428l5.259-2.361-10.867-6.878Zm-38.124.228-8.279-5.754-2.636-1.551-4.9,1.984,9.489,6.514,1.11.764,8.311,5.717,2.664,1.553,4.78-1.916-9.443-6.55Zm-38.124.228-7.03-5.468-2.372-1.469-4.41,1.525,8.062,6.192.943.726,7.06,5.437,2.4,1.472,4.3-1.47-8.021-6.221Zm-38.124.228-5.781-5.182-2.108-1.387L570,413.146l6.635,5.87.776.689,5.809,5.156,2.129,1.392,3.823-1.025-6.6-5.893Zm-38.124.229-4.532-4.9-1.844-1.307-3.431.608,5.209,5.548.609.651,4.557,4.877,1.862,1.311,3.345-.58-5.175-5.565Zm-38.124.228-3.282-4.61-1.58-1.225-2.942.148,3.782,5.227.442.614,3.306,4.6,1.6,1.231,2.865-.135L506,419.716Zm-38.124.228-2.033-4.323-1.316-1.144-2.452-.311,2.355,4.9.274.577,2.056,4.315,1.327,1.151,2.387.311-2.329-4.909Zm-38.124.228-.784-4.037-1.052-1.062-1.962-.77.928,4.583.107.539.8,4.035,1.059,1.071,1.908.756-.9-4.58Zm-39.92-5.732-.5,4.261-.06.5-.447,3.755.793.989,1.429,1.2.518-4.252.061-.5.465-3.751-.788-.982Zm-38.046,4.076-1.925,3.939L350.9,424.4l1.941-3.923,1.94-3.924-1.507-2.588ZM857.82,279.078l-16.71,12.16L824.4,303.4l7.979,2.938,16.613-12.212L865.6,281.911Zm-42.431,3.258-11.971,9.074-1.6,1.212-13.66,10.351,7.441,2.582,3.323-2.482,11.92-9.127,1.577-1.207,13.591-10.4-7.258-2.488Zm-35.7-1.719-3.128,2.357-10.831,8.607-1.447,1.15-12.361,9.816,6.9,2.227,3.089-2.35,10.784-8.655,1.427-1.145,12.3-9.863Zm-39.067.77-2.891,2.225-9.693,8.14-1.294,1.088-11.063,9.282,6.365,1.871,2.856-2.219,9.648-8.183,1.277-1.082,11-9.323Zm-39.067.769L698.9,284.25l-8.553,7.674-1.143,1.025-9.763,8.748,5.826,1.515,2.623-2.087,8.512-7.711,1.126-1.02,9.708-8.783Zm-39.067.77-2.418,1.962-7.414,7.207-.991.963-8.465,8.214,5.289,1.159,2.389-1.955,7.376-7.239.976-.958,8.414-8.243Zm-39.067.769-2.182,1.831-6.275,6.74-.838.9-7.166,7.679,4.75.8,2.156-1.823,6.24-6.768.825-.895,7.12-7.7Zm-39.067.77-1.945,1.7-5.136,6.274-.686.838-5.868,7.145,4.212.447,1.924-1.691,5.1-6.3.675-.833,5.825-7.163ZM543.807,292.7l.525-.77,4.53-6.623-3.579-.077-1.707,1.568-4,5.807-.534.776L534.476,300l3.673.091,1.691-1.559Zm-41.92.076-.382.714-3.27,6.077,3.136-.265,1.457-1.427,2.831-5.352.374-.708,3.237-6.083-3.054.268-1.471,1.436Zm-35.972-4.7-1.72,4.874-.229.651-1.971,5.542,2.6-.62,1.224-1.295,1.695-4.88.224-.646,1.942-5.543-2.528.612Zm-38.831.637-.58,4.408-.077.589-.673,5.008,2.059-.976.991-1.164.559-4.408.073-.583.648-5-2,.957Zm-38.271,4.58.074.526.627,4.474,1.521-1.332.757-1.032-.577-3.936-.077-.521-.646-4.464-1.477,1.3-.761,1.041Zm-37.914-5.86-1.476,2.556,1.925,3.939,1.925,3.94,1.507-2.588-1.94-3.924ZM857.82,403.686l7.784-2.834L848.992,388.64l-16.613-12.212-7.979,2.938,16.71,12.16Zm-56-13.544,1.6,1.212,11.971,9.073,3.364,2.489,7.258-2.489-13.591-10.4-1.577-1.208-11.92-9.126-3.323-2.482-7.441,2.582Zm-37.539-.109,1.447,1.15,10.831,8.606,3.128,2.357L786.419,400l-12.3-9.862-1.427-1.145-10.784-8.655-3.089-2.35-6.9,2.226Zm-37.539-.109,1.294,1.088,9.693,8.14,2.891,2.225,6.207-1.8-11-9.323-1.277-1.083-9.648-8.183-2.856-2.218-6.365,1.871Zm-37.54-.109,1.143,1.025,8.553,7.674,2.655,2.093,5.681-1.454-9.708-8.783-1.126-1.02-8.512-7.711-2.623-2.087-5.826,1.515Zm-37.539-.109.991.963,7.414,7.207,2.418,1.962,5.156-1.11-8.414-8.243-.976-.958-7.376-7.239-2.389-1.955-5.289,1.159Zm-37.539-.109.838.9,6.275,6.74,2.182,1.83,4.63-.765-7.12-7.7-.825-.9-6.24-6.768-2.156-1.823-4.75.8Zm-37.539-.109.686.838,5.136,6.274,1.945,1.7,4.1-.421-5.825-7.163-.675-.833-5.1-6.3-1.924-1.691-4.212.448Zm-36.744-5.252-1.691-1.56-3.673.092,4.568,6.611.534.776,4,5.807,1.707,1.567,3.579-.076-4.53-6.623-.525-.771Zm-37.953,5.747,2.858,5.341,1.471,1.436,3.054.268-3.237-6.083-.374-.708-2.831-5.352-1.457-1.428-3.136-.264,3.27,6.077Zm-35.972,4.7,1.234,1.3,2.528.613-1.942-5.543-.224-.646-1.695-4.88-1.224-1.295-2.6-.621,1.971,5.543.229.651Zm-38.831-.638,1,1.173,2,.957-.648-5-.073-.583-.559-4.409-.991-1.163-2.059-.976.673,5.007.077.59Zm-37.57-9.579-.627,4.473-.074.527-.559,3.941.761,1.041,1.477,1.3.646-4.463.077-.521.577-3.936-.757-1.032Zm-38.166,4.364-1.925,3.94,1.476,2.556,1.941-3.924,1.94-3.923-1.507-2.588ZM852.4,378.1h8.284l-22.868-34.315-8.5.032Zm-38.576-.919,7.945-.6L800.539,344.7l-8.145.636Zm-38.577-.918,7.606-1.207-19.581-29.434-7.787,1.239Zm-56.676-27.88,18.1,26.962,7.268-1.811L725.995,346.54ZM681.651,349.9l16.438,24.521,6.929-2.414-16.295-24.553Zm-36.914,1.522,14.775,22.081,6.591-3.018L651.45,348.377Zm-36.914,1.522,13.112,19.64,6.252-3.621L614.178,349.3Zm-36.914,1.522,11.45,17.2,5.913-4.225-11.366-17.231Zm-27.127,16.281,5.575-4.829-9.723-14.79-5.64,4.86Zm-46.7-13.237,8.125,12.319,5.236-5.433-8.079-12.35Zm-36.914,1.522,6.463,9.878,4.9-6.036-6.436-9.909Zm-36.914,1.522,4.8,7.438,4.559-6.64-4.794-7.469Zm-36.915,1.523,3.138,5,4.221-7.243-3.151-5.028ZM349.423,363.6l1.476,2.555,3.881-7.846-1.507-2.588ZM860.679,122.449H852.4l-23.087,34.283,8.5.032Zm-46.86.918L792.394,155.21l8.145.635,21.225-31.874Zm-30.971,2.126-7.606-1.207-19.762,29.4,7.787,1.239Zm-46.183-.289-18.1,26.962,7.429,1.843,17.938-26.994Zm-38.576.918-16.438,24.522,7.072,2.446,16.295-24.553Zm-38.577.919-14.775,22.081,6.713,3.049L666.1,130.059Zm-38.577.919L607.823,147.6l6.355,3.653,13.009-19.672Zm-38.576.918-11.45,17.2,6,4.257L588.272,133.1Zm-42.725,20.538,9.723-14.791-5.575-4.828-9.788,14.758Zm-42.554-6.383,5.282,5.464,8.079-12.35-5.236-5.432Zm-36.914-1.522,4.924,6.068,6.436-9.91-4.9-6.035Zm-36.914-1.522,4.565,6.672,4.794-7.47-4.559-6.639Zm-36.915-1.522,4.208,7.275,3.151-5.029-4.221-7.242Zm-36.914-1.522,3.85,7.879,1.507-2.589-3.881-7.846ZM830.2,92.762l18.481-9.143,18.481-9.142-7.174-4.142-18.568,9.074L822.85,88.482Zm-36.61-.6,3.691-1.876,13.276-6.9,1.757-.913,15.136-7.863-6.7-3.7-3.734,1.874L803.7,79.631l-1.779.914-15.195,7.8ZM760.4,89.776l12.027-6.613,1.591-.875,13.713-7.535L781.518,71.5,778.052,73.3l-12.065,6.558-1.612.876-13.768,7.479,6.369,3.361ZM739.085,73.8l-10.813,6.277-1.445.839-12.341,7.157,5.879,2.9,3.164-1.713,10.777-6.326,1.426-.838,12.29-7.206-5.738-2.806Zm-38.966.5-9.562,6-1.278.8-10.914,6.835,5.389,2.443,2.9-1.631,9.528-6.041,1.261-.8,10.867-6.878-5.259-2.361Zm-38.966.5-8.311,5.717-1.11.764L642.243,87.8l4.9,1.985,2.636-1.551,8.279-5.754,1.1-.761,9.443-6.55-4.78-1.916Zm-38.966.5-7.06,5.437-.943.726-8.062,6.192,4.41,1.525,2.372-1.469,7.03-5.468.93-.724,8.021-6.221-4.3-1.47Zm-38.966.5-5.809,5.156-.776.689L570,87.525l3.92,1.066,2.108-1.388,5.781-5.181.765-.686,6.6-5.893-3.823-1.025Zm-38.967.5L539.7,81.188l-.609.652-5.209,5.548L537.31,88l1.844-1.306,4.532-4.9.6-.647,5.175-5.565L546.116,75ZM502.28,86.175l3.282-4.61.435-.61,3.751-5.237-2.865-.134-1.6,1.231-3.306,4.6-.442.614-3.782,5.226,2.942.149ZM465.4,85.66l2.033-4.323.269-.572,2.329-4.909-2.387.311-1.327,1.151-2.056,4.315-.274.577-2.355,4.9,2.452-.311Zm-36.875-.515.784-4.036.1-.535.9-4.58-1.908.756-1.059,1.071-.8,4.035-.107.539-.928,4.583,1.962-.77ZM388.9,82.58l.5,4.261,1.473-1.229.788-.981-.465-3.751-.061-.5-.518-4.252-1.429,1.2-.793.989.447,3.755Zm-38-6.31-1.476,2.556,1.925,3.939,1.925,3.939,1.507-2.588-1.94-3.923ZM830.2,225.8l-7.347,4.279,18.567,9.073,18.568,9.074,7.174-4.142-18.481-9.142Zm-17.886,10.283-1.757-.913-13.276-6.9-3.691-1.876-6.859,3.821,15.195,7.8,1.779.914,13.316,6.838,3.734,1.875,6.7-3.7Zm-46.324,2.624,12.065,6.558,3.466,1.795,6.216-3.252-13.713-7.535-1.591-.875L760.4,228.789l-3.427-1.794-6.369,3.362,13.768,7.478Zm-31.681-3.08L723.529,229.3l-3.164-1.713-5.879,2.9,12.341,7.157,1.445.839,10.813,6.277,3.2,1.714,5.738-2.806-12.29-7.206Zm-38.124.228-9.528-6.041-2.9-1.631-5.389,2.443,10.914,6.835,1.278.8,9.562,6,2.932,1.633,5.259-2.361-10.867-6.878Zm-38.124.228-8.279-5.754-2.636-1.55-4.9,1.984,9.489,6.513,1.11.764,8.311,5.717,2.664,1.553,4.78-1.915-9.443-6.55Zm-38.124.228-7.03-5.468-2.372-1.469-4.41,1.525,8.062,6.192.943.727,7.06,5.436,2.4,1.473,4.3-1.47-8.021-6.222Zm-38.124.229-5.781-5.182-2.108-1.388L570,231.04l6.635,5.87.776.689,5.809,5.157,2.129,1.392,3.823-1.025-6.6-5.894Zm-38.124.228-4.532-4.9-1.844-1.306-3.431.607,5.209,5.548.609.652,4.557,4.876,1.862,1.312,3.345-.58-5.175-5.565Zm-42.146-.232.442.614,3.306,4.6,1.6,1.231,2.865-.134L506,237.61l-.435-.61-3.282-4.609-1.58-1.226-2.942.149Zm-37.548-.185.274.577,2.056,4.315,1.327,1.151,2.387.311-2.329-4.908-.269-.573L465.4,232.9l-1.316-1.144-2.452-.311Zm-37.548-.185.107.539.8,4.036,1.059,1.07,1.908.756-.9-4.58-.1-.534-.784-4.037-1.052-1.063-1.962-.77Zm-35.577-3.217-1.473-1.229-.5,4.261-.06.5-.447,3.755.793.99,1.429,1.2.518-4.251.061-.5.465-3.751ZM351.348,235.8l-1.925,3.939,1.476,2.556,1.941-3.923,1.94-3.923-1.507-2.588ZM857.82,96.973l-16.71,12.159-16.71,12.16,7.979,2.938,16.613-12.212L865.6,99.806Zm-39.067.769-3.364,2.489L803.418,109.3l-1.6,1.212-13.66,10.351,7.441,2.582,3.323-2.482,11.92-9.126,1.577-1.208,13.591-10.4Zm-39.067.77-3.128,2.357-10.831,8.606-1.447,1.15-12.361,9.817,6.9,2.226,3.089-2.35,10.784-8.655,1.427-1.145,12.3-9.862Zm-39.067.769-2.891,2.226-9.693,8.14-1.294,1.087-11.063,9.283,6.365,1.87,2.856-2.218,9.648-8.183,1.277-1.083,11-9.322Zm-39.067.77-2.655,2.093-8.553,7.674-1.143,1.025-9.763,8.748,5.826,1.515,2.623-2.087,8.512-7.711,1.126-1.02,9.708-8.783Zm-39.067.769-2.418,1.962-7.414,7.207-.991.963-8.465,8.214,5.289,1.159,2.389-1.955,7.376-7.239.976-.958,8.414-8.243Zm-39.067.77-2.182,1.83-6.275,6.741-.838.9-7.166,7.68,4.75.8,2.156-1.823,6.24-6.767.825-.9,7.12-7.7Zm-39.067.769-1.945,1.7-5.136,6.274-.686.838-5.868,7.145,4.212.448,1.924-1.691,5.1-6.3.675-.833,5.825-7.163Zm-40.544,8.24.525-.771,4.53-6.623-3.579-.076-1.707,1.567-4,5.807-.534.777-4.568,6.61,3.673.092,1.691-1.56Zm-41.92.076-.382.713-3.27,6.077,3.136-.264,1.457-1.428,2.831-5.352.374-.708,3.237-6.083-3.054.268-1.471,1.436Zm-35.972-4.7-1.72,4.874-.229.651-1.971,5.543,2.6-.62,1.224-1.3,1.695-4.88.224-.646,1.942-5.543-2.528.613Zm-38.831.638-.58,4.407-.077.59-.673,5.007,2.059-.976.991-1.163.559-4.409.073-.583.648-5-2,.957Zm-38.2,5.106.627,4.473,1.521-1.332.757-1.032-.577-3.936-.077-.521-.646-4.463-1.477,1.3-.761,1.041.559,3.941ZM350.9,105.33l-1.476,2.555,1.925,3.94,1.925,3.939,1.507-2.588-1.94-3.923ZM857.82,221.58l7.784-2.833-16.612-12.213-16.613-12.212L824.4,197.26l16.71,12.16Zm-45.4-13.661-1.577-1.207-11.92-9.127L795.6,195.1l-7.441,2.582,13.66,10.352,1.6,1.212,11.971,9.073,3.364,2.488,7.258-2.488Zm-48.14.008,1.447,1.15,10.831,8.607,3.128,2.357,6.733-2.144-12.3-9.863-1.427-1.145-10.784-8.655-3.089-2.35-6.9,2.227Zm-37.539-.109,1.294,1.088,9.693,8.14,2.891,2.225,6.207-1.8-11-9.323-1.277-1.082-9.648-8.183-2.856-2.219-6.365,1.871Zm-37.54-.109,1.143,1.026,8.553,7.673,2.655,2.094,5.681-1.455-9.708-8.783-1.126-1.02-8.512-7.711-2.623-2.087-5.826,1.515Zm-37.539-.109.991.963,7.414,7.207,2.418,1.962,5.156-1.11-8.414-8.243-.976-.958-7.376-7.239-2.389-1.955-5.289,1.159Zm-37.539-.109.838.9,6.275,6.74,2.182,1.831,4.63-.766-7.12-7.7-.825-.9-6.24-6.767-2.156-1.823-4.75.8Zm-37.539-.109.686.838,5.136,6.274,1.945,1.7,4.1-.421-5.825-7.163-.675-.833-5.1-6.295-1.924-1.691-4.212.447ZM539.84,202.13l-1.691-1.559-3.673.091,4.568,6.611.534.776,4,5.807,1.707,1.568,3.579-.077-4.53-6.623-.525-.77Zm-37.953,5.748,2.858,5.34,1.471,1.436,3.054.269-3.237-6.084-.374-.708-2.831-5.352-1.457-1.427-3.136-.265,3.27,6.077Zm-35.972,4.7,1.234,1.3,2.528.613-1.942-5.543-.224-.646-1.695-4.88-1.224-1.3-2.6-.62,1.971,5.542.229.651Zm-38.831-.638,1,1.172,2,.958-.648-5-.073-.583-.559-4.408-.991-1.164-2.059-.976.673,5.008.077.589ZM391.035,203.7l-1.521-1.332-.627,4.474-.074.527-.559,3.941.761,1.041,1.477,1.3.646-4.463.077-.522.577-3.936Zm-39.687,3.033-1.925,3.939,1.476,2.556,1.941-3.923,1.94-3.924-1.507-2.588ZM852.4,195.994h8.284l-22.868-34.315-8.5.032Zm-60-32.761,21.425,31.843,7.945-.6L800.539,162.6Zm-17.152,30.924,7.606-1.207-19.581-29.434-7.787,1.239Zm-56.676-27.88,18.1,26.962,7.268-1.811-17.938-26.994ZM681.651,167.8l16.438,24.521,6.929-2.414-16.295-24.553Zm-36.914,1.522L659.512,191.4l6.591-3.018L651.45,166.272Zm-36.914,1.522,13.112,19.64,6.252-3.621L614.178,167.19Zm-36.914,1.523,11.45,17.2,5.913-4.225-11.366-17.232Zm-27.127,16.28,5.575-4.828-9.723-14.791-5.64,4.861Zm-46.7-13.236,8.125,12.318,5.236-5.432-8.079-12.35Zm-36.914,1.522,6.463,9.877,4.9-6.035-6.436-9.91Zm-36.914,1.522,4.8,7.437,4.559-6.639-4.794-7.47Zm-36.915,1.522,3.138,5,4.221-7.243-3.151-5.028ZM349.423,181.5l1.476,2.556,3.881-7.847-1.507-2.588Z" transform="translate(1000.58 95.314)" fill="url(#radial-gradient)"/>
    <path id="Path_176" data-name="Path 176" d="M-135.648,330.653l7.614.029-20.675,30.7h-7.419Zm14.371,29.368,7.115.54,19.187-28.517-7.3-.569Zm34.85-1.363,6.812,1.081,17.7-26.331-6.974-1.11Zm41.359.258,16.21-24.145-6.654-1.65-16.064,24.174Zm34.548-.822L4.2,336.133l-6.333-2.191-14.593,21.989Zm34.547-.822L37.259,337.5l-6.012-2.731-13.122,19.8Zm34.547-.823L70.317,338.86l-5.692-3.272L52.976,353.2Zm34.548-.822,10.253-15.4L98,336.41,87.826,351.842Zm38.261-18.392-8.707,13.246,4.993,4.324,8.766-13.217Zm38.11,5.716-4.73-4.893-7.235,11.06,4.689,4.865Zm33.058,1.363-4.409-5.434-5.765,8.875,4.387,5.405Zm33.058,1.364L231.52,339.7l-4.292,6.689,4.082,5.946Zm33.058,1.363-3.768-6.515-2.821,4.5,3.779,6.486Zm33.058,1.363-3.448-7.056-1.35,2.318,3.477,7.027Zm-440.6,51.527,16.629-8.126-6.581-3.833-16.55,8.188-16.551,8.187,6.425,3.709Zm18.507,7.6,3.344-1.679,11.925-6.124,1.593-.817,13.608-6.986-6.142-3.422-3.305,1.68-11.889,6.178-1.574.817-13.555,7.042Zm54.045-16.888L-77.1,396.567l-1.425.783L-90.8,404.1l5.567,2.912,3.1-1.607,10.8-5.873,1.444-.785,12.33-6.7-5.7-3.009Zm19.091,14.309,9.684-5.622,1.293-.751,11.053-6.41-5.265-2.6L-33.3,391.1l-9.652,5.665-1.276.75-11.007,6.453,5.139,2.513Zm34.9-.451,8.563-5.371,1.145-.718,9.775-6.122L2.318,390.1l-2.6,1.461-8.533,5.41-1.129.716-9.732,6.16,4.71,2.114Zm34.9-.451L30,398.932l.995-.684,8.5-5.833L35.1,390.638l-2.36,1.389-7.415,5.152-.98.682-8.458,5.865,4.281,1.716Zm34.9-.449,6.323-4.87.844-.65,7.22-5.545-3.949-1.366-2.125,1.316-6.3,4.9-.833.647L51.455,403.6l3.852,1.317Zm34.9-.451,5.2-4.618.7-.617,5.942-5.257-3.512-.955-1.888,1.243-5.178,4.641-.684.615-5.909,5.277,3.423.918Zm34.9-.451,4.082-4.366.545-.584,4.663-4.969-3.072-.544-1.652,1.171-4.059,4.384-.537.58-4.633,4.983,3,.519Zm39.005-9.928-1.415,1.1L161.9,398l-.388.547-3.359,4.69,2.566.121,1.427-1.1,2.962-4.116.4-.55,3.387-4.68Zm32.787.533-1.179,1.025-1.821,3.871-.241.513-2.085,4.395,2.137-.278,1.189-1.031,1.841-3.865.246-.517,2.109-4.391Zm32.786.533-.942.952-.7,3.616-.093.478-.81,4.1,1.708-.677.949-.959.72-3.613.1-.483.832-4.1Zm32.553,5.216.464,3.808,1.28-1.076.71-.886-.4-3.363-.054-.449-.446-3.816-1.318,1.1-.706.88.416,3.358Zm36.028,3.684,1.321-2.289L300,396.923l-1.725-3.528-1.35,2.318,1.738,3.513ZM-128.83,268.824l6.581-3.832-16.629-8.126-16.628-8.126-6.425,3.709,16.551,8.187Zm17.592-8.392,11.889,6.178,3.305,1.68,6.142-3.422-13.608-6.985-1.593-.819-11.925-6.124-3.344-1.678-6,3.31,13.555,7.041Zm34.142-.2,10.771,5.922,3.069,1.607,5.7-3.011-12.33-6.7-1.444-.785-10.8-5.873-3.1-1.607L-90.8,252.7l12.281,6.748Zm34.142-.2,9.652,5.667,2.833,1.534,5.265-2.6-11.053-6.41-1.293-.751-9.684-5.621-2.864-1.535-5.139,2.513,11.007,6.454Zm34.142-.2,8.533,5.409,2.6,1.461L7.144,264.5l-9.775-6.122-1.145-.717-8.563-5.372-2.625-1.462-4.71,2.114,9.732,6.159Zm34.142-.2,7.415,5.154,2.36,1.388,4.389-1.776L31,258.547,30,257.863l-7.443-5.12-2.386-1.39-4.281,1.715,8.458,5.865Zm34.142-.2,6.3,4.9,2.125,1.316,3.949-1.366-7.22-5.544-.844-.651-6.323-4.868-2.147-1.32-3.852,1.317,7.183,5.572Zm34.142-.2,5.178,4.641,1.888,1.243,3.512-.955-5.942-5.257-.7-.617-5.2-4.618L90.442,252.4l-3.423.918,5.909,5.278Zm34.142-.2,4.059,4.384,1.652,1.171,3.072-.544-4.663-4.969-.545-.584-4.082-4.366-1.667-1.175-3,.519,4.633,4.983Zm34.142-.2,2.94,4.128,1.415,1.1,2.634-.133-3.387-4.68-.4-.55-2.962-4.116-1.427-1.1-2.566.12,3.359,4.69Zm34.143-.2,1.821,3.872,1.179,1.024,2.2.279-2.109-4.393-.246-.517-1.841-3.865-1.189-1.031-2.137-.278,2.085,4.4Zm34.142-.2.7,3.615.942.952,1.757.69-.832-4.1-.1-.483-.72-3.614-.949-.959-1.708-.677.81,4.1Zm35.75,5.133.446-3.816.054-.449.4-3.362-.71-.887-1.28-1.076-.464,3.808-.055.445-.416,3.359.706.879ZM300,259.873l1.723-3.528-1.321-2.289-1.739,3.514-1.738,3.513,1.35,2.318ZM-153.567,384.2-138.6,373.31l14.964-10.891-7.145-2.631-14.877,10.936-14.878,10.938Zm38-2.917,10.721-8.126,1.432-1.085,12.233-9.27-6.664-2.313-2.976,2.223-10.675,8.174-1.413,1.081-12.171,9.316,6.5,2.229Zm31.974,1.54,2.8-2.112,9.7-7.708,1.3-1.029,11.071-8.791-6.182-1.994-2.767,2.1-9.658,7.751-1.278,1.026L-89.624,380.9Zm34.987-.689,2.589-1.993,8.681-7.291,1.159-.973,9.907-8.313-5.7-1.676-2.558,1.987-8.64,7.328-1.143.97-9.853,8.349Zm34.987-.689,2.377-1.876,7.661-6.872,1.022-.918,8.744-7.835L.965,362.586l-2.349,1.87-7.622,6.906-1.008.913-8.694,7.866Zm34.987-.689L23.53,379l6.64-6.454.888-.862,7.581-7.356L33.9,363.285l-2.141,1.751-6.6,6.483-.874.858-7.535,7.382Zm34.985-.689,1.954-1.64,5.62-6.037.751-.807,6.417-6.877-4.253-.719-1.931,1.632-5.589,6.061-.739.8-6.375,6.9Zm34.987-.689,1.741-1.522,4.6-5.619.615-.75,5.254-6.4-3.772-.4L98.054,366.2l-4.571,5.638-.6.747L87.662,379ZM127.646,372l-.47.69-4.057,5.931,3.2.068,1.529-1.4,3.58-5.2.478-.7L136,365.467l-3.29-.083-1.514,1.4Zm37.542-.068.342-.639,2.929-5.442-2.808.237-1.305,1.278-2.536,4.793-.334.635-2.9,5.447,2.735-.24,1.317-1.286Zm32.215,4.212,1.54-4.365.2-.584,1.765-4.963-2.326.555-1.1,1.161-1.517,4.37-.2.579-1.739,4.964,2.264-.549Zm34.775-.57.52-3.948.068-.527.6-4.485-1.844.874-.887,1.043-.5,3.948-.066.522-.581,4.48,1.793-.857Zm34.275-4.1-.067-.472-.561-4.005-1.363,1.193-.678.924.518,3.525.068.467.579,4,1.322-1.166.682-.932Zm33.954,5.247,1.321-2.289L300,370.9l-1.725-3.528-1.35,2.318,1.738,3.514ZM-153.567,272.607l-6.972,2.537,14.878,10.938,14.877,10.936,7.145-2.632L-138.6,283.5Zm50.151,12.129-1.432-1.086-10.721-8.125-3.012-2.229-6.5,2.229,12.171,9.316,1.413,1.081,10.675,8.174,2.976,2.222,6.664-2.312Zm33.618.1-1.3-1.031-9.7-7.706-2.8-2.112-6.03,1.92,11.013,8.833,1.278,1.025,9.658,7.751,2.767,2.106,6.182-1.994Zm33.618.1-1.159-.974-8.681-7.289-2.589-1.993-5.559,1.612,9.853,8.349,1.143.97,8.64,7.328,2.558,1.987,5.7-1.675Zm33.618.1-1.022-.918-7.661-6.872-2.377-1.876-5.088,1.3,8.694,7.866,1.008.913,7.622,6.906,2.349,1.868,5.218-1.357Zm33.619.1-.888-.862-6.64-6.455-2.164-1.757-4.618.995,7.535,7.382.874.858,6.6,6.483,2.141,1.751,4.736-1.038Zm33.618.1-.751-.807-5.62-6.037-1.954-1.64-4.146.686,6.375,6.9.739.8,5.589,6.061,1.931,1.632,4.253-.719Zm33.618.1-.615-.75-4.6-5.619-1.741-1.522-3.676.378,5.217,6.414.6.747,4.571,5.638,1.722,1.514,3.772-.4Zm32.906,4.7,1.514,1.4,3.29-.083-4.092-5.919-.478-.7-3.58-5.2-1.529-1.4-3.2.068,4.057,5.931.47.69Zm33.988-5.148-2.56-4.783-1.317-1.286-2.735-.24,2.9,5.447.334.634,2.536,4.793,1.305,1.279,2.808.237-2.929-5.442Zm32.215-4.212L196.3,279.5l-2.264-.549,1.739,4.964.2.579,1.517,4.37,1.1,1.16,2.326.556-1.765-4.963-.2-.584Zm34.775.57-.894-1.05-1.793-.857.581,4.48.066.523.5,3.948.887,1.043,1.844.874-.6-4.485-.068-.527Zm33.647,8.579.561-4.005.067-.472.5-3.53-.682-.932-1.322-1.166-.579,4-.068.467-.518,3.525.678.924ZM300,285.908l1.723-3.527-1.321-2.289-1.739,3.513-1.738,3.514,1.35,2.318Zm-448.712,9.612h-7.419l20.48,30.732,7.614-.029Zm34.548.823-7.115.54,19.007,28.545,7.3-.569Zm34.547.822-6.812,1.081,17.536,26.36,6.974-1.11Zm50.757,24.968-16.21-24.146-6.508,1.622,16.064,24.175ZM4.2,320.77l-14.72-21.959-6.206,2.162,14.593,21.988Zm33.058-1.363L24.027,299.633l-5.9,2.7,13.122,19.8Zm33.058-1.363L58.574,300.455l-5.6,3.243,11.649,17.618Zm33.058-1.364-10.253-15.4-5.3,3.784L98,320.493Zm24.294-14.58-4.993,4.324,8.707,13.246,5.052-4.353Zm41.824,11.854-7.277-11.032-4.689,4.865,7.235,11.061Zm33.058-1.364-5.788-8.845-4.387,5.405,5.765,8.874Zm33.058-1.363-4.3-6.66-4.082,5.946,4.292,6.689Zm33.058-1.363-2.81-4.475-3.779,6.486,2.821,4.5Zm33.058-1.364-1.321-2.288-3.477,7.027,1.35,2.317ZM-156.128,524.468h7.419l20.675-30.7-7.614-.029Zm41.967-.823,19.187-28.516-7.3-.569L-121.277,523.1Zm27.735-1.9,6.812,1.081,17.7-26.331-6.974-1.11Zm41.359.259,16.21-24.146-6.654-1.65-16.064,24.175Zm34.548-.822L4.2,499.218l-6.333-2.191-14.593,21.989Zm34.547-.823,13.231-19.774-6.012-2.731-13.122,19.8Zm34.547-.822,11.743-17.589-5.692-3.272L52.976,516.29Zm34.548-.822,10.253-15.4L98,499.5,87.826,514.926Zm38.261-18.393-8.707,13.246,4.993,4.324,8.766-13.217Zm38.11,5.716-4.73-4.893L157.527,512.2l4.689,4.865Zm33.058,1.364-4.409-5.434-5.765,8.874,4.387,5.406Zm33.058,1.363-4.089-5.975-4.292,6.689,4.082,5.946Zm33.058,1.363-3.768-6.515-2.821,4.5,3.779,6.486Zm33.058,1.364-3.448-7.056-1.35,2.318,3.477,7.027ZM-128.83,551.055l-16.55,8.187-16.551,8.187,6.425,3.709,16.628-8.126,16.629-8.126Zm32.786.533-3.305,1.679-11.889,6.178-1.574.817-13.555,7.042,6,3.31,3.344-1.679,11.925-6.123,1.593-.819,13.608-6.986Zm29.718,2.141L-77.1,559.65l-1.425.784L-90.8,567.182l5.567,2.911,3.1-1.606,10.8-5.873,1.444-.785,12.33-6.7-5.7-3.011Zm19.091,14.308,9.684-5.622,1.293-.75,11.053-6.41-5.265-2.6-2.833,1.534-9.652,5.665-1.276.75-11.007,6.454,5.139,2.513Zm34.9-.451,8.563-5.37,1.145-.718,9.775-6.121-4.826-2.188-2.6,1.462-8.533,5.409-1.129.716-9.732,6.16,4.71,2.114Zm34.9-.449L30,562.016l.995-.684,8.5-5.833L35.1,553.721l-2.36,1.389-7.415,5.154-.98.682-8.458,5.865,4.281,1.715Zm34.9-.451,6.323-4.868.844-.651,7.22-5.545-3.949-1.365-2.125,1.315-6.3,4.9-.833.648-7.183,5.572L55.307,568Zm34.9-.451,5.2-4.618.7-.616,5.942-5.258-3.512-.954-1.888,1.243-5.178,4.641-.684.614-5.909,5.278,3.423.918Zm34.9-.449,4.082-4.367.545-.584,4.663-4.968-3.072-.544-1.652,1.17-4.059,4.384-.537.58-4.633,4.985,3,.519Zm37.59-8.832-2.94,4.128-.388.547-3.359,4.69,2.566.12,1.427-1.1,2.962-4.116.4-.55,3.387-4.68-2.634-.133Zm33.023.46-1.821,3.871-.241.513-2.085,4.4,2.137-.279,1.189-1.031,1.841-3.864.246-.517,2.109-4.393-2.2.278Zm33.024.46-.7,3.616-.093.478-.81,4.1,1.708-.677.949-.958.72-3.613.1-.483.832-4.1-1.757.689Zm35.494,2.3-.446-3.816-1.318,1.1-.706.878.416,3.359.055.445.464,3.806,1.28-1.075.71-.887-.4-3.363Zm34.029,5.651,1.321-2.288L300,560.006l-1.725-3.527-1.35,2.317,1.738,3.514ZM-128.83,431.908l6.581-3.832-16.629-8.126-16.628-8.126-6.425,3.709,16.551,8.187Zm16.018-9.208,1.574.817,11.889,6.178,3.305,1.679,6.142-3.421-13.608-6.986-1.593-.819-11.925-6.123-3.344-1.679-6,3.31Zm41.485-2.35-10.8-5.874-3.1-1.606-5.567,2.911,12.281,6.748,1.425.784,10.771,5.922,3.069,1.607,5.7-3.009-12.33-6.7Zm28.372,2.759,9.652,5.665,2.833,1.534,5.265-2.6-11.053-6.41-1.293-.75-9.684-5.622-2.864-1.535-5.139,2.513,11.007,6.454Zm34.142-.2,8.533,5.41,2.6,1.461,4.826-2.188-9.775-6.121-1.145-.718-8.563-5.37-2.625-1.463-4.71,2.114,9.732,6.16Zm34.142-.205,7.415,5.154,2.36,1.389,4.389-1.777L31,421.631,30,420.946l-7.443-5.12-2.386-1.39-4.281,1.715,8.458,5.867Zm34.142-.2,6.3,4.9,2.125,1.316,3.949-1.366-7.22-5.545-.844-.651-6.323-4.868-2.147-1.318-3.852,1.316,7.183,5.572Zm34.142-.205,5.178,4.641,1.888,1.243,3.512-.954-5.942-5.257-.7-.617-5.2-4.618-1.908-1.248-3.423.918,5.909,5.278Zm34.142-.2,4.059,4.384,1.652,1.17,3.072-.544-4.663-4.968-.545-.584-4.082-4.367L125.579,416l-3,.52,4.633,4.983Zm37.744.207-.4-.55-2.962-4.116-1.427-1.1-2.566.121,3.359,4.688.388.547,2.94,4.128,1.415,1.1,2.634-.133Zm33.626.165-.246-.517-1.841-3.864-1.189-1.031-2.137-.278,2.085,4.395.241.513,1.821,3.871,1.179,1.025,2.2.278Zm33.625.165-.1-.482-.72-3.615-.949-.958-1.708-.677.81,4.1.093.478.7,3.616.942.952,1.757.689Zm31.862,2.882,1.318,1.1.446-3.816.054-.449.4-3.363-.71-.887-1.28-1.075-.464,3.808-.055.445-.416,3.358ZM300,422.956l1.723-3.527-1.321-2.289-1.739,3.513-1.738,3.514,1.35,2.318ZM-153.567,547.283l14.964-10.89,14.964-10.89-7.145-2.632-14.877,10.938-14.878,10.936Zm34.987-.689,3.012-2.229,10.721-8.125,1.432-1.086,12.233-9.269-6.664-2.313-2.976,2.223-10.675,8.173-1.413,1.081-12.171,9.316Zm34.985-.689,2.8-2.111,9.7-7.708,1.3-1.03,11.071-8.792-6.182-1.993-2.767,2.1-9.658,7.751-1.278,1.025-11.013,8.833Zm34.987-.689,2.589-1.993,8.681-7.289,1.159-.974,9.907-8.313-5.7-1.675-2.558,1.987-8.64,7.328-1.143.97-9.853,8.349Zm34.987-.689,2.377-1.876,7.661-6.871,1.022-.918,8.744-7.835L.965,525.67l-2.349,1.868-7.622,6.906-1.008.913-8.694,7.866Zm34.987-.689,2.164-1.757,6.64-6.454.888-.863,7.581-7.355L33.9,526.37l-2.141,1.75-6.6,6.484-.874.857-7.535,7.383Zm34.985-.689,1.954-1.64,5.62-6.036.751-.807,6.417-6.878-4.253-.719L64.908,528.7l-5.589,6.061-.739.8-6.375,6.9Zm34.987-.689,1.741-1.521,4.6-5.619.615-.751,5.254-6.4-3.772-.4-1.722,1.515-4.571,5.638-.6.745-5.217,6.414Zm36.309-7.379-.47.69-4.057,5.931,3.2.068,1.529-1.4,3.58-5.2.478-.694L136,528.55l-3.29-.083-1.514,1.4Zm37.542-.068.342-.639,2.929-5.441-2.808.236-1.305,1.279-2.536,4.793-.334.634-2.9,5.447,2.735-.24,1.317-1.286Zm32.215,4.213,1.54-4.366.2-.582,1.765-4.964-2.326.556-1.1,1.16-1.517,4.37-.2.579-1.739,4.964,2.264-.549Zm34.775-.572.52-3.948.068-.527.6-4.485-1.844.874-.887,1.043-.5,3.948-.066.523-.581,4.481,1.793-.858Zm34.208-4.572-.561-4.007-1.363,1.193-.678.924.518,3.526.068.466.579,4,1.322-1.166.682-.932-.5-3.53Zm34.021,5.718,1.321-2.288L300,533.982l-1.725-3.527-1.35,2.318,1.738,3.513ZM-153.567,435.692l-6.972,2.537,14.878,10.936,14.877,10.936,7.145-2.631-14.964-10.89Zm40.657,12.233,1.413,1.081,10.675,8.174,2.976,2.223,6.664-2.313-12.233-9.269-1.432-1.086-10.721-8.126-3.012-2.228-6.5,2.228Zm43.112-.007-1.3-1.029-9.7-7.708-2.8-2.111-6.03,1.92,11.013,8.832,1.278,1.026,9.658,7.751,2.767,2.1,6.182-1.994Zm33.618.1-1.159-.974-8.681-7.29-2.589-1.992-5.559,1.611,9.853,8.349,1.143.97,8.64,7.329L-31.973,458l5.7-1.675Zm33.618.1-1.022-.918-7.661-6.872-2.377-1.874-5.088,1.3,8.694,7.865,1.008.914,7.622,6.906L.965,457.3l5.218-1.357Zm33.619.1-.888-.863-6.64-6.454-2.164-1.757-4.618.994,7.535,7.383.874.857,6.6,6.483L33.9,456.6l4.736-1.038Zm33.618.1-.751-.807-5.62-6.036-1.954-1.64-4.146.686,6.375,6.9.739.8,5.589,6.06,1.931,1.632,4.253-.719Zm33.618.1-.615-.751-4.6-5.619-1.741-1.521-3.676.376,5.217,6.414.6.747,4.571,5.638,1.722,1.515,3.772-.4Zm32.906,4.7,1.514,1.4,3.29-.081-4.092-5.921-.478-.7-3.58-5.2-1.529-1.4-3.2.068,4.057,5.931.47.689Zm33.988-5.148-2.56-4.782-1.317-1.286-2.735-.241,2.9,5.448.334.634,2.536,4.793,1.305,1.279,2.808.236L165.53,448.6ZM197.4,443.75l-1.105-1.167-2.264-.549L195.773,447l.2.578,1.517,4.371,1.1,1.16,2.326.555-1.765-4.963-.2-.584Zm34.775.572-.894-1.05-1.793-.858.581,4.481.066.523.5,3.948.887,1.042,1.844.875-.6-4.485-.068-.529Zm32.284,7.386,1.363,1.193.561-4.007.067-.472.5-3.53-.682-.931-1.322-1.166-.579,4-.068.466-.518,3.525ZM300,448.993l1.723-3.528-1.321-2.289-1.739,3.514-1.738,3.513,1.35,2.318ZM-148.709,458.6h-7.419l20.48,30.731,7.614-.029Zm53.735,29.339-19.187-28.517-7.115.54,19.007,28.546Zm15.36-27.695-6.812,1.081,17.536,26.36,6.974-1.11Zm50.757,24.968-16.21-24.145-6.508,1.622,16.064,24.174ZM4.2,483.855l-14.72-21.96-6.206,2.162,14.593,21.989Zm33.058-1.364L24.027,462.717l-5.9,2.7,13.122,19.8Zm33.058-1.363L58.574,463.54l-5.6,3.243L64.625,484.4Zm33.058-1.363-10.253-15.4-5.3,3.784L98,483.578Zm24.294-14.581-4.993,4.324,8.707,13.246,5.052-4.353Zm41.824,11.854-7.277-11.031-4.689,4.865,7.235,11.06Zm33.058-1.363-5.788-8.846-4.387,5.405,5.765,8.875Zm33.058-1.364-4.3-6.66-4.082,5.946,4.292,6.689Zm33.058-1.363-2.81-4.474-3.779,6.486,2.821,4.5Zm33.058-1.363-1.321-2.289-3.477,7.027,1.35,2.318Z" transform="translate(1031.277 -11.138)" fill="url(#radial-gradient-2)"/>
  </g>
</svg>
