<svg xmlns="http://www.w3.org/2000/svg" xmlns:xlink="http://www.w3.org/1999/xlink" width="586.767" height="378" viewBox="0 0 586.767 378">
  <defs>
    <radialGradient id="radial-gradient" cx="0.568" cy="0.354" r="0.637" gradientTransform="matrix(-0.695, 0, 0, 1, 0.943, 0)" gradientUnits="objectBoundingBox">
      <stop offset="0" stop-color="#01eb9c"/>
      <stop offset="1" stop-color="#f7fafb" stop-opacity="0"/>
    </radialGradient>
  </defs>
  <path id="Path_178" data-name="Path 178" d="M476.3,340.495l9.637-.034-26.165-36h-9.389Zm18.187-34.433,9-.634,24.282,33.435-9.231.667Zm44.1,1.6,8.621-1.267,22.4,30.872-8.825,1.3Zm52.342-.3,20.512,28.31-8.42,1.934-20.33-28.343Zm43.72.964,18.63,25.748-8.015,2.568L626.8,310.856Zm43.721.965,16.745,23.185-7.609,3.2L670.9,312.454Zm43.719.964,14.861,20.622-7.2,3.837-14.744-20.656Zm43.721.965,12.977,18.059-6.8,4.47L759.11,315.651Zm48.422,21.565-11.019-15.531,6.318-5.069,11.093,15.5Zm48.228-6.7-5.986,5.737-9.157-12.968,5.934-5.7Zm41.836-1.6-5.581,6.371-7.294-10.405,5.55-6.337Zm41.836-1.6-5.175,7-5.432-7.842,5.167-6.971Zm41.836-1.6-4.768,7.639-3.571-5.28,4.783-7.605Zm41.837-1.6-4.363,8.272-1.708-2.717,4.4-8.238ZM472.212,259.272l21.042,9.527-8.328,4.493-20.944-9.6-20.945-9.6,8.131-4.349Zm23.42-8.916,4.232,1.969,15.091,7.18,2.016.96,17.221,8.19-7.774,4.012-4.183-1.97-15.046-7.244-1.991-.959-17.154-8.256Zm68.394,19.8L550.4,263.214l-1.8-.919-15.541-7.912,7.046-3.414,3.928,1.884,13.674,6.886,1.827.92,15.6,7.853-7.218,3.529Zm24.16-16.775,12.256,6.591,1.637.881,13.988,7.515-6.663,3.047-3.586-1.8L593.6,262.974l-1.616-.88-13.929-7.566,6.5-2.946Zm44.163.527,10.837,6.3,1.447.841L657,268.224l-6.108,2.565-3.287-1.713-10.8-6.343-1.429-.839-12.316-7.222,5.96-2.479Zm44.161.528,9.419,6,1.258.8,10.754,6.839-5.553,2.084-2.987-1.629-9.383-6.042-1.242-.8-10.7-6.878,5.418-2.012Zm44.162.528,8,5.708,1.069.763,9.137,6.5-5,1.6L731.193,268l-7.968-5.741-1.054-.76-9.089-6.532,4.875-1.545Zm44.161.527,6.583,5.415.879.724,7.52,6.163-4.443,1.119-2.389-1.457-6.553-5.441-.866-.719-7.478-6.188,4.333-1.077ZM809,256.02l5.165,5.12.69.685,5.9,5.825-3.888.637-2.09-1.371-5.136-5.141-.679-.68-5.865-5.843,3.791-.608Zm49.361,11.641-1.791-1.286-3.721-4.839-.492-.641-4.251-5.5,3.247-.141,1.808,1.293,3.747,4.826.5.645,4.286,5.487Zm41.492-.625-1.492-1.2-2.305-4.539-.3-.6-2.638-5.153,2.705.327,1.5,1.209,2.329,4.531.312.606,2.669,5.15Zm41.492-.626-1.192-1.116-.89-4.239-.117-.561-1.027-4.809,2.162.794,1.2,1.124.912,4.238.121.566,1.052,4.812Zm41.2-6.115.587-4.465,1.62,1.261.9,1.039-.505,3.943-.068.527-.566,4.474-1.668-1.29-.893-1.03.526-3.939Zm45.594-4.32,1.673,2.684-2.182,4.136-2.182,4.136-1.708-2.717,2.2-4.119ZM484.927,412.987l8.328,4.493-21.042,9.527-21.044,9.528-8.131-4.349,20.945-9.6Zm22.263,9.838,15.046-7.244,4.183-1.97,7.774,4.012-17.221,8.19-2.016.96-15.091,7.18-4.232,1.969-7.588-3.882,17.154-8.256Zm43.207.239,13.629-6.944,3.885-1.884,7.218,3.529-15.6,7.853-1.827.92-13.674,6.886-3.928,1.884-7.046-3.414,15.541-7.912Zm43.207.241,12.214-6.643,3.586-1.8,6.663,3.047-13.988,7.515-1.637.881L588.187,432.9l-3.626,1.8-6.5-2.946,13.929-7.566Zm43.207.239,10.8-6.343,3.287-1.713L657,418.054l-12.37,7.177-1.447.842-10.837,6.3-3.323,1.715-5.96-2.479,12.316-7.222Zm43.207.239,9.383-6.042,2.987-1.629,5.553,2.084-10.754,6.839-1.258.8-9.419,6-3.019,1.631-5.418-2.012,10.7-6.877Zm43.206.239,7.968-5.741,2.688-1.542,5,1.6-9.137,6.5-1.069.763-8,5.708-2.717,1.547-4.875-1.545,9.089-6.532Zm43.207.241,6.553-5.441,2.389-1.457,4.443,1.119-7.52,6.163-.879.724-6.583,5.414-2.413,1.463-4.333-1.077,7.478-6.188Zm43.207.239,5.136-5.141,2.09-1.371,3.888.637-5.9,5.825-.69.685L809,430.258l-2.11,1.377-3.791-.608,5.865-5.843Zm43.207.239,3.721-4.839,1.791-1.287,3.334.156-4.286,5.487-.5.645-3.747,4.826-1.808,1.293-3.247-.141,4.251-5.5Zm43.207.239,2.305-4.539,1.492-1.2,2.779-.327-2.669,5.15-.312.606L897.32,429.2l-1.5,1.209-2.705.327,2.638-5.153Zm43.207.24.89-4.239,1.192-1.116,2.224-.809-1.052,4.812-.121.566-.912,4.238-1.2,1.124-2.162.794,1.027-4.809ZM984.5,419.2l.566,4.474.068.527.505,3.943-.9,1.04-1.62,1.261-.587-4.465-.07-.521-.526-3.939.893-1.03Zm43.12,4.28,2.182,4.136-1.673,2.684-2.2-4.119-2.2-4.119,1.708-2.717Zm-574-145.768,18.938,12.767L491.5,303.249l-9.043,3.085-18.828-12.823L444.8,280.689Zm48.088,3.421,13.567,9.527,1.812,1.273L532.571,302.8l-8.433,2.711-3.766-2.606-13.51-9.582-1.787-1.268-15.4-10.922,8.227-2.613Zm40.463-1.806,3.545,2.476,12.275,9.036,1.64,1.207,14.009,10.308-7.823,2.337-3.5-2.467L550.1,293.139l-1.616-1.2L534.543,281.58Zm44.276.808,3.277,2.336,10.984,8.547,1.468,1.142,12.538,9.746-7.214,1.965-3.237-2.329-10.934-8.592-1.447-1.137-12.469-9.789Zm44.276.809,3.008,2.2,9.695,8.058,1.3,1.076,11.065,9.185-6.6,1.591-2.973-2.191-9.647-8.1-1.276-1.071-11-9.222Zm44.276.807,2.74,2.06,8.4,7.567,1.123,1.011,9.594,8.625-5.994,1.217-2.708-2.053-8.36-7.6-1.106-1.006-9.536-8.655Zm44.276.807,2.472,1.923,7.113,7.077.95.946,8.121,8.064-5.383.843-2.445-1.914-7.071-7.106-.936-.94-8.068-8.088Zm44.276.808,2.2,1.784,5.821,6.588.778.88,6.65,7.5-4.774.47-2.18-1.776-5.783-6.611-.765-.875-6.6-7.521Zm45.95,8.652-.6-.81-5.135-6.954,4.056-.08,1.936,1.645,4.531,6.1.6.815,5.178,6.942-4.164.1L814,298.136Zm47.509.08.433.749,3.706,6.381-3.554-.278-1.651-1.5-3.208-5.62-.424-.743-3.669-6.387,3.46.281,1.668,1.508Zm40.768-4.938,1.948,5.118.261.684,2.234,5.82-2.943-.652-1.387-1.36-1.921-5.124-.254-.678-2.2-5.82,2.864.643Zm44.008.67.657,4.627.087.618.763,5.258-2.335-1.025-1.122-1.222-.633-4.628-.084-.612-.733-5.253,2.269,1Zm43.374,4.808-.085.553-.71,4.7-1.724-1.4-.858-1.084.654-4.133.087-.547.732-4.686,1.674,1.367.862,1.092Zm42.969-6.152,1.673,2.683-2.182,4.137-2.182,4.136-1.708-2.717,2.2-4.119ZM453.622,408.551l-8.822-2.975,18.827-12.824,18.828-12.823,9.043,3.085L472.56,395.783ZM517.09,394.33l-1.812,1.274-13.567,9.527-3.812,2.612-8.227-2.612,15.4-10.923,1.787-1.267,13.51-9.583,3.766-2.606,8.433,2.711Zm42.544-.114-1.64,1.208-12.275,9.037-3.545,2.475-7.631-2.251,13.937-10.356,1.616-1.2,12.223-9.088,3.5-2.467,7.823,2.338Zm42.544-.114-1.468,1.142-10.984,8.547-3.277,2.336-7.034-1.889,12.469-9.789,1.447-1.137,10.934-8.591,3.237-2.33,7.214,1.965Zm42.545-.114-1.3,1.076-9.695,8.058-3.008,2.2-6.438-1.528,11-9.222,1.276-1.071,9.647-8.1,2.973-2.191,6.6,1.591Zm42.544-.114-1.123,1.011-8.4,7.567-2.74,2.06-5.843-1.166,9.536-8.655,1.106-1.006,8.36-7.6,2.708-2.053,5.994,1.217Zm42.544-.114-.95.946-7.113,7.077-2.472,1.923-5.247-.8,8.068-8.088.936-.94,7.071-7.107,2.445-1.914,5.383.844Zm42.544-.114-.778.88-5.821,6.588-2.2,1.784-4.651-.442,6.6-7.521.765-.875,5.783-6.61,2.18-1.776,4.774.469ZM814,388.129l1.915-1.637,4.164.1-5.178,6.942-.6.815-4.531,6.1-1.936,1.646-4.056-.081,5.135-6.954.6-.809Zm43.013,6.036-3.239,5.607-1.668,1.508-3.46.281,3.669-6.387.424-.743,3.208-5.62,1.651-1.5,3.554-.278-3.706,6.381Zm40.768,4.938-1.4,1.369-2.864.643,2.2-5.82.254-.678,1.921-5.124,1.387-1.36,2.943-.651L899.99,393.3l-.261.683Zm44.008-.67-1.131,1.231-2.269,1.006.733-5.254.084-.612.633-4.629,1.122-1.222,2.335-1.025-.763,5.258-.087.618Zm42.579-10.059.71,4.7.085.553.634,4.138-.862,1.093-1.674,1.367-.732-4.686-.087-.548-.654-4.133.858-1.084Zm43.255,4.583,2.182,4.136-1.673,2.684-2.2-4.119-2.2-4.12,1.708-2.717ZM459.77,381.686h-9.389L476.3,345.655l9.637.034Zm43.719-.964-9-.634,24.055-33.469,9.231.668Zm43.721-.965-8.621-1.267,22.193-30.906,8.825,1.3Zm64.233-29.274-20.512,28.31-8.237-1.9,20.33-28.344Zm41.837,1.6-18.63,25.747-7.853-2.535,18.468-25.781Zm41.836,1.6-16.745,23.185L670.9,373.7l16.606-23.219Zm41.836,1.6L722.091,375.9l-7.085-3.8,14.744-20.656Zm41.836,1.6-12.977,18.06-6.7-4.436,12.881-18.094Zm30.744,17.1-6.318-5.069,11.019-15.531,6.392,5.1Zm52.929-13.9-9.209,12.934-5.934-5.7,9.157-12.969Zm41.836,1.6-7.325,10.371-5.55-6.337,7.294-10.406Zm41.836,1.6-5.44,7.809-5.167-6.972,5.432-7.842Zm41.836,1.6-3.556,5.246-4.783-7.605,3.571-5.279Zm41.837,1.6-1.673,2.684-4.4-8.239,1.708-2.717ZM450.382,113.253h9.389l26.165,36-9.637.034Zm53.108.964,24.282,33.435-9.231.668-24.055-33.469Zm35.1,2.232,8.621-1.267,22.4,30.872-8.825,1.3Zm52.342-.3,20.512,28.31-8.42,1.935-20.33-28.344Zm43.72.965,18.63,25.747-8.015,2.568L626.8,119.645Zm43.721.964,16.745,23.185-7.609,3.2L670.9,121.243Zm43.719.965,14.861,20.622-7.2,3.836-14.744-20.656Zm43.721.964,12.977,18.06-6.8,4.47L759.11,124.439Zm48.422,21.565-11.019-15.531,6.318-5.069,11.093,15.5Zm48.228-6.7-5.986,5.738-9.157-12.969,5.934-5.7Zm41.836-1.6-5.581,6.371-7.294-10.4,5.55-6.338Zm41.836-1.6-5.175,7.006-5.432-7.842,5.167-6.972Zm41.836-1.6L983.2,137.71l-3.571-5.279,4.783-7.605Zm41.837-1.6-4.363,8.273-1.708-2.717,4.4-8.239ZM484.927,82.081l-20.944-9.6-20.945-9.6,8.131-4.349,21.044,9.527,21.042,9.527Zm41.492-.626-4.183-1.97L507.19,72.242l-1.991-.959-17.154-8.256,7.588-3.881,4.232,1.969,15.091,7.179,2.016.96,17.221,8.191Zm37.607-2.509L550.4,72l-1.8-.919-15.541-7.912,7.046-3.414,3.928,1.884L557.7,68.528l1.827.92,15.6,7.853-7.218,3.529Zm24.16-16.776,12.256,6.591,1.637.881,13.988,7.515L609.4,80.2l-3.586-1.8L593.6,71.763l-1.616-.879L578.06,63.317l6.5-2.946Zm44.163.528L643.187,69l1.447.841L657,77.013,650.9,79.579l-3.287-1.714-10.8-6.342-1.429-.84-12.316-7.222,5.96-2.479Zm44.161.527,9.419,6,1.258.8,10.754,6.84-5.553,2.083L689.4,77.326l-9.383-6.043-1.242-.8-10.7-6.877,5.418-2.011Zm44.162.528,8,5.709,1.069.762,9.137,6.5-5,1.6-2.688-1.542-7.968-5.741-1.054-.76-9.089-6.532,4.875-1.543Zm44.161.528,6.583,5.414.879.723,7.52,6.164-4.443,1.12-2.389-1.458-6.553-5.44-.866-.72L758.089,63.9l4.333-1.076ZM809,64.81l5.165,5.12.69.684,5.9,5.825-3.888.638-2.09-1.372-5.136-5.141-.679-.679L803.1,64.041l3.791-.609Zm47.57,10.355-3.721-4.84-.492-.641-4.251-5.5,3.247-.142,1.808,1.293,3.747,4.826.5.645,4.286,5.488-3.334.155Zm41.792-.541-2.305-4.539-.3-.6-2.638-5.153,2.705.325,1.5,1.209,2.329,4.531.312.606,2.669,5.15-2.779-.327Zm41.792-.54-.89-4.239-.117-.562-1.027-4.808,2.162.794,1.2,1.124.912,4.237.121.566,1.052,4.812-2.224-.809Zm44.919-2.694-.566,4.474-1.668-1.289-.893-1.031.526-3.939.07-.521.587-4.465,1.62,1.262.9,1.04-.505,3.942Zm43.063-6.625,1.673,2.684-2.182,4.136-2.182,4.137L1023.734,73l2.2-4.119ZM484.927,221.775l8.328,4.493L472.212,235.8l-21.044,9.527-8.131-4.349,20.945-9.6Zm20.272,10.8,1.991-.959,15.046-7.244,4.183-1.969,7.774,4.011L516.972,234.6l-2.016.959-15.091,7.18-4.232,1.969-7.588-3.882Zm52.5,2.756-13.674,6.885L540.1,244.1l-7.046-3.415,15.541-7.911,1.8-.919,13.629-6.944,3.885-1.885,7.218,3.53-15.6,7.853Zm35.905-3.235,12.214-6.643,3.586-1.8,6.663,3.047-13.988,7.516-1.637.88-12.256,6.592-3.626,1.8-6.5-2.947,13.929-7.566Zm43.207.239,10.8-6.342,3.287-1.714L657,226.843l-12.37,7.178-1.447.841-10.837,6.3-3.323,1.715-5.96-2.478,12.316-7.223Zm43.207.239,9.383-6.042,2.987-1.627,5.553,2.083-10.754,6.839-1.258.8-9.419,6-3.019,1.631-5.418-2.011,10.7-6.878Zm43.206.24,7.968-5.741,2.688-1.544,5,1.6-9.137,6.5-1.069.762-8,5.709-2.717,1.546-4.875-1.544,9.089-6.533Zm43.207.239,6.553-5.441,2.389-1.457,4.443,1.119-7.52,6.163-.879.725-6.583,5.414-2.413,1.462-4.333-1.076,7.478-6.188Zm43.207.239,5.136-5.14,2.09-1.372,3.888.637-5.9,5.825-.69.685L809,239.047l-2.11,1.378-3.791-.609,5.865-5.843Zm47.767-.244-.5.646-3.747,4.825-1.808,1.294-3.247-.142,4.251-5.5.492-.64,3.721-4.839,1.791-1.286,3.334.155Zm42.554-.194-.312.606-2.329,4.532-1.5,1.207-2.705.327,2.638-5.153.3-.6,2.305-4.54,1.492-1.2,2.779-.325Zm42.554-.194-.121.567-.912,4.237-1.2,1.124-2.162.794,1.027-4.809.117-.561.89-4.239,1.192-1.116,2.224-.809Zm40.321-3.378,1.668-1.29.566,4.474.068.527.505,3.943-.9,1.039-1.62,1.261-.587-4.464-.07-.522-.526-3.937Zm44.788,2.989,2.182,4.136-1.673,2.684-2.2-4.119-2.2-4.119,1.708-2.717ZM453.622,86.5,472.56,99.271,491.5,112.038l-9.043,3.086L463.627,102.3,444.8,89.478Zm44.276.807,3.812,2.613,13.567,9.527,1.812,1.273,15.481,10.869-8.433,2.711-3.766-2.606-13.51-9.582-1.787-1.268-15.4-10.922Zm44.276.808,3.545,2.475,12.275,9.036,1.64,1.208,14.009,10.308-7.823,2.337-3.5-2.468L550.1,101.928l-1.616-1.2L534.543,90.37Zm44.276.807,3.277,2.337,10.984,8.547,1.468,1.141,12.538,9.747-7.214,1.964-3.237-2.329-10.934-8.592-1.447-1.136-12.469-9.789Zm44.276.808,3.008,2.2,9.695,8.057,1.3,1.076,11.065,9.185-6.6,1.591-2.973-2.19-9.647-8.1-1.276-1.072-11-9.221ZM675,90.542l2.74,2.061,8.4,7.566,1.123,1.011,9.594,8.625-5.994,1.217-2.708-2.053-8.36-7.6-1.106-1.006-9.536-8.655Zm44.276.809,2.472,1.922,7.113,7.078.95.946,8.121,8.063-5.383.843-2.445-1.914-7.071-7.105-.936-.941-8.068-8.088Zm44.276.807,2.2,1.784,5.821,6.588.778.88,6.65,7.5-4.774.469-2.18-1.776L766.269,101l-.765-.875L758.9,92.6Zm45.95,8.652-.6-.81-5.135-6.954,4.056-.08,1.936,1.645,4.531,6.1.6.815,5.178,6.942-4.164.1L814,106.925Zm47.509.08.433.75,3.706,6.38-3.554-.277-1.651-1.5-3.208-5.62-.424-.743-3.669-6.387,3.46.281,1.668,1.508Zm40.768-4.938,1.948,5.118.261.685,2.234,5.819-2.943-.651-1.387-1.361-1.921-5.124-.254-.678-2.2-5.82,2.864.644Zm44.008.67.657,4.628.087.618.763,5.258-2.335-1.025-1.122-1.222-.633-4.628-.084-.613-.733-5.253,2.269,1Zm43.289,5.361-.71,4.7-1.724-1.4-.858-1.084.654-4.134.087-.547.732-4.686,1.674,1.367.862,1.093-.634,4.138Zm43.054-6.705,1.673,2.684-2.182,4.136-2.182,4.136-1.708-2.717,2.2-4.119ZM453.622,217.34l-8.822-2.975,18.827-12.824,18.828-12.823L491.5,191.8,472.56,204.572ZM505.074,203l1.787-1.267,13.51-9.583,3.766-2.606,8.433,2.712L517.09,203.12l-1.812,1.273-13.567,9.527-3.812,2.613-8.227-2.613Zm54.56.009-1.64,1.208-12.275,9.036-3.545,2.475-7.631-2.251,13.937-10.356,1.616-1.2,12.223-9.087,3.5-2.469,7.823,2.338Zm42.544-.114-1.468,1.141-10.984,8.547-3.277,2.337-7.034-1.89,12.469-9.788,1.447-1.137,10.934-8.592,3.237-2.33,7.214,1.965Zm42.545-.116-1.3,1.077-9.695,8.057-3.008,2.2-6.438-1.528,11-9.222,1.276-1.071,9.647-8.1,2.973-2.19,6.6,1.59Zm42.544-.114-1.123,1.012-8.4,7.566L675,213.3l-5.843-1.167,9.536-8.655,1.106-1,8.36-7.6,2.708-2.052,5.994,1.217Zm42.544-.114-.95.946-7.113,7.077-2.472,1.923-5.247-.8L722.1,203.6l.936-.941,7.071-7.105,2.445-1.914,5.383.843Zm42.544-.114-.778.881-5.821,6.588-2.2,1.783-4.651-.441,6.6-7.521.765-.875,5.783-6.611,2.18-1.776,4.774.469ZM814,196.918l1.915-1.637,4.164.1-5.178,6.942-.6.815-4.531,6.1-1.936,1.645-4.056-.08,5.135-6.954.6-.81Zm43.013,6.035-3.239,5.608-1.668,1.508-3.46.281,3.669-6.387.424-.744,3.208-5.619,1.651-1.5,3.554-.277-3.706,6.38Zm40.768,4.938-1.4,1.369-2.864.644,2.2-5.82.254-.678,1.921-5.124,1.387-1.361,2.943-.651-2.234,5.819-.261.684Zm44.008-.67-1.131,1.231-2.269,1.006.733-5.253.084-.613.633-4.628,1.122-1.222,2.335-1.025-.763,5.258-.087.618Zm40.856-8.66,1.724-1.4.71,4.7.085.553.634,4.138-.862,1.093-1.674,1.367-.732-4.686-.087-.547-.654-4.134Zm44.979,3.185,2.182,4.136-1.673,2.684-2.2-4.119-2.2-4.119,1.708-2.717ZM459.77,190.476h-9.389L476.3,154.444l9.637.034Zm68-34.4L503.49,189.511l-9-.633,24.055-33.469Zm19.439,32.471-8.621-1.268,22.193-30.906,8.825,1.3Zm64.233-29.274-20.512,28.309-8.237-1.9,20.33-28.343Zm41.837,1.6-18.63,25.748-7.853-2.536L645.265,158.3Zm41.836,1.6-16.745,23.185-7.47-3.169,16.606-23.218Zm41.836,1.6-14.861,20.622-7.085-3.8,14.744-20.656Zm41.836,1.6-12.977,18.059-6.7-4.436L771.991,161.2Zm30.744,17.094-6.318-5.069,11.019-15.531,6.392,5.1Zm52.929-13.9L853.251,181.8l-5.934-5.7,9.157-12.967Zm41.836,1.6-7.325,10.372-5.55-6.338,7.294-10.405Zm41.836,1.6-5.44,7.809-5.167-6.971,5.432-7.842Zm41.836,1.6-3.556,5.247-4.783-7.605,3.571-5.28Zm41.837,1.6-1.673,2.684-4.4-8.238,1.708-2.717Z" transform="translate(-443.038 -58.534)" fill="url(#radial-gradient)"/>
</svg>
