<svg id="Group_173" data-name="Group 173" xmlns="http://www.w3.org/2000/svg" xmlns:xlink="http://www.w3.org/1999/xlink" width="90.069" height="83.166" viewBox="0 0 90.069 83.166">
  <defs>
    <linearGradient id="linear-gradient" x1="0.701" y1="-0.238" x2="-0.023" y2="1.077" gradientUnits="objectBoundingBox">
      <stop offset="0" stop-color="#4a68a3"/>
      <stop offset="1" stop-color="#00ec9c"/>
    </linearGradient>
  </defs>
  <g id="Group_8" data-name="Group 8" transform="translate(0 0)">
    <g id="Group_7" data-name="Group 7" transform="translate(0 0)">
      <path id="Path_16" data-name="Path 16" d="M738.637,301.658a16.572,16.572,0,0,0-14-25.464H651.157c20.241.635,38.239,7.153,50.486,17.105l-43.6,66,42.519.056,15.786-23.9h0Z" transform="translate(-651.157 -276.194)" fill="url(#linear-gradient)"/>
      <g id="Group_6" data-name="Group 6">
        <path id="Path_17" data-name="Path 17" d="M741.224,292.785a16.591,16.591,0,0,0-16.592-16.591H651.156c37.328,1.171,67.07,22.309,67.07,48.212a34.049,34.049,0,0,1-1.876,11.055l22.286-33.8A16.493,16.493,0,0,0,741.224,292.785Z" transform="translate(-651.156 -276.194)" fill="#00f0b9"/>
      </g>
    </g>
  </g>
</svg>
