<svg xmlns="http://www.w3.org/2000/svg" xmlns:xlink="http://www.w3.org/1999/xlink" width="306" height="40" viewBox="0 0 306 40"><defs><style>.a{fill:url(#a);}.b{fill:#00f0b9;}.c{fill:#fff;}</style><linearGradient id="a" x1="0.701" y1="-0.238" x2="-0.023" y2="1.077" gradientUnits="objectBoundingBox"><stop offset="0" stop-color="#4a68a3"/><stop offset="1" stop-color="#00ec9c"/></linearGradient></defs><g transform="translate(-1555.863 -57.116)"><g transform="translate(1555.863 57.116)"><g transform="translate(0 0)"><path class="a" d="M693.424,288.267a7.714,7.714,0,0,0,1.25-4.207,7.942,7.942,0,0,0-8.016-7.866h-35.5c9.78.3,18.476,3.392,24.393,8.11l-21.064,31.3,20.544.027,7.627-11.332h0Z" transform="translate(-651.157 -276.194)"/><path class="b" d="M694.674,284a7.913,7.913,0,0,0-8.016-7.806h-35.5c18.035.551,32.406,10.5,32.406,22.683a15.646,15.646,0,0,1-.906,5.2l10.768-15.9A7.612,7.612,0,0,0,694.674,284Z" transform="translate(-651.156 -276.194)"/></g></g><path class="c" d="M1614.854,76.586l2.08,3.681-5.893,17.152h4.584l7.157-20.833Z" transform="translate(0.255 -0.661)"/><path class="c" d="M1629.815,76.586h4.227l5.077,13.244,4.565-13.244h4.524l-7.158,20.833h-3.9l-5.284-13.661-4.686,13.661h-4.524Z" transform="translate(0.309 -0.661)"/><path class="c" d="M1658.586,97.778a11.273,11.273,0,0,1-3.9-.64,8.324,8.324,0,0,1-2.973-1.815,7.331,7.331,0,0,1-1.826-2.857,9.064,9.064,0,0,1-.447-3.764,12.188,12.188,0,0,1,1.354-4.747,14.635,14.635,0,0,1,3.006-3.973,14.258,14.258,0,0,1,4.224-2.739,12.74,12.74,0,0,1,5.031-1.012,9.379,9.379,0,0,1,4.956,1.19,8.32,8.32,0,0,1,3.045,3.244l-3.979,2.649a7.154,7.154,0,0,0-1.928-2.084,5.091,5.091,0,0,0-2.978-.774,6.553,6.553,0,0,0-2.8.64,8.872,8.872,0,0,0-2.481,1.726,9.237,9.237,0,0,0-1.829,2.559,8.519,8.519,0,0,0-.846,3.14,5.239,5.239,0,0,0,.218,2.053,4.154,4.154,0,0,0,.938,1.592,4.233,4.233,0,0,0,1.53,1.027,5.431,5.431,0,0,0,2.027.357,6.052,6.052,0,0,0,2.66-.551,13.476,13.476,0,0,0,2.375-1.5l2.744,3.1a15.042,15.042,0,0,1-3.564,2.292,10.825,10.825,0,0,1-4.561.893" transform="translate(0.433 -0.662)"/><path class="c" d="M1765.174,76.586h8.1a10.712,10.712,0,0,1,3.139.4,5.844,5.844,0,0,1,2.1,1.1,3.973,3.973,0,0,1,1.157,1.638,4.654,4.654,0,0,1,.267,1.979,5.145,5.145,0,0,1-1.474,3.393,6.678,6.678,0,0,1-3.376,1.756,5.033,5.033,0,0,1,1.993,1.607,3.865,3.865,0,0,1,.607,2.618,5.851,5.851,0,0,1-.787,2.56,6.52,6.52,0,0,1-1.877,2.009,9.052,9.052,0,0,1-2.9,1.309,14.805,14.805,0,0,1-3.874.462h-10.238ZM1769.24,93.4a4.926,4.926,0,0,0,2.775-.7,2.427,2.427,0,0,0,1.142-1.92,1.559,1.559,0,0,0-.606-1.443,3.445,3.445,0,0,0-2.1-.521h-5.029l-1.564,4.583Zm2.118-8.393a5.507,5.507,0,0,0,2.813-.61,2.285,2.285,0,0,0,1.126-1.92,1.509,1.509,0,0,0-.584-1.339,3.4,3.4,0,0,0-2.163-.535h-4.314l-1.492,4.4Z" transform="translate(0.936 -0.661)"/><path class="c" d="M1790.708,97.747a10.039,10.039,0,0,1-3.223-.476,6.29,6.29,0,0,1-2.353-1.369,5.266,5.266,0,0,1-1.384-2.2,7.558,7.558,0,0,1-.312-2.976,12.784,12.784,0,0,1,.755-3.333l3.7-10.8h4.584l-3.848,11.22a10.553,10.553,0,0,0-.319,1.072,7.364,7.364,0,0,0-.178,1.19,3.219,3.219,0,0,0,.735,2.5,3.352,3.352,0,0,0,2.636.952,5.068,5.068,0,0,0,3.491-1.309,9.147,9.147,0,0,0,2.313-3.869l4.037-11.756h4.583L1801.661,89a14.78,14.78,0,0,1-3.678,6.191,9.11,9.11,0,0,1-3.166,1.92,12.161,12.161,0,0,1-4.11.64" transform="translate(1.054 -0.661)"/><path class="c" d="M1824.961,76.586h4.583l-5.714,16.667h10.387l-1.445,4.166H1817.8Z" transform="translate(1.213 -0.661)"/><path class="c" d="M1713.9,88.9l1.4-4.023h-14.231l-4.3,12.506h15.713l1.407-4.077H1702.7l1.522-4.405Z" transform="translate(0.652 -0.622)"/><path class="c" d="M1703.9,76.586l-1.4,4.09h15.563l1.407-4.09Z" transform="translate(0.679 -0.31)"/><path class="c" d="M1858.72,79.264a7.957,7.957,0,0,0-3.01-1.935,13.827,13.827,0,0,0-4.944-.743h-9.849l2.358,4.137h6.823a8.571,8.571,0,0,1,2.916.416,4.451,4.451,0,0,1,1.762,1.1,4.188,4.188,0,0,1,.972,3.3A7.992,7.992,0,0,1,1855,88.4a7.674,7.674,0,0,1-1.724,2.351,8.862,8.862,0,0,1-3.208,1.89,12.062,12.062,0,0,1-3.947.64h-2.589l2.889-8.369h-4.587l-4.3,12.506h7.738a19.249,19.249,0,0,0,6.412-.982,13.587,13.587,0,0,0,4.8-2.857,12.9,12.9,0,0,0,2.844-3.78,12.048,12.048,0,0,0,1.2-4.434,7.726,7.726,0,0,0-1.8-6.1" transform="translate(1.304 -0.661)"/><path class="c" d="M1742.374,79.264a7.949,7.949,0,0,0-3.01-1.935,13.821,13.821,0,0,0-4.944-.743h-9.849l2.358,4.137h6.823a8.569,8.569,0,0,1,2.916.416,4.449,4.449,0,0,1,1.762,1.1,4.192,4.192,0,0,1,.973,3.3,8.013,8.013,0,0,1-.75,2.857,7.668,7.668,0,0,1-1.724,2.351,8.855,8.855,0,0,1-3.208,1.89,12.058,12.058,0,0,1-3.947.64h-2.588l2.888-8.369h-4.587l-4.3,12.506h7.738a19.246,19.246,0,0,0,6.413-.982,13.591,13.591,0,0,0,4.8-2.857,12.878,12.878,0,0,0,2.844-3.78,12.048,12.048,0,0,0,1.2-4.434,7.728,7.728,0,0,0-1.8-6.1" transform="translate(0.765 -0.661)"/><path class="c" d="M1692.971,78.67a5.848,5.848,0,0,0-2.539-1.562,12.59,12.59,0,0,0-3.9-.521h-10.8l1.792,4.137h8.437a3.975,3.975,0,0,1,2.97.867,2.127,2.127,0,0,1,.53,1.675,3.135,3.135,0,0,1-1.022,2.124,4.55,4.55,0,0,1-1.848,1.018,8.616,8.616,0,0,1-2.45.329h-4.078l0,0h-4.61l-3.673,10.688h4.583l2.286-6.666h3.422l2.714,6.666H1690l-3.009-7.113a10.688,10.688,0,0,0,5-2.5,6.985,6.985,0,0,0,1.567-2.173,7.87,7.87,0,0,0,.7-2.768,5.333,5.333,0,0,0-1.282-4.2" transform="translate(0.537 -0.661)"/><path class="c" d="M1749.9,76.586l2.079,3.681-5.893,17.152h4.584l7.157-20.833Z" transform="translate(0.881 -0.661)"/><path class="c" d="M1810.4,76.586l2.079,3.681-5.893,17.152h4.583l7.158-20.833Z" transform="translate(1.161 -0.661)"/></g></svg>