<svg xmlns="http://www.w3.org/2000/svg" xmlns:xlink="http://www.w3.org/1999/xlink" width="89.935" height="83.042" viewBox="0 0 89.935 83.042">
  <defs>
    <linearGradient id="linear-gradient" x1="0.701" y1="-0.238" x2="-0.023" y2="1.077" gradientUnits="objectBoundingBox">
      <stop offset="0" stop-color="#4e61a3"/>
      <stop offset="1" stop-color="#00ec9c"/>
    </linearGradient>
    <linearGradient id="linear-gradient-2" x1="-2.712" y1="0.5" x2="-2.704" y2="0.5" gradientUnits="objectBoundingBox">
      <stop offset="0" stop-color="#00ffa3"/>
      <stop offset="0.464" stop-color="#00f9a0"/>
      <stop offset="1" stop-color="#01eb9c"/>
    </linearGradient>
  </defs>
  <g id="Group_56" data-name="Group 56" transform="translate(0)">
    <path id="Path_45" data-name="Path 45" d="M1604.271,728.145a16.547,16.547,0,0,0-13.983-25.426H1516.92c20.211.634,38.182,7.142,50.411,17.079L1523.8,785.705l42.456.056,15.763-23.864h0Z" transform="translate(-1516.92 -702.719)" fill="url(#linear-gradient)"/>
    <g id="Group_55" data-name="Group 55">
      <path id="Path_46" data-name="Path 46" d="M1606.855,719.285a16.567,16.567,0,0,0-16.567-16.566H1516.92c37.273,1.169,66.97,22.275,66.97,48.14a34,34,0,0,1-1.873,11.038l22.253-33.753A16.47,16.47,0,0,0,1606.855,719.285Z" transform="translate(-1516.92 -702.719)" fill="url(#linear-gradient-2)"/>
    </g>
  </g>
</svg>
