<?xml version="1.0" encoding="UTF-8"?>
<svg id="Layer_1" data-name="Layer 1" xmlns="http://www.w3.org/2000/svg" xmlns:xlink="http://www.w3.org/1999/xlink" width="233" height="32" viewBox="0 0 233 32"><defs><style>.cls-1{fill:url(#New_Gradient_Swatch_3);}.cls-2{fill:url(#linear-gradient);}.cls-3{fill:#4d4d4f;}</style><linearGradient id="New_Gradient_Swatch_3" x1="23.22" y1="-6.8" x2="-0.76" y2="33.45" gradientUnits="userSpaceOnUse"><stop offset="0" stop-color="#4e61a3"/><stop offset="1" stop-color="#00ec9c"/></linearGradient><linearGradient id="linear-gradient" x1="-89.87" y1="11.39" x2="-89.61" y2="11.39" gradientUnits="userSpaceOnUse"><stop offset="0" stop-color="#00ffa3"/><stop offset="0.46" stop-color="#00f9a1"/><stop offset="1" stop-color="#01eb9c"/></linearGradient></defs><title>logo</title><path class="cls-1" d="M32.19,9.85A6.09,6.09,0,0,0,27,.49H0C7.45.72,14.07,3.12,18.58,6.78l-16,24.28,15.65,0L24,22.29h0Z"/><path class="cls-2" d="M33.14,6.59A6.1,6.1,0,0,0,27,.49H0c13.73.43,24.68,8.2,24.68,17.73A12.74,12.74,0,0,1,24,22.29l8.2-12.44A6,6,0,0,0,33.14,6.59Z"/><polygon class="cls-3" points="45.11 15.38 46.7 18.18 42.21 31.24 45.7 31.24 51.15 15.38 45.11 15.38"/><path class="cls-3" d="M56.55,15.38h3.21l3.87,10.08,3.48-10.08h3.44L65.1,31.24h-3l-4-10.4-3.57,10.4H51.1Z"/><path class="cls-3" d="M78.55,31.51a8.73,8.73,0,0,1-3-.48,6.38,6.38,0,0,1-2.26-1.39,5.48,5.48,0,0,1-1.39-2.17,6.82,6.82,0,0,1-.34-2.87,9.19,9.19,0,0,1,1-3.61,11.11,11.11,0,0,1,2.29-3,10.82,10.82,0,0,1,3.21-2.08A9.6,9.6,0,0,1,82,15.11a7.2,7.2,0,0,1,3.78.9,6.41,6.41,0,0,1,2.32,2.47l-3,2a5.64,5.64,0,0,0-1.47-1.59,3.92,3.92,0,0,0-2.27-.58,5.08,5.08,0,0,0-2.13.48,6.91,6.91,0,0,0-3.28,3.27,6.48,6.48,0,0,0-.65,2.39A4.14,4.14,0,0,0,75.39,26a3.13,3.13,0,0,0,.71,1.21,3.17,3.17,0,0,0,1.17.78,4,4,0,0,0,1.54.28,4.63,4.63,0,0,0,2-.42,9.79,9.79,0,0,0,1.8-1.15l2.09,2.36A11.19,11.19,0,0,1,82,30.83,8.14,8.14,0,0,1,78.55,31.51Z"/><path class="cls-3" d="M160.09,15.38h6.16a7.88,7.88,0,0,1,2.39.31,4.44,4.44,0,0,1,1.61.83,3.08,3.08,0,0,1,.88,1.25,3.64,3.64,0,0,1,.2,1.51,3.91,3.91,0,0,1-1.12,2.58,5.09,5.09,0,0,1-2.57,1.34,3.86,3.86,0,0,1,1.52,1.22,3,3,0,0,1,.46,2,4.55,4.55,0,0,1-.6,1.94,4.94,4.94,0,0,1-1.43,1.53,6.82,6.82,0,0,1-2.21,1,11,11,0,0,1-2.95.35h-7.79Zm3.1,12.8a3.71,3.71,0,0,0,2.11-.53,1.85,1.85,0,0,0,.87-1.46,1.2,1.2,0,0,0-.46-1.1,2.68,2.68,0,0,0-1.61-.4h-3.83l-1.19,3.49Zm1.61-6.39a4.2,4.2,0,0,0,2.14-.46,1.75,1.75,0,0,0,.86-1.46,1.15,1.15,0,0,0-.45-1,2.51,2.51,0,0,0-1.64-.41h-3.29l-1.13,3.35Z"/><path class="cls-3" d="M179.62,31.49a7.66,7.66,0,0,1-2.45-.36,4.78,4.78,0,0,1-1.79-1,4.19,4.19,0,0,1-1.06-1.68,5.68,5.68,0,0,1-.23-2.27,9.48,9.48,0,0,1,.57-2.53l2.82-8.23H181L178,23.92a8.54,8.54,0,0,0-.25.82,5.68,5.68,0,0,0-.13.91,2.45,2.45,0,0,0,.56,1.9,2.57,2.57,0,0,0,2,.72,3.86,3.86,0,0,0,2.65-1,7,7,0,0,0,1.77-3l3.07-8.95h3.49L188,24.83a11.22,11.22,0,0,1-2.8,4.71A6.84,6.84,0,0,1,182.75,31,9.14,9.14,0,0,1,179.62,31.49Z"/><path class="cls-3" d="M205.83,15.38h3.48L205,28.07h7.91l-1.1,3.17h-11.4Z"/><polygon class="cls-3" points="120.83 24.78 121.9 21.72 114.53 21.72 114.53 21.72 111.06 21.72 107.79 31.24 119.75 31.24 120.83 28.14 112.31 28.14 113.46 24.78 120.83 24.78"/><polygon class="cls-3" points="113.24 15.38 112.17 18.49 115.63 18.49 115.64 18.49 124.02 18.49 125.09 15.38 113.24 15.38"/><path class="cls-3" d="M231.6,17.42A5.89,5.89,0,0,0,229.31,16a10.5,10.5,0,0,0-3.77-.57H218l1.8,3.15H225a6.5,6.5,0,0,1,2.21.32,3.32,3.32,0,0,1,1.35.84,3.17,3.17,0,0,1,.74,2.51,6.22,6.22,0,0,1-.57,2.18,5.94,5.94,0,0,1-1.32,1.79A6.84,6.84,0,0,1,225,27.61a9.29,9.29,0,0,1-3,.48h-2l2.2-6.37h-3.49l-3.27,9.52h5.89a14.59,14.59,0,0,0,4.88-.75,10.17,10.17,0,0,0,3.66-2.17,9.72,9.72,0,0,0,2.16-2.88,9.13,9.13,0,0,0,.91-3.38A5.87,5.87,0,0,0,231.6,17.42Z"/><path class="cls-3" d="M142.6,17.42A5.89,5.89,0,0,0,140.31,16a10.5,10.5,0,0,0-3.77-.57H129l1.8,3.15H136a6.52,6.52,0,0,1,2.22.32,3.32,3.32,0,0,1,1.35.84,3.17,3.17,0,0,1,.74,2.51,6.22,6.22,0,0,1-.57,2.18,5.94,5.94,0,0,1-1.32,1.79A6.84,6.84,0,0,1,136,27.61a9.29,9.29,0,0,1-3,.48h-2l2.2-6.37h-3.49l-3.27,9.52h5.89a14.59,14.59,0,0,0,4.88-.75,10.26,10.26,0,0,0,3.66-2.17,9.9,9.9,0,0,0,2.16-2.88,9.13,9.13,0,0,0,.91-3.38A5.87,5.87,0,0,0,142.6,17.42Z"/><path class="cls-3" d="M104.81,17a4.41,4.41,0,0,0-1.94-1.19,9.4,9.4,0,0,0-3-.4H91.68l1.37,3.15h6.42a3,3,0,0,1,2.26.66,1.6,1.6,0,0,1,.4,1.28,2.35,2.35,0,0,1-.77,1.61,3.58,3.58,0,0,1-1.41.78,6.82,6.82,0,0,1-1.87.25H91.47l-2.8,8.14h3.49l1.74-5.07h2.61l2.07,5.07h4l-2.29-5.41a8.18,8.18,0,0,0,3.81-1.91,5.28,5.28,0,0,0,1.19-1.65,5.8,5.8,0,0,0,.53-2.11A4,4,0,0,0,104.81,17Z"/><polygon class="cls-3" points="148.41 15.38 150 18.18 145.51 31.24 149 31.24 154.45 15.38 148.41 15.38"/><polygon class="cls-3" points="194.7 15.38 196.28 18.18 191.8 31.24 195.29 31.24 200.74 15.38 194.7 15.38"/></svg>