<svg xmlns="http://www.w3.org/2000/svg" xmlns:xlink="http://www.w3.org/1999/xlink" width="246.559" height="32.836" viewBox="0 0 246.559 32.836"><defs><style>.a{fill:none;}.b{clip-path:url(#a);}.c{fill:url(#b);}.d{clip-path:url(#c);}.e{fill:#00e4b0;}.f{fill:#fff;}</style><clipPath id="a"><path class="a" d="M0,0C7.88.246,14.888,2.785,19.657,6.66L2.681,32.358l16.556.021,6.145-9.305L34.06,9.914A6.454,6.454,0,0,0,28.608,0Z" transform="translate(0 0.001)"/></clipPath><linearGradient id="b" x1="0.117" y1="0.86" x2="0.143" y2="0.86" gradientUnits="objectBoundingBox"><stop offset="0" stop-color="#4e61a3"/><stop offset="1" stop-color="#62c08e"/></linearGradient><clipPath id="c"><rect class="a" width="246.559" height="32.834"/></clipPath></defs><g transform="translate(-311)"><g transform="translate(311)"><g class="b"><rect class="c" width="45.765" height="46.698" transform="translate(-17.803 27.465) rotate(-59.216)"/></g><g transform="translate(0 0.002)"><g class="d" transform="translate(0 0)"><path class="e" d="M35.067,6.46A6.459,6.459,0,0,0,28.607,0H0C14.533.456,26.112,8.686,26.112,18.771a13.244,13.244,0,0,1-.73,4.3L34.059,9.914A6.422,6.422,0,0,0,35.067,6.46" transform="translate(0 0)"/><path class="f" d="M40.651,13.26l1.676,2.965L37.579,30.046h3.693L47.039,13.26Z" transform="translate(7.086 2.5)"/><path class="f" d="M51.258,13.26h3.405l4.091,10.671L62.433,13.26h3.644L60.31,30.046H57.169L52.91,19.039,49.135,30.046H45.49Z" transform="translate(8.578 2.5)"/><path class="f" d="M71.1,30.38a9.1,9.1,0,0,1-3.139-.516,6.733,6.733,0,0,1-2.4-1.462,5.926,5.926,0,0,1-1.47-2.3,7.321,7.321,0,0,1-.36-3.034,9.83,9.83,0,0,1,1.091-3.825,11.8,11.8,0,0,1,2.422-3.2,11.482,11.482,0,0,1,3.4-2.206,10.263,10.263,0,0,1,4.053-.815,7.556,7.556,0,0,1,3.994.959,6.694,6.694,0,0,1,2.453,2.614l-3.206,2.133A5.772,5.772,0,0,0,76.4,17.046a4.112,4.112,0,0,0-2.4-.623,5.289,5.289,0,0,0-2.256.515,7.178,7.178,0,0,0-2,1.392,7.433,7.433,0,0,0-1.474,2.062,6.854,6.854,0,0,0-.681,2.529,4.227,4.227,0,0,0,.175,1.654,3.358,3.358,0,0,0,.756,1.284,3.41,3.41,0,0,0,1.233.827,4.39,4.39,0,0,0,1.633.288,4.887,4.887,0,0,0,2.144-.443A10.9,10.9,0,0,0,75.44,25.32l2.211,2.494a12.123,12.123,0,0,1-2.872,1.847,8.735,8.735,0,0,1-3.675.719" transform="translate(12.015 2.455)"/><path class="f" d="M143.444,13.26h6.523a8.589,8.589,0,0,1,2.529.324,4.678,4.678,0,0,1,1.7.887,3.181,3.181,0,0,1,.932,1.319,3.734,3.734,0,0,1,.216,1.594,4.15,4.15,0,0,1-1.189,2.735,5.375,5.375,0,0,1-2.719,1.414,4.063,4.063,0,0,1,1.606,1.294,3.118,3.118,0,0,1,.489,2.111A4.708,4.708,0,0,1,152.893,27a5.239,5.239,0,0,1-1.513,1.619,7.311,7.311,0,0,1-2.333,1.055,11.977,11.977,0,0,1-3.121.371h-8.249Zm3.277,13.55a3.974,3.974,0,0,0,2.236-.563,1.953,1.953,0,0,0,.919-1.548,1.253,1.253,0,0,0-.487-1.162,2.772,2.772,0,0,0-1.695-.42H143.64l-1.261,3.693Zm1.706-6.763a4.434,4.434,0,0,0,2.267-.492,1.84,1.84,0,0,0,.908-1.546,1.219,1.219,0,0,0-.471-1.079,2.746,2.746,0,0,0-1.742-.431h-3.477l-1.2,3.549Z" transform="translate(25.962 2.5)"/><path class="f" d="M160.851,30.31a8.1,8.1,0,0,1-2.6-.384,5.079,5.079,0,0,1-1.9-1.1,4.233,4.233,0,0,1-1.114-1.775,6.076,6.076,0,0,1-.252-2.4,10.232,10.232,0,0,1,.61-2.685l2.979-8.705h3.693l-3.1,9.04a8.4,8.4,0,0,0-.257.864,5.916,5.916,0,0,0-.144.959,2.593,2.593,0,0,0,.592,2.013,2.707,2.707,0,0,0,2.125.768,4.082,4.082,0,0,0,2.812-1.055,7.383,7.383,0,0,0,1.865-3.118l3.252-9.472h3.693l-3.435,10a11.907,11.907,0,0,1-2.964,4.988,7.329,7.329,0,0,1-2.551,1.546,9.809,9.809,0,0,1-3.311.516" transform="translate(29.223 2.5)"/><path class="f" d="M184.162,13.26h3.693l-4.6,13.43h8.369l-1.162,3.357H178.394Z" transform="translate(33.641 2.5)"/><path class="f" d="M109.763,22.148l1.13-3.242H99.428L95.965,28.982h12.662l1.134-3.285h-9.018l1.225-3.549Z" transform="translate(18.097 3.565)"/><path class="f" d="M101,13.26l-1.133,3.3h12.541l1.134-3.3Z" transform="translate(18.832 2.5)"/><path class="f" d="M208.9,15.418a6.4,6.4,0,0,0-2.425-1.558,11.137,11.137,0,0,0-3.984-.6h-7.936l1.9,3.334h5.5a6.9,6.9,0,0,1,2.349.335,3.589,3.589,0,0,1,1.42.888,3.369,3.369,0,0,1,.783,2.661,6.44,6.44,0,0,1-.6,2.3,6.219,6.219,0,0,1-1.389,1.895A7.137,7.137,0,0,1,201.93,26.2a9.728,9.728,0,0,1-3.179.516h-2.086l2.327-6.744h-3.7l-3.462,10.077h6.235a15.525,15.525,0,0,0,5.167-.79,10.96,10.96,0,0,0,3.865-2.3,10.4,10.4,0,0,0,2.292-3.046,9.721,9.721,0,0,0,.963-3.573,6.228,6.228,0,0,0-1.454-4.916" transform="translate(36.175 2.5)"/><path class="f" d="M129.665,15.418a6.4,6.4,0,0,0-2.425-1.558,11.137,11.137,0,0,0-3.984-.6H115.32l1.9,3.334h5.5a6.9,6.9,0,0,1,2.349.335,3.589,3.589,0,0,1,1.42.888,3.369,3.369,0,0,1,.783,2.661,6.44,6.44,0,0,1-.6,2.3,6.218,6.218,0,0,1-1.389,1.895,7.137,7.137,0,0,1-2.585,1.523,9.728,9.728,0,0,1-3.179.516h-2.086l2.327-6.744h-3.7L112.6,30.046h6.235a15.525,15.525,0,0,0,5.167-.79,10.961,10.961,0,0,0,3.865-2.3,10.4,10.4,0,0,0,2.292-3.046,9.72,9.72,0,0,0,.963-3.573,6.228,6.228,0,0,0-1.454-4.916" transform="translate(21.233 2.5)"/><path class="f" d="M96.02,14.938a4.7,4.7,0,0,0-2.046-1.259,10.165,10.165,0,0,0-3.144-.42h-8.7l1.444,3.333h6.8a3.2,3.2,0,0,1,2.394.7,1.715,1.715,0,0,1,.426,1.35,2.523,2.523,0,0,1-.823,1.71,3.668,3.668,0,0,1-1.488.82,6.93,6.93,0,0,1-1.975.265H85.62v0H81.907l-2.96,8.612H82.64l1.842-5.372H87.24l2.187,5.372h4.2L91.2,24.315A8.612,8.612,0,0,0,95.229,22.3a5.631,5.631,0,0,0,1.262-1.751,6.354,6.354,0,0,0,.561-2.23,4.3,4.3,0,0,0-1.033-3.381" transform="translate(14.887 2.5)"/><path class="f" d="M132.622,13.26l1.676,2.965-4.748,13.821h3.693l5.767-16.786Z" transform="translate(24.43 2.5)"/><path class="f" d="M173.831,13.26l1.676,2.965-4.748,13.821h3.693l5.767-16.786Z" transform="translate(32.201 2.5)"/></g></g></g></g></svg>