<svg xmlns="http://www.w3.org/2000/svg" width="448.272" height="229.831" viewBox="0 0 448.272 229.831"><defs><style>.a{isolation:isolate;}.b{fill:#fff;}</style></defs><g class="a" transform="translate(-533.376 -251.915)"><g class="a" transform="translate(533.376 251.915)"><path class="b" d="M574.731,347.778q.021,5.559.04,11.056-8.293.849-16.6,1.255.108,32.029.186,62.654-4.1.269-8.2.44-.085-30.951-.189-62.822-8.275.151-16.56-.218-.017-5.391-.034-10.783A284.571,284.571,0,0,0,574.731,347.778Z" transform="translate(-533.376 -288.834)"/><path class="b" d="M632.965,386.779c-.019-7.028-2.429-11.943-7.885-11.054-4.99.8-8.17,6.322-8.149,13.835q.039,13.76.066,27.032-3.959.595-7.921,1.1-.081-36.574-.232-76.474,3.962-.491,7.922-1.069.065,17.137.117,33.586c3.375-6.615,7.829-8.667,10.623-9.136,9.047-1.543,13.331,6.645,13.363,17.866q.042,15.239.07,29.764-3.955.839-7.911,1.6Q633,400.591,632.965,386.779Z" transform="translate(-562.441 -285.898)"/><path class="b" d="M679.788,398.132c.151,7.433,5.209,11.257,10.387,9.879,4.315-1.15,7.5-4.157,9.543-10.012q2.86,1.752,5.718,3.442c-3.038,8.416-8.937,13.939-15.111,15.6-10.489,2.828-18.612-5.75-18.65-20.338-.036-13.846,7.5-27.521,17.794-30.075,11.024-2.761,17.3,6.389,17.332,20.967,0,.453,0,2.171-.125,3.379C697.717,393.578,688.755,395.986,679.788,398.132Zm.377-8.339q9.3-2.211,18.593-4.764c-.283-6.891-4.345-10.021-9.259-8.778C684.65,377.471,680.877,382.883,680.165,389.793Z" transform="translate(-586.638 -295.906)"/><path class="b" d="M766.044,363.642q3.444-3.5,6.887-7.019c2.268,6.775,6.715,9.136,12.349,7.184a13.334,13.334,0,0,0,9.067-12.382c-.008-5.108-3.194-6.809-10.427-7.448-5.508-.5-9.559-1.821-12.22-4.259-2.661-2.349-4-6.157-4.014-11.906-.033-11.626,7.5-23.29,17.193-25.9,9.36-2.537,14.822,3.122,17.093,10.276q-3.378,3.453-6.756,6.951c-1.871-5.62-5.265-8.4-10.507-6.887-5.043,1.447-8.681,6.7-8.665,12.419.015,5.8,3.869,7.428,9.644,7.936,6.041.51,10.488,1.633,13.345,4.447,2.392,2.266,3.724,5.626,3.73,10.858.013,9.752-6.272,21.476-17.6,25.526C776.081,376.651,768.981,373.283,766.044,363.642Z" transform="translate(-622.982 -270.932)"/><path class="b" d="M845.131,285.109q.064,35.739.086,69.463-3.941,1.457-7.883,2.908-.027-33.957-.1-70.333Q841.18,286.117,845.131,285.109Z" transform="translate(-650.397 -264.699)"/><path class="b" d="M880.09,310.5c10.155-2.8,18.582,4.2,18.574,16.37-.009,12.277-8.231,24.664-18.631,28.547-10.2,3.792-18.684-2.78-18.7-16.055C861.323,326.067,869.8,313.33,880.09,310.5ZM880.1,346.7c6.427-2.3,10.539-9.825,10.541-17.113s-4.177-12.185-10.613-10.259c-6.369,1.91-10.608,9.5-10.6,17.12C869.428,343.989,873.671,349,880.1,346.7Z" transform="translate(-659.681 -274.239)"/><path class="b" d="M969.258,322.319q-4.113,1.228-8.225,2.507c-2.7-8.277-5.4-16.568-8.1-24.939l-.132.034c-2.764,9.792-5.522,19.9-8.275,30.232q-4.044,1.348-8.088,2.734c-3.764-12.314-7.532-24.79-11.307-37.626q4.15-1.1,8.3-2.158c2.468,8.926,4.933,17.71,7.4,26.416l.066-.021c2.687-10.324,5.38-20.416,8.078-30.187q3.986-.928,7.973-1.809c2.678,8.359,5.355,16.634,8.032,24.89l.132-.037c2.5-9.705,5.008-19.1,7.523-28.125q4.055-.8,8.112-1.538C976.9,295.141,973.07,308.415,969.258,322.319Z" transform="translate(-684.248 -263.768)"/><path class="b" d="M1026.736,298c.111,5.456,5.143,8.081,10.326,6.889a13.3,13.3,0,0,0,9.6-7.406l5.7,2.527a23.59,23.59,0,0,1-15.192,11.708c-10.493,2.619-18.564-3.435-18.526-14.294.037-10.321,7.658-19.944,17.975-21.374,11.049-1.534,17.257,4.447,17.194,14.31a17.042,17.042,0,0,1-.147,2.316Q1040.192,294.991,1026.736,298Zm.426-6.04q9.305-1.92,18.618-3.528c-.238-4.683-4.279-6.818-9.2-6.011A11.339,11.339,0,0,0,1027.161,291.959Z" transform="translate(-720.262 -261.118)"/><path class="b" d="M1081.881,296.042q3.1-2.188,6.206-4.276c1.644,2.806,4.091,4.612,8.483,3.928,2.861-.443,5.6-2.165,5.615-4.375.014-1.909-2.307-2.919-7.292-3.181-3.523-.162-6.775-.94-8.825-2.567a6.548,6.548,0,0,1-2.488-5.464c.042-6.009,6.4-10.4,12.995-11.008,7.6-.711,11.233,1.966,13.265,5.456q-3.078,1.738-6.154,3.55c-1.248-2.033-3.363-3.749-7.426-3.31-2.331.251-5,1.775-5.019,3.594-.016,2.113,2.04,2.9,6.561,3.16,3.657.253,6.845.991,9.161,2.583a6.843,6.843,0,0,1,3.082,5.778c-.042,5.7-5.529,10.618-13.512,11.958C1088.482,303.23,1084.248,300.526,1081.881,296.042Z" transform="translate(-744.618 -258.488)"/><path class="b" d="M1148.477,279.552c-.031,3.778,2.158,4.93,6.09,4.631a15.434,15.434,0,0,0,2.534-.412q-.023,2.906-.047,5.863a16.617,16.617,0,0,1-4.27.98c-7.663.671-12.3-2.407-12.246-9.267q.059-7.371.126-14.388-3.266.255-6.531.537.027-2.971.056-5.878,3.266-.253,6.532-.485.045-4.444.094-8.739,3.967-.244,7.934-.48-.049,4.268-.095,8.68,4.366-.284,8.734-.544-.03,2.851-.058,5.759-4.367.265-8.734.566Q1148.533,272.817,1148.477,279.552Z" transform="translate(-764.742 -251.915)"/></g><g class="a" transform="translate(538.705 305.245)"><path class="b" d="M563.3,503.474c10.011-.959,16.69,4.805,16.475,15.722-.069,3.576-1.546,10.922-7.822,15.67,7.878,1.735,9.733,8.555,9.63,13.587-.21,10.186-6.438,19.156-18.918,23.183-6.874,2.17-13.748,4.465-20.622,6.952q.652-36.846,1.3-73.51Q553.323,504.455,563.3,503.474Zm-2.086,29.548c7.141-1.263,10.231-6.245,10.331-11.4s-2.49-8.959-9.5-8.131q-5.372.642-10.745,1.2-.184,10.069-.367,20.082Q556.076,533.907,561.215,533.022Zm1.768,29.094c6.807-1.911,10.294-6.906,10.407-12.551.106-5.311-3.012-8.937-10.553-7.433q-6.04,1.229-12.08,2.456-.194,10.581-.387,21.112Q556.677,563.853,562.984,562.117Z" transform="translate(-542.043 -402.087)"/><path class="b" d="M625.705,550.643c-.127,5.981,2.182,9.738,7.654,8.3,5.005-1.318,8.3-6.165,8.434-12.344q.247-11.351.494-23.261,3.971-.869,7.942-1.786-.445,21.257-.888,40.635L641.6,564.31q.06-2.643.12-5.319c-3.519,6.02-8.214,8.348-11.017,9.132-8.943,2.54-13.19-3.521-12.986-13.292q.272-13.063.545-26.662,3.972-.73,7.942-1.5Q625.954,538.9,625.705,550.643Z" transform="translate(-571.184 -409.09)"/><path class="b" d="M689.447,483.239c2.87-.692,5.146,1.681,5.074,5.167s-2.466,6.884-5.335,7.6-5.147-1.543-5.076-5.049S686.578,483.931,689.447,483.239Zm-4.357,21.3q-.444,21.117-.888,40.3,3.97-1.095,7.942-2.2.444-19.067.889-40.1Q689.061,503.565,685.09,504.54Z" transform="translate(-596.756 -394.287)"/><path class="b" d="M721.288,470.644q-.677,33.44-1.355,62.363-3.971,1.144-7.942,2.268.677-28.951,1.355-62.47Q717.317,471.752,721.288,470.644Z" transform="translate(-607.494 -389.483)"/><path class="b" d="M755.064,476.269c3.136-1,8.838-1.053,11.4,2.938q.3-13.782.592-28.292,3.972-1.316,7.942-2.668-.678,33.112-1.355,62.662-3.87,1.254-7.741,2.482.069-2.993.138-6.026c-2.918,5.944-9.228,9.444-12.1,10.325-10.278,3.135-17.332-4.078-17.092-14.848C737.075,492.852,743.918,479.821,755.064,476.269Zm.823,8c-6.473,2.064-10.806,9.282-10.96,16.158s3.992,11.091,10.4,9.1,10.8-8.929,10.958-15.859S762.294,482.213,755.887,484.265Z" transform="translate(-617.066 -380.857)"/><path class="b" d="M848.768,456.219c10.211-3.829,18.49,2.2,18.229,14.365-.263,12.267-8.74,24.607-19.218,28.335-10.278,3.646-18.622-2.184-18.359-14.227C829.683,472.629,838.424,460.1,848.768,456.219Zm-.742,34.491c6.474-2.357,10.74-9.8,10.893-16.917s-3.923-11.53-10.4-9.1c-6.408,2.405-10.8,9.835-10.956,16.888C837.414,488.558,841.552,493.063,848.026,490.71Z" transform="translate(-652.716 -383.486)"/><path class="b" d="M922.682,446.2c.126-5.9-2.182-9.414-7.654-7.352-5.005,1.888-8.3,7.312-8.434,13.608Q906.347,464,906.1,475.5q-3.971,1.483-7.942,2.959.445-20.581.889-41.442,3.871-1.466,7.742-2.928l-.12,5.606c3.519-6.664,8.214-9.5,11.017-10.543,9.076-3.366,13.19,2.382,12.988,11.74q-.274,12.739-.547,25.62-3.972,1.481-7.942,2.969Q922.432,457.809,922.682,446.2Z" transform="translate(-679.191 -373.13)"/><path class="b" d="M1006.651,392.305q11.479-3.758,22.958-7.075-.092,4.052-.185,8.162-11.479,3.408-22.958,7.275-.192,8.748-.384,17.693c8.5-2.945,17-5.764,25.494-8.395q-.093,4.261-.186,8.582c-11.234,3.558-22.469,7.419-33.7,11.436q.651-30.7,1.3-59.427c11.146-3.46,22.291-6.628,33.436-9.393q-.092,3.862-.184,7.783-12.614,3.288-25.227,7.2Q1006.832,384.139,1006.651,392.305Z" transform="translate(-717.522 -347.319)"/><path class="b" d="M1077.6,386.825c-4.471,1.056-7.4,4.432-9.018,8.328q-2.993-1.082-5.986-2.139c2.391-5.928,7.034-11.6,15.376-13.473,6.005-1.344,10.959-.135,13.166,4.732a14.754,14.754,0,0,1,1.042,6.47q-.282,11.975-.566,24.6-3.9.954-7.808,1.981.061-2.738.121-5.448a17.169,17.169,0,0,1-10.614,9.006c-6.941,2-11.905-1.429-11.752-8.38,0-.151.007-.3.01-.452.206-9.351,8.88-14.568,15.087-16.1q2.2-.552,4.405-1.081a3.984,3.984,0,0,0,3.411-3.993C1084.539,387.971,1082.268,385.731,1077.6,386.825Zm-1.082,15.234c-3,.77-6.915,3.588-7,7.323-.073,3.288,2.215,4.8,5.552,3.882a12.238,12.238,0,0,0,9.093-11.887q.014-.618.028-1.233Q1080.352,401.065,1076.515,402.059Z" transform="translate(-742.118 -354.2)"/><path class="b" d="M1142.2,377.192a14.833,14.833,0,0,0-2.264.071c-6.073.752-9.366,4.909-9.52,11.288q-.226,9.4-.451,19.208-3.972.791-7.942,1.671.445-19.571.889-37.541,3.87-.631,7.741-1.174-.07,2.826-.141,5.692a13.006,13.006,0,0,1,9.96-7.249,9.249,9.249,0,0,1,1.93-.01Q1142.3,373.131,1142.2,377.192Z" transform="translate(-765.406 -350.376)"/><path class="b" d="M1176.18,383.1c-.109,4.424,2.055,5.772,5.992,5.487a13.8,13.8,0,0,0,2.543-.429q-.085,3.355-.168,6.753a15.194,15.194,0,0,1-4.289,1.094c-7.676.741-12.246-2.795-12.051-10.862q.212-8.663.424-17.006-3.27.269-6.54.612.09-3.537.178-7.015,3.271-.307,6.54-.544.138-5.313.274-10.494,3.972-.234,7.942-.37-.136,5.135-.274,10.393,4.372-.2,8.743-.272-.089,3.373-.178,6.791-4.372.107-8.743.35Q1176.377,375.214,1176.18,383.1Z" transform="translate(-780.838 -343.144)"/><path class="b" d="M1234.05,371.662c.127-4.709-2.182-8.493-7.653-8.841-5.006-.3-8.3,3.008-8.434,8.151q-.247,9.427-.494,19.105-3.971.066-7.942.259.677-27,1.355-51.688,3.97.071,7.942.235-.29,10.561-.579,21.441a12.987,12.987,0,0,1,10.81-4.338c9.077.7,13.19,7.193,12.988,14.618q-.273,10.136-.547,20.288-3.971-.343-7.942-.545Q1233.8,380.949,1234.05,371.662Z" transform="translate(-799.106 -338.648)"/></g></g></svg>