<svg xmlns="http://www.w3.org/2000/svg" width="132.734" height="17.639" viewBox="0 0 132.734 17.639"><defs><style>.a{fill:#00e5b1;}</style></defs><g transform="translate(-373 -539.774)"><path class="a" d="M637.273,1892.587l2.866,5.806,6.408.931-4.637,4.52,1.095,6.382-5.731-3.013-5.731,3.013,1.095-6.382-4.637-4.52,6.408-.931Z" transform="translate(-255 -1352.814)"/><path class="a" d="M637.273,1892.587l2.866,5.806,6.408.931-4.637,4.52,1.095,6.382-5.731-3.013-5.731,3.013,1.095-6.382-4.637-4.52,6.408-.931Z" transform="translate(-226.453 -1352.814)"/><path class="a" d="M637.273,1892.587l2.866,5.806,6.408.931-4.637,4.52,1.095,6.382-5.731-3.013-5.731,3.013,1.095-6.382-4.637-4.52,6.408-.931Z" transform="translate(-197.906 -1352.814)"/><path class="a" d="M637.273,1892.587l2.866,5.806,6.408.931-4.637,4.52,1.095,6.382-5.731-3.013-5.731,3.013,1.095-6.382-4.637-4.52,6.408-.931Z" transform="translate(-169.359 -1352.814)"/><path class="a" d="M637.273,1892.587l2.866,5.806,6.408.931-4.637,4.52,1.095,6.382-5.731-3.013-5.731,3.013,1.095-6.382-4.637-4.52,6.408-.931Z" transform="translate(-140.813 -1352.814)"/></g></svg>