<svg xmlns="http://www.w3.org/2000/svg" width="496.958" height="246.774" viewBox="0 0 496.958 246.774"><defs><style>.a{fill:#00e5b1;}</style></defs><g transform="translate(-626.909 -335.589)"><g transform="translate(626.909 492.633)"><path d="M647.559,586.559c13.391,0,20.274,8.01,20.274,22.026v2.753H654.817v-3.629c0-6.258-2.5-8.636-6.883-8.636s-6.883,2.378-6.883,8.636c0,18.021,26.906,21.4,26.906,46.429,0,14.016-7.008,22.026-20.524,22.026s-20.524-8.01-20.524-22.026v-5.381h13.015v6.258c0,6.257,2.753,8.51,7.133,8.51s7.134-2.253,7.134-8.51c0-18.021-26.907-21.4-26.907-46.43C627.284,594.569,634.168,586.559,647.559,586.559Z" transform="translate(-626.909 -586.559)"/><path d="M717.873,588.159v67.58c0,6.257,2.753,8.51,7.134,8.51s7.133-2.253,7.133-8.51v-67.58h13.016v66.7c0,14.017-7.009,22.026-20.525,22.026s-20.524-8.009-20.524-22.026v-66.7Z" transform="translate(-655.801 -587.158)"/><path d="M813.49,675.762c-.75-2.253-1.251-3.629-1.251-10.763V651.233c0-8.135-2.753-11.138-9.01-11.138h-4.756v35.667H784.707v-87.6h20.774c14.266,0,20.4,6.633,20.4,20.149v6.883c0,9.01-2.879,14.892-9.011,17.77,6.883,2.879,9.136,9.511,9.136,18.647v13.516c0,4.254.125,7.383,1.5,10.638Zm-15.017-75.088V627.58h5.382c5.13,0,8.259-2.253,8.259-9.261v-8.635c0-6.257-2.128-9.01-7.008-9.01Z" transform="translate(-685.965 -587.158)"/><path d="M883.309,659.618l10.513-71.459h12.64l-13.516,87.6H872.422l-13.516-87.6H872.8Z" transform="translate(-713.734 -587.158)"/><path d="M945.1,588.159H958.87v87.6H945.1Z" transform="translate(-745.994 -587.158)"/><path d="M1001.706,659.618l10.512-71.459h12.64l-13.516,87.6H990.818l-13.516-87.6h13.891Z" transform="translate(-758.045 -587.158)"/><path d="M1100.883,675.762h-13.891l-2.378-15.894h-16.9l-2.378,15.894H1052.7l14.017-87.6h20.148Zm-31.412-27.783h13.265l-6.632-44.3Z" transform="translate(-786.263 -587.158)"/><path d="M1139.9,588.159h13.766v75.088h22.652v12.515H1139.9Z" transform="translate(-818.897 -587.158)"/><path d="M1256.72,640.846l-4.255,8.01v26.906H1238.7v-87.6h13.766v38.17l18.021-38.17h13.766L1265.1,627.2l19.148,48.557H1270.11Z" transform="translate(-855.873 -587.158)"/><path d="M1321.5,588.159h13.766v87.6H1321.5Z" transform="translate(-886.86 -587.158)"/><path d="M1353.093,588.159h42.55v12.515h-14.392v75.088h-13.766V600.674h-14.392Z" transform="translate(-898.685 -587.158)"/></g><g transform="translate(628.594 335.589)"><path class="a" d="M629.6,472.9V335.589h67.309q43.075,0,64.809,17.212t21.73,51.443q0,21.54-10,36.924t-29.519,23.558q-19.522,8.176-47.405,8.174Zm67.885-38.655q18.075,0,26.828-7.5t8.749-22.885q0-15-8.653-22.308t-26.347-7.308H678.448v60Z" transform="translate(-629.602 -335.589)"/><path class="a" d="M898.683,472.9V335.589h129.041v35.193H947.145v15.385h70.964v35H947.145v16.539h80.579V472.9Z" transform="translate(-730.306 -335.589)"/><path class="a" d="M1181.729,472.9l-52.694-137.31h54.04l29.424,90.579,29.616-90.579H1295L1242.114,472.9Z" transform="translate(-816.516 -335.589)"/></g><circle class="a" cx="18.175" cy="18.175" r="18.175" transform="translate(1087.516 436.548)"/></g></svg>